<?xml version="1.0" encoding="utf-8" standalone="no"?>
<!DOCTYPE svg PUBLIC "-//W3C//DTD SVG 1.1//EN"
  "http://www.w3.org/Graphics/SVG/1.1/DTD/svg11.dtd">
<!-- Created with matplotlib (https://matplotlib.org/) -->
<svg height="345.6pt" version="1.1" viewBox="0 0 460.8 345.6" width="460.8pt" xmlns="http://www.w3.org/2000/svg" xmlns:xlink="http://www.w3.org/1999/xlink">
 <defs>
  <style type="text/css">
*{stroke-linecap:butt;stroke-linejoin:round;}
  </style>
 </defs>
 <g id="figure_1">
  <g id="patch_1">
   <path d="M 0 345.6 
L 460.8 345.6 
L 460.8 0 
L 0 0 
z
" style="fill:#ffffff;"/>
  </g>
  <g id="axes_1">
   <g id="patch_2">
    <path d="M 57.6 162.432 
L 414.72 162.432 
L 414.72 41.472 
L 57.6 41.472 
z
" style="fill:#ffffff;"/>
   </g>
   <g id="matplotlib.axis_1">
    <g id="xtick_1">
     <g id="line2d_1">
      <defs>
       <path d="M 0 0 
L 0 3.5 
" id="m0803a7db83" style="stroke:#000000;stroke-width:0.8;"/>
      </defs>
      <g>
       <use style="stroke:#000000;stroke-width:0.8;" x="62.577688" xlink:href="#m0803a7db83" y="162.432"/>
      </g>
     </g>
     <g id="text_1">
      <!-- 0 -->
      <defs>
       <path d="M 31.78125 66.40625 
Q 24.171875 66.40625 20.328125 58.90625 
Q 16.5 51.421875 16.5 36.375 
Q 16.5 21.390625 20.328125 13.890625 
Q 24.171875 6.390625 31.78125 6.390625 
Q 39.453125 6.390625 43.28125 13.890625 
Q 47.125 21.390625 47.125 36.375 
Q 47.125 51.421875 43.28125 58.90625 
Q 39.453125 66.40625 31.78125 66.40625 
z
M 31.78125 74.21875 
Q 44.046875 74.21875 50.515625 64.515625 
Q 56.984375 54.828125 56.984375 36.375 
Q 56.984375 17.96875 50.515625 8.265625 
Q 44.046875 -1.421875 31.78125 -1.421875 
Q 19.53125 -1.421875 13.0625 8.265625 
Q 6.59375 17.96875 6.59375 36.375 
Q 6.59375 54.828125 13.0625 64.515625 
Q 19.53125 74.21875 31.78125 74.21875 
z
" id="DejaVuSans-48"/>
      </defs>
      <g transform="translate(59.396438 177.030437)scale(0.1 -0.1)">
       <use xlink:href="#DejaVuSans-48"/>
      </g>
     </g>
    </g>
    <g id="xtick_2">
     <g id="line2d_2">
      <g>
       <use style="stroke:#000000;stroke-width:0.8;" x="108.664647" xlink:href="#m0803a7db83" y="162.432"/>
      </g>
     </g>
     <g id="text_2">
      <!-- 50 -->
      <defs>
       <path d="M 10.796875 72.90625 
L 49.515625 72.90625 
L 49.515625 64.59375 
L 19.828125 64.59375 
L 19.828125 46.734375 
Q 21.96875 47.46875 24.109375 47.828125 
Q 26.265625 48.1875 28.421875 48.1875 
Q 40.625 48.1875 47.75 41.5 
Q 54.890625 34.8125 54.890625 23.390625 
Q 54.890625 11.625 47.5625 5.09375 
Q 40.234375 -1.421875 26.90625 -1.421875 
Q 22.3125 -1.421875 17.546875 -0.640625 
Q 12.796875 0.140625 7.71875 1.703125 
L 7.71875 11.625 
Q 12.109375 9.234375 16.796875 8.0625 
Q 21.484375 6.890625 26.703125 6.890625 
Q 35.15625 6.890625 40.078125 11.328125 
Q 45.015625 15.765625 45.015625 23.390625 
Q 45.015625 31 40.078125 35.4375 
Q 35.15625 39.890625 26.703125 39.890625 
Q 22.75 39.890625 18.8125 39.015625 
Q 14.890625 38.140625 10.796875 36.28125 
z
" id="DejaVuSans-53"/>
      </defs>
      <g transform="translate(102.302147 177.030437)scale(0.1 -0.1)">
       <use xlink:href="#DejaVuSans-53"/>
       <use x="63.623047" xlink:href="#DejaVuSans-48"/>
      </g>
     </g>
    </g>
    <g id="xtick_3">
     <g id="line2d_3">
      <g>
       <use style="stroke:#000000;stroke-width:0.8;" x="154.751606" xlink:href="#m0803a7db83" y="162.432"/>
      </g>
     </g>
     <g id="text_3">
      <!-- 100 -->
      <defs>
       <path d="M 12.40625 8.296875 
L 28.515625 8.296875 
L 28.515625 63.921875 
L 10.984375 60.40625 
L 10.984375 69.390625 
L 28.421875 72.90625 
L 38.28125 72.90625 
L 38.28125 8.296875 
L 54.390625 8.296875 
L 54.390625 0 
L 12.40625 0 
z
" id="DejaVuSans-49"/>
      </defs>
      <g transform="translate(145.207856 177.030437)scale(0.1 -0.1)">
       <use xlink:href="#DejaVuSans-49"/>
       <use x="63.623047" xlink:href="#DejaVuSans-48"/>
       <use x="127.246094" xlink:href="#DejaVuSans-48"/>
      </g>
     </g>
    </g>
    <g id="xtick_4">
     <g id="line2d_4">
      <g>
       <use style="stroke:#000000;stroke-width:0.8;" x="200.838565" xlink:href="#m0803a7db83" y="162.432"/>
      </g>
     </g>
     <g id="text_4">
      <!-- 150 -->
      <g transform="translate(191.294815 177.030437)scale(0.1 -0.1)">
       <use xlink:href="#DejaVuSans-49"/>
       <use x="63.623047" xlink:href="#DejaVuSans-53"/>
       <use x="127.246094" xlink:href="#DejaVuSans-48"/>
      </g>
     </g>
    </g>
    <g id="xtick_5">
     <g id="line2d_5">
      <g>
       <use style="stroke:#000000;stroke-width:0.8;" x="246.925524" xlink:href="#m0803a7db83" y="162.432"/>
      </g>
     </g>
     <g id="text_5">
      <!-- 200 -->
      <defs>
       <path d="M 19.1875 8.296875 
L 53.609375 8.296875 
L 53.609375 0 
L 7.328125 0 
L 7.328125 8.296875 
Q 12.9375 14.109375 22.625 23.890625 
Q 32.328125 33.6875 34.8125 36.53125 
Q 39.546875 41.84375 41.421875 45.53125 
Q 43.3125 49.21875 43.3125 52.78125 
Q 43.3125 58.59375 39.234375 62.25 
Q 35.15625 65.921875 28.609375 65.921875 
Q 23.96875 65.921875 18.8125 64.3125 
Q 13.671875 62.703125 7.8125 59.421875 
L 7.8125 69.390625 
Q 13.765625 71.78125 18.9375 73 
Q 24.125 74.21875 28.421875 74.21875 
Q 39.75 74.21875 46.484375 68.546875 
Q 53.21875 62.890625 53.21875 53.421875 
Q 53.21875 48.921875 51.53125 44.890625 
Q 49.859375 40.875 45.40625 35.40625 
Q 44.1875 33.984375 37.640625 27.21875 
Q 31.109375 20.453125 19.1875 8.296875 
z
" id="DejaVuSans-50"/>
      </defs>
      <g transform="translate(237.381774 177.030437)scale(0.1 -0.1)">
       <use xlink:href="#DejaVuSans-50"/>
       <use x="63.623047" xlink:href="#DejaVuSans-48"/>
       <use x="127.246094" xlink:href="#DejaVuSans-48"/>
      </g>
     </g>
    </g>
    <g id="xtick_6">
     <g id="line2d_6">
      <g>
       <use style="stroke:#000000;stroke-width:0.8;" x="293.012482" xlink:href="#m0803a7db83" y="162.432"/>
      </g>
     </g>
     <g id="text_6">
      <!-- 250 -->
      <g transform="translate(283.468732 177.030437)scale(0.1 -0.1)">
       <use xlink:href="#DejaVuSans-50"/>
       <use x="63.623047" xlink:href="#DejaVuSans-53"/>
       <use x="127.246094" xlink:href="#DejaVuSans-48"/>
      </g>
     </g>
    </g>
    <g id="xtick_7">
     <g id="line2d_7">
      <g>
       <use style="stroke:#000000;stroke-width:0.8;" x="339.099441" xlink:href="#m0803a7db83" y="162.432"/>
      </g>
     </g>
     <g id="text_7">
      <!-- 300 -->
      <defs>
       <path d="M 40.578125 39.3125 
Q 47.65625 37.796875 51.625 33 
Q 55.609375 28.21875 55.609375 21.1875 
Q 55.609375 10.40625 48.1875 4.484375 
Q 40.765625 -1.421875 27.09375 -1.421875 
Q 22.515625 -1.421875 17.65625 -0.515625 
Q 12.796875 0.390625 7.625 2.203125 
L 7.625 11.71875 
Q 11.71875 9.328125 16.59375 8.109375 
Q 21.484375 6.890625 26.8125 6.890625 
Q 36.078125 6.890625 40.9375 10.546875 
Q 45.796875 14.203125 45.796875 21.1875 
Q 45.796875 27.640625 41.28125 31.265625 
Q 36.765625 34.90625 28.71875 34.90625 
L 20.21875 34.90625 
L 20.21875 43.015625 
L 29.109375 43.015625 
Q 36.375 43.015625 40.234375 45.921875 
Q 44.09375 48.828125 44.09375 54.296875 
Q 44.09375 59.90625 40.109375 62.90625 
Q 36.140625 65.921875 28.71875 65.921875 
Q 24.65625 65.921875 20.015625 65.03125 
Q 15.375 64.15625 9.8125 62.3125 
L 9.8125 71.09375 
Q 15.4375 72.65625 20.34375 73.4375 
Q 25.25 74.21875 29.59375 74.21875 
Q 40.828125 74.21875 47.359375 69.109375 
Q 53.90625 64.015625 53.90625 55.328125 
Q 53.90625 49.265625 50.4375 45.09375 
Q 46.96875 40.921875 40.578125 39.3125 
z
" id="DejaVuSans-51"/>
      </defs>
      <g transform="translate(329.555691 177.030437)scale(0.1 -0.1)">
       <use xlink:href="#DejaVuSans-51"/>
       <use x="63.623047" xlink:href="#DejaVuSans-48"/>
       <use x="127.246094" xlink:href="#DejaVuSans-48"/>
      </g>
     </g>
    </g>
    <g id="xtick_8">
     <g id="line2d_8">
      <g>
       <use style="stroke:#000000;stroke-width:0.8;" x="385.1864" xlink:href="#m0803a7db83" y="162.432"/>
      </g>
     </g>
     <g id="text_8">
      <!-- 350 -->
      <g transform="translate(375.64265 177.030437)scale(0.1 -0.1)">
       <use xlink:href="#DejaVuSans-51"/>
       <use x="63.623047" xlink:href="#DejaVuSans-53"/>
       <use x="127.246094" xlink:href="#DejaVuSans-48"/>
      </g>
     </g>
    </g>
   </g>
   <g id="matplotlib.axis_2">
    <g id="ytick_1">
     <g id="line2d_9">
      <defs>
       <path d="M 0 0 
L -3.5 0 
" id="mae4dcf2eae" style="stroke:#000000;stroke-width:0.8;"/>
      </defs>
      <g>
       <use style="stroke:#000000;stroke-width:0.8;" x="57.6" xlink:href="#mae4dcf2eae" y="145.266264"/>
      </g>
     </g>
     <g id="text_9">
      <!-- −0.0004 -->
      <defs>
       <path d="M 10.59375 35.5 
L 73.1875 35.5 
L 73.1875 27.203125 
L 10.59375 27.203125 
z
" id="DejaVuSans-8722"/>
       <path d="M 10.6875 12.40625 
L 21 12.40625 
L 21 0 
L 10.6875 0 
z
" id="DejaVuSans-46"/>
       <path d="M 37.796875 64.3125 
L 12.890625 25.390625 
L 37.796875 25.390625 
z
M 35.203125 72.90625 
L 47.609375 72.90625 
L 47.609375 25.390625 
L 58.015625 25.390625 
L 58.015625 17.1875 
L 47.609375 17.1875 
L 47.609375 0 
L 37.796875 0 
L 37.796875 17.1875 
L 4.890625 17.1875 
L 4.890625 26.703125 
z
" id="DejaVuSans-52"/>
      </defs>
      <g transform="translate(7.229687 149.065483)scale(0.1 -0.1)">
       <use xlink:href="#DejaVuSans-8722"/>
       <use x="83.789062" xlink:href="#DejaVuSans-48"/>
       <use x="147.412109" xlink:href="#DejaVuSans-46"/>
       <use x="179.199219" xlink:href="#DejaVuSans-48"/>
       <use x="242.822266" xlink:href="#DejaVuSans-48"/>
       <use x="306.445312" xlink:href="#DejaVuSans-48"/>
       <use x="370.068359" xlink:href="#DejaVuSans-52"/>
      </g>
     </g>
    </g>
    <g id="ytick_2">
     <g id="line2d_10">
      <g>
       <use style="stroke:#000000;stroke-width:0.8;" x="57.6" xlink:href="#mae4dcf2eae" y="107.103286"/>
      </g>
     </g>
     <g id="text_10">
      <!-- −0.0002 -->
      <g transform="translate(7.229687 110.902505)scale(0.1 -0.1)">
       <use xlink:href="#DejaVuSans-8722"/>
       <use x="83.789062" xlink:href="#DejaVuSans-48"/>
       <use x="147.412109" xlink:href="#DejaVuSans-46"/>
       <use x="179.199219" xlink:href="#DejaVuSans-48"/>
       <use x="242.822266" xlink:href="#DejaVuSans-48"/>
       <use x="306.445312" xlink:href="#DejaVuSans-48"/>
       <use x="370.068359" xlink:href="#DejaVuSans-50"/>
      </g>
     </g>
    </g>
    <g id="ytick_3">
     <g id="line2d_11">
      <g>
       <use style="stroke:#000000;stroke-width:0.8;" x="57.6" xlink:href="#mae4dcf2eae" y="68.940308"/>
      </g>
     </g>
     <g id="text_11">
      <!-- 0.0000 -->
      <g transform="translate(15.609375 72.739527)scale(0.1 -0.1)">
       <use xlink:href="#DejaVuSans-48"/>
       <use x="63.623047" xlink:href="#DejaVuSans-46"/>
       <use x="95.410156" xlink:href="#DejaVuSans-48"/>
       <use x="159.033203" xlink:href="#DejaVuSans-48"/>
       <use x="222.65625" xlink:href="#DejaVuSans-48"/>
       <use x="286.279297" xlink:href="#DejaVuSans-48"/>
      </g>
     </g>
    </g>
   </g>
   <g id="line2d_12">
    <path clip-path="url(#pf03b38f32f)" d="M 78.291958 124.705476 
L 87.454727 113.590913 
L 96.608618 105.118022 
L 105.756644 98.852317 
L 114.895632 94.397557 
L 124.028597 91.386744 
L 133.152524 89.48818 
L 142.270586 88.40097 
L 151.380879 87.857508 
L 160.481659 87.621757 
L 169.576416 87.489364 
L 178.663086 87.287623 
L 187.73961 86.875154 
L 196.810903 86.141212 
L 205.876329 85.005769 
L 214.936366 83.419078 
L 223.976267 81.365352 
L 233.021084 78.849689 
L 242.051314 75.917558 
L 251.07774 72.635621 
L 260.091483 69.106234 
L 269.108555 65.451107 
L 278.1112 61.834231 
L 287.109089 58.437124 
L 296.099526 55.474595 
L 305.083464 53.188193 
L 314.060108 51.847873 
L 323.02724 51.750748 
L 331.994373 53.222676 
L 340.945017 56.61206 
L 349.892173 62.300665 
L 358.838061 70.699452 
L 367.765717 82.221816 
L 376.693056 97.346844 
L 385.610248 116.54426 
L 394.520306 140.328345 
" style="fill:none;stroke:#0000ff;stroke-linecap:square;stroke-width:1.5;"/>
   </g>
   <g id="line2d_13">
    <path clip-path="url(#pf03b38f32f)" d="M 80.470602 81.473879 
L 89.356404 81.28541 
L 98.234279 81.493706 
L 107.10597 81.964787 
L 115.968625 82.578014 
L 124.823987 83.226475 
L 133.674435 83.816667 
L 142.514102 84.267803 
L 151.348378 84.512903 
L 160.172667 84.497629 
L 168.990613 84.180724 
L 177.802377 83.533548 
L 186.605104 82.540525 
L 195.400697 81.198312 
L 204.185351 79.516959 
L 212.968261 77.516249 
L 221.738487 75.23258 
L 230.505067 72.70979 
L 239.262452 70.007572 
L 248.013496 67.195224 
L 256.755978 64.355464 
L 265.492594 61.581202 
L 274.223028 58.978054 
L 282.943473 56.664123 
L 291.664077 54.765607 
L 300.366924 53.426011 
L 309.06882 52.793533 
L 317.760729 53.03157 
L 326.447881 54.313701 
L 335.128691 56.824825 
L 343.801734 60.760039 
L 352.467641 66.325763 
L 361.123878 73.73653 
L 369.775518 83.224253 
L 378.417962 95.022083 
L 387.053747 109.381298 
L 395.68002 126.554951 
" style="fill:none;stroke:#008000;stroke-linecap:square;stroke-width:1.5;"/>
   </g>
   <g id="line2d_14">
    <path clip-path="url(#pf03b38f32f)" d="M 81.045148 69.323757 
L 89.647482 73.678813 
L 98.243474 77.573738 
L 106.831539 80.975977 
L 115.411836 83.861 
L 123.985791 86.21161 
L 132.553246 88.016969 
L 141.108494 89.272582 
L 149.659461 89.982988 
L 158.199964 90.157698 
L 166.736187 89.813628 
L 175.262897 88.974386 
L 183.781522 87.6702 
L 192.292855 85.937696 
L 200.796101 83.820293 
L 209.292055 81.36751 
L 217.78246 78.634825 
L 226.262085 75.686415 
L 234.736636 72.589056 
L 243.202943 69.418818 
L 251.661957 66.256478 
L 260.114947 63.188833 
L 268.558741 60.310339 
L 276.996036 57.719374 
L 285.426037 55.521513 
L 293.849539 53.827828 
L 302.265906 52.755617 
L 310.674188 52.427801 
L 319.076287 52.972982 
L 327.47141 54.525678 
L 335.859081 57.22582 
L 344.240411 61.219531 
L 352.613973 66.65738 
L 360.981193 73.697061 
L 369.339059 82.497736 
L 377.690109 93.228947 
L 386.032121 106.060023 
L 394.367633 121.172394 
" style="fill:none;stroke:#ff0000;stroke-linecap:square;stroke-width:1.5;"/>
   </g>
   <g id="line2d_15">
    <path clip-path="url(#pf03b38f32f)" d="M 79.127459 81.910387 
L 87.440934 81.493963 
L 95.744897 81.573534 
L 104.040616 82.004356 
L 112.330945 82.655612 
L 120.613029 83.409464 
L 128.887504 84.161554 
L 137.152942 84.820541 
L 145.410929 85.308407 
L 153.66194 85.559905 
L 161.906133 85.52252 
L 170.146681 85.156184 
L 178.369155 84.434768 
L 186.589726 83.342446 
L 194.802846 81.877188 
L 203.008356 80.04887 
L 211.207208 77.879204 
L 219.396389 75.403041 
L 227.580337 72.66492 
L 235.756359 69.723332 
L 243.923662 66.647971 
L 252.084939 63.518751 
L 260.239241 60.428434 
L 268.385299 57.48127 
L 276.522479 54.792417 
L 284.655379 52.48663 
L 292.780351 50.702395 
L 300.898665 49.587701 
L 309.009844 49.301853 
L 317.113889 50.014805 
L 325.211593 51.907438 
L 333.302003 55.170919 
L 341.383695 60.005886 
L 349.459203 66.625713 
L 357.527101 75.251693 
L 365.587548 86.116157 
L 373.639434 99.459325 
L 381.683075 115.532859 
L 389.723229 134.609925 
L 397.748797 156.933818 
" style="fill:none;stroke:#00bfbf;stroke-linecap:square;stroke-width:1.5;"/>
   </g>
   <g id="line2d_16">
    <path clip-path="url(#pf03b38f32f)" d="M 81.878906 62.020661 
L 89.885291 68.340192 
L 97.884066 73.775575 
L 105.875548 78.354712 
L 113.859421 82.107758 
L 121.834891 85.067472 
L 129.804336 87.270233 
L 137.769659 88.754069 
L 145.717385 89.558044 
L 153.666379 89.727473 
L 161.605543 89.30708 
L 169.534878 88.345572 
L 177.457238 86.893409 
L 185.368975 85.004506 
L 193.276431 82.732765 
L 201.181827 80.134794 
L 209.068198 77.276656 
L 216.953776 74.214455 
L 224.835549 71.013789 
L 232.700676 67.74703 
L 240.563583 64.477527 
L 248.417453 61.279615 
L 256.265775 58.225615 
L 264.10617 55.392413 
L 271.942284 52.856944 
L 279.764605 50.702286 
L 287.585816 49.007313 
L 295.398783 47.858535 
L 303.207311 47.342243 
L 311.002681 47.547256 
L 318.794087 48.564125 
L 326.582481 50.486942 
L 334.355972 53.40684 
L 342.126133 57.424105 
L 349.887417 62.63493 
L 357.642517 69.141517 
L 365.390008 77.045266 
L 373.133535 86.455078 
L 380.867391 97.470485 
L 388.588723 110.192912 
L 396.30625 124.745845 
" style="fill:none;stroke:#bf00bf;stroke-linecap:square;stroke-width:1.5;"/>
   </g>
   <g id="line2d_17">
    <path clip-path="url(#pf03b38f32f)" d="M 79.789043 72.302938 
L 87.483898 74.047537 
L 95.170193 75.60692 
L 102.849036 76.962002 
L 110.525818 78.097407 
L 118.1896 78.99865 
L 125.84276 79.656736 
L 133.492908 80.065749 
L 141.135445 80.221854 
L 148.769422 80.124817 
L 156.395789 79.777483 
L 164.016131 79.185556 
L 171.628071 78.358048 
L 179.232717 77.306709 
L 186.830547 76.046229 
L 194.421084 74.594369 
L 202.000999 72.972478 
L 209.574255 71.203247 
L 217.139901 69.31317 
L 224.699998 67.3308 
L 232.252486 65.288536 
L 239.796412 63.221288 
L 247.331777 61.16641 
L 254.864448 59.162381 
L 262.385069 57.254405 
L 269.900934 55.485959 
L 277.413786 53.904861 
L 284.910785 52.564208 
L 292.405881 51.514499 
L 299.897648 50.812224 
L 307.374037 50.516405 
L 314.851377 50.68715 
L 322.312863 51.387144 
L 329.771971 52.682831 
L 337.223628 54.641877 
L 344.66926 57.335197 
L 352.105697 60.834266 
L 359.536267 65.21563 
L 366.958119 70.554938 
L 374.37347 76.933279 
L 381.781052 84.431479 
L 389.180708 93.133183 
L 396.572754 103.124768 
" style="fill:none;stroke:#bfbf00;stroke-linecap:square;stroke-width:1.5;"/>
   </g>
   <g id="line2d_18">
    <path clip-path="url(#pf03b38f32f)" d="M 79.378902 66.127008 
L 86.748435 68.815828 
L 94.108932 71.279438 
L 101.46277 73.498702 
L 108.808364 75.45634 
L 116.147616 77.139173 
L 123.479259 78.536291 
L 130.801072 79.639927 
L 138.117019 80.446275 
L 145.425514 80.953622 
L 152.725925 81.163502 
L 160.019359 81.080442 
L 167.304074 80.711914 
L 174.581338 80.068219 
L 181.853211 79.162211 
L 189.115255 78.010439 
L 196.371115 76.631159 
L 203.619842 75.04603 
L 210.860324 73.279603 
L 218.092246 71.35902 
L 225.318935 69.313045 
L 232.536429 67.175117 
L 239.746314 64.979753 
L 246.94843 62.764545 
L 254.14468 60.569019 
L 261.33332 58.436375 
L 268.515143 56.411565 
L 275.688246 54.542767 
L 282.855325 52.879403 
L 290.015587 51.47431 
L 297.169665 50.382455 
L 304.315024 49.661581 
L 311.454042 49.371153 
L 318.585766 49.573366 
L 325.710198 50.332598 
L 332.828447 51.715769 
L 339.938293 53.79136 
L 347.041322 56.630878 
L 354.136583 60.307273 
L 361.225185 64.896655 
L 368.306177 70.476122 
L 375.380035 77.125793 
L 382.445331 84.925913 
L 389.503652 93.961905 
L 396.554522 104.319145 
" style="fill:none;stroke:#000000;stroke-linecap:square;stroke-width:1.5;"/>
   </g>
   <g id="line2d_19">
    <path clip-path="url(#pf03b38f32f)" d="M 78.654537 59.436718 
L 85.682101 61.565015 
L 92.701897 63.715957 
L 99.713607 65.841777 
L 106.718818 67.899659 
L 113.716894 69.850436 
L 120.706568 71.659106 
L 127.689582 73.295707 
L 134.663561 74.733512 
L 141.631673 75.951129 
L 148.592492 76.930299 
L 155.547921 77.657317 
L 162.491618 78.121829 
L 169.428181 78.318546 
L 176.359513 78.245505 
L 183.284344 77.904571 
L 190.197126 77.302128 
L 197.106261 76.447213 
L 204.004616 75.354184 
L 210.897422 74.039529 
L 217.781667 72.52472 
L 224.660047 70.833747 
L 231.52923 68.995646 
L 238.393816 67.040958 
L 245.247939 65.006684 
L 252.096354 62.930267 
L 258.936525 60.85475 
L 265.770513 58.825224 
L 272.594989 56.891741 
L 279.41566 55.10517 
L 286.227294 53.522696 
L 293.034172 52.202431 
L 299.830428 51.207729 
L 306.621769 50.603169 
L 313.404866 50.457803 
L 320.181621 50.843364 
L 326.949974 51.834558 
L 333.711986 53.509565 
L 340.466863 55.949282 
L 347.214606 59.237669 
L 353.954738 63.461306 
L 360.687579 68.710066 
L 367.413284 75.07672 
L 374.130588 82.655242 
L 380.84044 91.54455 
L 387.54284 101.845487 
L 394.23779 113.661601 
" style="fill:none;stroke:#0000ff;stroke-linecap:square;stroke-width:1.5;"/>
   </g>
   <g id="line2d_20">
    <path clip-path="url(#pf03b38f32f)" d="M 75.602341 100.078214 
L 82.276839 93.526034 
L 88.937385 88.082403 
L 95.594761 83.613091 
L 102.246904 80.002857 
L 108.885097 77.144547 
L 115.519008 74.929134 
L 122.146261 73.260355 
L 128.76638 72.04744 
L 135.378889 71.206031 
L 141.983947 70.658133 
L 148.580126 70.332269 
L 155.170281 70.163143 
L 161.752509 70.091979 
L 168.32681 70.06613 
L 174.893977 70.039124 
L 181.455278 69.970561 
L 188.008176 69.826098 
L 194.553623 69.577331 
L 201.09035 69.201844 
L 207.620577 68.682853 
L 214.146524 68.009129 
L 220.658519 67.176589 
L 227.166075 66.184576 
L 233.666972 65.039289 
L 240.159784 63.752484 
L 246.645779 62.340863 
L 253.12559 60.82658 
L 259.599536 59.237179 
L 266.060164 57.60747 
L 272.517305 55.973106 
L 278.970958 54.377384 
L 285.411293 52.871059 
L 291.847348 51.505336 
L 298.276427 50.339249 
L 304.698055 49.43616 
L 311.112707 48.864134 
L 317.519591 48.696132 
L 323.919499 49.009754 
L 330.313065 49.88751 
L 336.698546 51.416121 
L 343.080222 53.688616 
L 349.448581 56.797127 
L 355.812976 60.846133 
L 362.16992 65.938959 
L 368.518461 72.183682 
L 374.861136 79.696342 
L 381.195092 88.591203 
L 387.521596 98.99131 
L 393.841125 111.023397 
" style="fill:none;stroke:#008000;stroke-linecap:square;stroke-width:1.5;"/>
   </g>
   <g id="line2d_21">
    <path clip-path="url(#pf03b38f32f)" d="M 74.425029 56.330302 
L 80.721253 57.624697 
L 87.010183 58.967488 
L 93.291187 60.332425 
L 99.564105 61.695344 
L 105.830999 63.034512 
L 112.090124 64.329306 
L 118.341956 65.561488 
L 124.586179 66.714552 
L 130.82406 67.774135 
L 137.052428 68.726995 
L 143.275565 69.562878 
L 149.492519 70.272458 
L 155.698851 70.847976 
L 161.897731 71.284284 
L 168.089794 71.577606 
L 174.275357 71.725824 
L 180.454896 71.728491 
L 186.623812 71.586974 
L 192.788131 71.304117 
L 198.94484 70.884582 
L 205.092987 70.334714 
L 211.234477 69.662194 
L 217.37121 68.876143 
L 223.492881 67.988995 
L 229.612175 67.011507 
L 235.724176 65.958403 
L 241.826664 64.845659 
L 247.923604 63.689605 
L 254.012458 62.509221 
L 260.093861 61.32435 
L 266.169239 60.156113 
L 272.23574 59.027862 
L 278.297801 57.963004 
L 284.351142 56.987907 
L 290.397349 56.129242 
L 296.439751 55.414966 
L 302.468836 54.875722 
L 308.492689 54.541534 
L 314.510518 54.444828 
L 320.52042 54.619163 
L 326.52398 55.099357 
L 332.519296 55.92124 
L 338.507795 57.122167 
L 344.488525 58.740349 
L 350.462914 60.815812 
L 356.429376 63.3888 
L 362.389179 66.501775 
L 368.340738 70.196901 
L 374.285163 74.518903 
L 380.223088 79.513654 
L 386.152294 85.225508 
L 392.07484 91.703705 
L 397.988984 98.994674 
" style="fill:none;stroke:#ff0000;stroke-linecap:square;stroke-width:1.5;"/>
   </g>
   <g id="line2d_22">
    <path clip-path="url(#pf03b38f32f)" d="M 77.736436 54.947762 
L 83.627751 56.18976 
L 89.515102 57.421262 
L 95.390404 58.62257 
L 101.259206 59.778377 
L 107.121983 60.873802 
L 112.977943 61.895211 
L 118.825342 62.830345 
L 124.667509 63.669212 
L 130.500798 64.402218 
L 136.32727 65.022029 
L 142.147401 65.522443 
L 147.959763 65.898509 
L 153.761661 66.14674 
L 159.558644 66.265334 
L 165.350238 66.253416 
L 171.131843 66.111633 
L 176.915351 65.841401 
L 182.679358 65.44704 
L 188.4375 64.932465 
L 194.191044 64.303194 
L 199.936185 63.566607 
L 205.679107 62.730049 
L 211.407284 61.804863 
L 217.133401 60.799714 
L 222.850322 59.727628 
L 228.55678 58.601931 
L 234.261177 57.435098 
L 239.955427 56.244054 
L 245.642226 55.044667 
L 251.323317 53.854089 
L 256.997592 52.691178 
L 262.665841 51.575489 
L 268.323628 50.528622 
L 273.976975 49.571266 
L 279.621761 48.726986 
L 285.260205 48.019298 
L 290.891991 47.473161 
L 296.516167 47.11453 
L 302.134794 46.970182 
L 307.744385 47.067992 
L 313.348426 47.436763 
L 318.943589 48.105944 
L 324.53257 49.106401 
L 330.114098 50.469473 
L 335.688969 52.227777 
L 341.256546 54.41443 
L 346.816672 57.063463 
L 352.369347 60.209788 
L 357.915522 63.889819 
L 363.452977 68.138588 
L 368.986627 72.997623 
L 374.509655 78.499165 
L 380.022378 84.681332 
L 385.531613 91.59163 
L 391.033714 99.266758 
L 396.52757 107.746213 
" style="fill:none;stroke:#00bfbf;stroke-linecap:square;stroke-width:1.5;"/>
   </g>
   <g id="line2d_23">
    <path clip-path="url(#pf03b38f32f)" d="M 75.403057 51.828867 
L 80.874085 53.918227 
L 86.338295 55.858008 
L 91.794736 57.647287 
L 97.244202 59.286229 
L 102.686216 60.775061 
L 108.119036 62.114238 
L 113.548208 63.306369 
L 118.968503 64.351994 
L 124.381822 65.253756 
L 129.788324 66.01432 
L 135.187057 66.636665 
L 140.578022 67.124373 
L 145.962169 67.481501 
L 151.338866 67.712393 
L 156.707952 67.82187 
L 162.070063 67.815165 
L 167.426149 67.697853 
L 172.773357 67.476032 
L 178.114541 67.156011 
L 183.447639 66.744705 
L 188.774078 66.249193 
L 194.092908 65.677117 
L 199.403493 65.036502 
L 204.706945 64.335519 
L 210.003737 63.582742 
L 215.29292 62.787304 
L 220.576871 61.958181 
L 225.849249 61.106076 
L 231.117821 60.239768 
L 236.37593 59.3707 
L 241.630393 58.50843 
L 246.875502 57.6649 
L 252.116647 56.850576 
L 257.346853 56.078166 
L 262.571194 55.358827 
L 267.788558 54.70497 
L 272.999581 54.129071 
L 278.203628 53.644051 
L 283.398956 53.263144 
L 288.588893 52.999507 
L 293.772489 52.86695 
L 298.945938 52.879424 
L 304.114314 53.051106 
L 309.275238 53.396465 
L 314.42887 53.930213 
L 319.575209 54.667306 
L 324.71489 55.623074 
L 329.846643 56.812722 
L 334.972055 58.252317 
L 340.089698 59.957401 
L 345.201 61.944623 
L 350.303899 64.229519 
L 355.399506 66.829053 
L 360.488295 69.760288 
L 365.56995 73.04009 
L 370.643837 76.6852 
L 375.710589 80.713418 
L 380.769573 85.141773 
L 385.821264 89.98838 
L 390.866138 95.271695 
L 395.903243 101.008841 
" style="fill:none;stroke:#bf00bf;stroke-linecap:square;stroke-width:1.5;"/>
   </g>
   <g id="line2d_24">
    <path clip-path="url(#pf03b38f32f)" d="M 73.832727 52.850964 
L 78.848271 54.267288 
L 83.854462 55.597074 
L 88.855103 56.839807 
L 93.847659 57.993639 
L 98.833715 59.058077 
L 103.811527 60.032223 
L 108.782522 60.916165 
L 113.746858 61.710017 
L 118.703901 62.414094 
L 123.65381 63.029154 
L 128.598012 63.556381 
L 133.53175 63.996659 
L 138.462317 64.352266 
L 143.380201 64.624489 
L 148.296183 64.816158 
L 153.202018 64.929404 
L 158.101036 64.967156 
L 162.996883 64.932412 
L 167.881157 64.82858 
L 172.756552 64.659334 
L 177.628777 64.428298 
L 182.492282 64.139816 
L 187.349604 63.798133 
L 192.198524 63.408041 
L 197.039833 62.97438 
L 201.875753 62.502057 
L 206.701843 61.996873 
L 211.522384 61.463984 
L 216.334047 60.909582 
L 221.141746 60.339142 
L 225.939457 59.759648 
L 230.73273 59.176927 
L 235.51538 58.598435 
L 240.292481 58.030471 
L 245.060546 57.480567 
L 249.825915 56.955336 
L 254.580028 56.463251 
L 259.330337 56.011258 
L 264.071132 55.607828 
L 268.807648 55.260633 
L 273.535126 54.978333 
L 278.256105 54.769223 
L 282.970425 54.641993 
L 287.675549 54.605491 
L 292.375125 54.668672 
L 297.067566 54.84073 
L 301.752873 55.130993 
L 306.431839 55.549033 
L 311.102402 56.104292 
L 315.766941 56.806849 
L 320.423552 57.66638 
L 325.073347 58.693165 
L 329.716007 59.89739 
L 334.351691 61.289487 
L 338.980717 62.880111 
L 343.601657 64.67939 
L 348.217841 66.69951 
L 352.824196 68.949136 
L 357.422624 71.439956 
L 362.0136 74.18328 
L 366.597759 77.190744 
L 371.175101 80.473776 
L 375.744675 84.043148 
L 380.308699 87.912281 
L 384.864797 92.090939 
L 389.413761 96.59157 
L 393.95448 101.424848 
L 398.487273 106.602882 
" style="fill:none;stroke:#bfbf00;stroke-linecap:square;stroke-width:1.5;"/>
   </g>
   <g id="patch_3">
    <path d="M 57.6 162.432 
L 57.6 41.472 
" style="fill:none;stroke:#000000;stroke-linecap:square;stroke-linejoin:miter;stroke-width:0.8;"/>
   </g>
   <g id="patch_4">
    <path d="M 414.72 162.432 
L 414.72 41.472 
" style="fill:none;stroke:#000000;stroke-linecap:square;stroke-linejoin:miter;stroke-width:0.8;"/>
   </g>
   <g id="patch_5">
    <path d="M 57.6 162.432 
L 414.72 162.432 
" style="fill:none;stroke:#000000;stroke-linecap:square;stroke-linejoin:miter;stroke-width:0.8;"/>
   </g>
   <g id="patch_6">
    <path d="M 57.6 41.472 
L 414.72 41.472 
" style="fill:none;stroke:#000000;stroke-linecap:square;stroke-linejoin:miter;stroke-width:0.8;"/>
   </g>
  </g>
  <g id="axes_2">
   <g id="patch_7">
    <path d="M 57.6 307.584 
L 414.72 307.584 
L 414.72 186.624 
L 57.6 186.624 
z
" style="fill:#ffffff;"/>
   </g>
   <g id="matplotlib.axis_3">
    <g id="xtick_9">
     <g id="line2d_25">
      <g>
       <use style="stroke:#000000;stroke-width:0.8;" x="73.832727" xlink:href="#m0803a7db83" y="307.584"/>
      </g>
     </g>
     <g id="text_12">
      <!-- 0 -->
      <g transform="translate(70.651477 322.182437)scale(0.1 -0.1)">
       <use xlink:href="#DejaVuSans-48"/>
      </g>
     </g>
    </g>
    <g id="xtick_10">
     <g id="line2d_26">
      <g>
       <use style="stroke:#000000;stroke-width:0.8;" x="142.037464" xlink:href="#m0803a7db83" y="307.584"/>
      </g>
     </g>
     <g id="text_13">
      <!-- 1 -->
      <g transform="translate(138.856214 322.182437)scale(0.1 -0.1)">
       <use xlink:href="#DejaVuSans-49"/>
      </g>
     </g>
    </g>
    <g id="xtick_11">
     <g id="line2d_27">
      <g>
       <use style="stroke:#000000;stroke-width:0.8;" x="210.2422" xlink:href="#m0803a7db83" y="307.584"/>
      </g>
     </g>
     <g id="text_14">
      <!-- 2 -->
      <g transform="translate(207.06095 322.182437)scale(0.1 -0.1)">
       <use xlink:href="#DejaVuSans-50"/>
      </g>
     </g>
    </g>
    <g id="xtick_12">
     <g id="line2d_28">
      <g>
       <use style="stroke:#000000;stroke-width:0.8;" x="278.446937" xlink:href="#m0803a7db83" y="307.584"/>
      </g>
     </g>
     <g id="text_15">
      <!-- 3 -->
      <g transform="translate(275.265687 322.182437)scale(0.1 -0.1)">
       <use xlink:href="#DejaVuSans-51"/>
      </g>
     </g>
    </g>
    <g id="xtick_13">
     <g id="line2d_29">
      <g>
       <use style="stroke:#000000;stroke-width:0.8;" x="346.651673" xlink:href="#m0803a7db83" y="307.584"/>
      </g>
     </g>
     <g id="text_16">
      <!-- 4 -->
      <g transform="translate(343.470423 322.182437)scale(0.1 -0.1)">
       <use xlink:href="#DejaVuSans-52"/>
      </g>
     </g>
    </g>
    <g id="xtick_14">
     <g id="line2d_30">
      <g>
       <use style="stroke:#000000;stroke-width:0.8;" x="414.856409" xlink:href="#m0803a7db83" y="307.584"/>
      </g>
     </g>
     <g id="text_17">
      <!-- 5 -->
      <g transform="translate(411.675159 322.182437)scale(0.1 -0.1)">
       <use xlink:href="#DejaVuSans-53"/>
      </g>
     </g>
    </g>
   </g>
   <g id="matplotlib.axis_4">
    <g id="ytick_4">
     <g id="line2d_31">
      <g>
       <use style="stroke:#000000;stroke-width:0.8;" x="57.6" xlink:href="#mae4dcf2eae" y="296.613517"/>
      </g>
     </g>
     <g id="text_18">
      <!-- −30 -->
      <g transform="translate(29.495313 300.412736)scale(0.1 -0.1)">
       <use xlink:href="#DejaVuSans-8722"/>
       <use x="83.789062" xlink:href="#DejaVuSans-51"/>
       <use x="147.412109" xlink:href="#DejaVuSans-48"/>
      </g>
     </g>
    </g>
    <g id="ytick_5">
     <g id="line2d_32">
      <g>
       <use style="stroke:#000000;stroke-width:0.8;" x="57.6" xlink:href="#mae4dcf2eae" y="268.766908"/>
      </g>
     </g>
     <g id="text_19">
      <!-- −20 -->
      <g transform="translate(29.495313 272.566126)scale(0.1 -0.1)">
       <use xlink:href="#DejaVuSans-8722"/>
       <use x="83.789062" xlink:href="#DejaVuSans-50"/>
       <use x="147.412109" xlink:href="#DejaVuSans-48"/>
      </g>
     </g>
    </g>
    <g id="ytick_6">
     <g id="line2d_33">
      <g>
       <use style="stroke:#000000;stroke-width:0.8;" x="57.6" xlink:href="#mae4dcf2eae" y="240.920298"/>
      </g>
     </g>
     <g id="text_20">
      <!-- −10 -->
      <g transform="translate(29.495313 244.719517)scale(0.1 -0.1)">
       <use xlink:href="#DejaVuSans-8722"/>
       <use x="83.789062" xlink:href="#DejaVuSans-49"/>
       <use x="147.412109" xlink:href="#DejaVuSans-48"/>
      </g>
     </g>
    </g>
    <g id="ytick_7">
     <g id="line2d_34">
      <g>
       <use style="stroke:#000000;stroke-width:0.8;" x="57.6" xlink:href="#mae4dcf2eae" y="213.073688"/>
      </g>
     </g>
     <g id="text_21">
      <!-- 0 -->
      <g transform="translate(44.2375 216.872907)scale(0.1 -0.1)">
       <use xlink:href="#DejaVuSans-48"/>
      </g>
     </g>
    </g>
   </g>
   <g id="line2d_35">
    <path clip-path="url(#p84e58393bb)" d="M 73.832727 274.331277 
L 78.607059 262.680804 
L 83.38139 253.743221 
L 88.155722 247.081464 
L 92.930053 242.290403 
L 97.704385 238.996843 
L 102.478717 236.859523 
L 107.253048 235.569115 
L 112.02738 234.848227 
L 116.801711 234.4514 
L 121.576043 234.16511 
L 126.350374 233.807765 
L 131.124706 233.229711 
L 135.899037 232.313225 
L 140.673369 230.97252 
L 145.447701 229.153741 
L 150.222032 226.83497 
L 154.996364 224.026221 
L 159.770695 220.769443 
L 164.545027 217.138519 
L 169.319358 213.239267 
L 174.09369 209.209438 
L 178.868021 205.218719 
L 183.642353 201.468728 
L 188.416684 198.19302 
L 193.191016 195.657083 
L 197.965348 194.15834 
L 202.739679 194.026147 
L 207.514011 195.621795 
L 212.288342 199.338509 
L 217.062674 205.601448 
L 221.837005 214.867706 
L 226.611337 227.62631 
L 231.385668 244.398223 
L 236.16 265.736339 
L 240.934332 292.225489 
" style="fill:none;stroke:#0000ff;stroke-linecap:square;stroke-width:1.5;"/>
   </g>
   <g id="line2d_36">
    <path clip-path="url(#p84e58393bb)" d="M 73.832727 226.281142 
L 78.607059 226.386323 
L 83.38139 226.827065 
L 88.155722 227.47605 
L 92.930053 228.218576 
L 97.704385 228.95255 
L 102.478717 229.588494 
L 107.253048 230.049543 
L 112.02738 230.271446 
L 116.801711 230.202564 
L 121.576043 229.80387 
L 126.350374 229.048953 
L 131.124706 227.924013 
L 135.899037 226.427864 
L 140.673369 224.571933 
L 145.447701 222.380259 
L 150.222032 219.889495 
L 154.996364 217.148909 
L 159.770695 214.220379 
L 164.545027 211.178397 
L 169.319358 208.110069 
L 174.09369 205.115114 
L 178.868021 202.305863 
L 183.642353 199.807262 
L 188.416684 197.756868 
L 193.191016 196.304852 
L 197.965348 195.614 
L 202.739679 195.859707 
L 207.514011 197.229985 
L 212.288342 199.925456 
L 217.062674 204.159359 
L 221.837005 210.157542 
L 226.611337 218.158469 
L 231.385668 228.413216 
L 236.16 241.185471 
L 240.934332 256.751537 
L 245.708663 275.40033 
" style="fill:none;stroke:#008000;stroke-linecap:square;stroke-width:1.5;"/>
   </g>
   <g id="line2d_37">
    <path clip-path="url(#p84e58393bb)" d="M 73.832727 213.150077 
L 78.607059 217.982218 
L 83.38139 222.258959 
L 88.155722 225.959219 
L 92.930053 229.068114 
L 97.704385 231.576957 
L 102.478717 233.483263 
L 107.253048 234.790744 
L 112.02738 235.509308 
L 116.801711 235.655066 
L 121.576043 235.250324 
L 126.350374 234.323587 
L 131.124706 232.90956 
L 135.899037 231.049146 
L 140.673369 228.789444 
L 145.447701 226.183756 
L 150.222032 223.291579 
L 154.996364 220.178609 
L 159.770695 216.916742 
L 164.545027 213.58407 
L 169.319358 210.264887 
L 174.09369 207.049681 
L 178.868021 204.035143 
L 183.642353 201.32416 
L 188.416684 199.025817 
L 193.191016 197.255398 
L 197.965348 196.134388 
L 202.739679 195.790466 
L 207.514011 196.357514 
L 212.288342 197.975608 
L 217.062674 200.791026 
L 221.837005 204.956244 
L 226.611337 210.629934 
L 231.385668 217.976969 
L 236.16 227.16842 
L 240.934332 238.381556 
L 245.708663 251.799845 
L 250.482995 267.612953 
" style="fill:none;stroke:#ff0000;stroke-linecap:square;stroke-width:1.5;"/>
   </g>
   <g id="line2d_38">
    <path clip-path="url(#p84e58393bb)" d="M 73.832727 225.894038 
L 78.607059 225.769494 
L 83.38139 226.053542 
L 88.155722 226.617893 
L 92.930053 227.345818 
L 97.704385 228.132146 
L 102.478717 228.883265 
L 107.253048 229.517121 
L 112.02738 229.96322 
L 116.801711 230.162623 
L 121.576043 230.067955 
L 126.350374 229.643395 
L 131.124706 228.864684 
L 135.899037 227.719119 
L 140.673369 226.205556 
L 145.447701 224.334412 
L 150.222032 222.127659 
L 154.996364 219.618832 
L 159.770695 216.853019 
L 164.545027 213.886873 
L 169.319358 210.7886 
L 174.09369 207.637968 
L 178.868021 204.526302 
L 183.642353 201.556486 
L 188.416684 198.842964 
L 193.191016 196.511737 
L 197.965348 194.700365 
L 202.739679 193.557966 
L 207.514011 193.245218 
L 212.288342 193.934356 
L 217.062674 195.809176 
L 221.837005 199.06503 
L 226.611337 203.908831 
L 231.385668 210.559047 
L 236.16 219.245709 
L 240.934332 230.210405 
L 245.708663 243.706279 
L 250.482995 259.998037 
L 255.257326 279.361943 
L 260.031658 302.085818 
" style="fill:none;stroke:#00bfbf;stroke-linecap:square;stroke-width:1.5;"/>
   </g>
   <g id="line2d_39">
    <path clip-path="url(#p84e58393bb)" d="M 73.832727 205.698736 
L 78.607059 212.185146 
L 83.38139 217.734539 
L 88.155722 222.384313 
L 92.930053 226.173652 
L 97.704385 229.143516 
L 102.478717 231.336649 
L 107.253048 232.797578 
L 112.02738 233.57261 
L 116.801711 233.709832 
L 121.576043 233.259114 
L 126.350374 232.272108 
L 131.124706 230.802246 
L 135.899037 228.904743 
L 140.673369 226.636594 
L 145.447701 224.056577 
L 150.222032 221.22525 
L 154.996364 218.204953 
L 159.770695 215.059808 
L 164.545027 211.855717 
L 169.319358 208.660366 
L 174.09369 205.543219 
L 178.868021 202.575525 
L 183.642353 199.830313 
L 188.416684 197.382392 
L 193.191016 195.308354 
L 197.965348 193.686573 
L 202.739679 192.597204 
L 207.514011 192.122182 
L 212.288342 192.345225 
L 217.062674 193.351832 
L 221.837005 195.229285 
L 226.611337 198.066644 
L 231.385668 201.954753 
L 236.16 206.986237 
L 240.934332 213.255504 
L 245.708663 220.858739 
L 250.482995 229.893914 
L 255.257326 240.460778 
L 260.031658 252.660864 
L 264.805989 266.597486 
" style="fill:none;stroke:#bf00bf;stroke-linecap:square;stroke-width:1.5;"/>
   </g>
   <g id="line2d_40">
    <path clip-path="url(#p84e58393bb)" d="M 73.832727 215.705311 
L 78.607059 217.597638 
L 83.38139 219.254826 
L 88.155722 220.667764 
L 92.930053 221.82963 
L 97.704385 222.735892 
L 102.478717 223.384309 
L 107.253048 223.774932 
L 112.02738 223.9101 
L 116.801711 223.794444 
L 121.576043 223.434884 
L 126.350374 222.840634 
L 131.124706 222.023195 
L 135.899037 220.996359 
L 140.673369 219.776209 
L 145.447701 218.381121 
L 150.222032 216.831756 
L 154.996364 215.151072 
L 159.770695 213.364312 
L 164.545027 211.499012 
L 169.319358 209.584998 
L 174.09369 207.654388 
L 178.868021 205.741589 
L 183.642353 203.883297 
L 188.416684 202.118503 
L 193.191016 200.488483 
L 197.965348 199.036809 
L 202.739679 197.809338 
L 207.514011 196.854223 
L 212.288342 196.221903 
L 217.062674 195.965109 
L 221.837005 196.138865 
L 226.611337 196.800481 
L 231.385668 198.009561 
L 236.16 199.827998 
L 240.934332 202.319977 
L 245.708663 205.551971 
L 250.482995 209.592744 
L 255.257326 214.513354 
L 260.031658 220.387145 
L 264.805989 227.289754 
L 269.580321 235.299108 
L 274.354652 244.495424 
" style="fill:none;stroke:#bfbf00;stroke-linecap:square;stroke-width:1.5;"/>
   </g>
   <g id="line2d_41">
    <path clip-path="url(#p84e58393bb)" d="M 73.832727 209.927125 
L 78.607059 212.608857 
L 83.38139 215.027509 
L 88.155722 217.173922 
L 92.930053 219.041045 
L 97.704385 220.623941 
L 102.478717 221.91978 
L 107.253048 222.927845 
L 112.02738 223.64953 
L 116.801711 224.088336 
L 121.576043 224.249879 
L 126.350374 224.141883 
L 131.124706 223.774182 
L 135.899037 223.158723 
L 140.673369 222.309561 
L 145.447701 221.242864 
L 150.222032 219.976908 
L 154.996364 218.532082 
L 159.770695 216.930883 
L 164.545027 215.197921 
L 169.319358 213.359916 
L 174.09369 211.445696 
L 178.868021 209.486204 
L 183.642353 207.51449 
L 188.416684 205.565716 
L 193.191016 203.677154 
L 197.965348 201.888187 
L 202.739679 200.240309 
L 207.514011 198.777123 
L 212.288342 197.544344 
L 217.062674 196.589798 
L 221.837005 195.963419 
L 226.611337 195.717254 
L 231.385668 195.90546 
L 236.16 196.584304 
L 240.934332 197.812164 
L 245.708663 199.649528 
L 250.482995 202.158996 
L 255.257326 205.405276 
L 260.031658 209.45519 
L 264.805989 214.377667 
L 269.580321 220.24375 
L 274.354652 227.126589 
L 279.128984 235.101447 
L 283.903316 244.245697 
" style="fill:none;stroke:#000000;stroke-linecap:square;stroke-width:1.5;"/>
   </g>
   <g id="line2d_42">
    <path clip-path="url(#p84e58393bb)" d="M 73.832727 203.635665 
L 78.607059 205.899501 
L 83.38139 208.089714 
L 88.155722 210.178094 
L 92.930053 212.13917 
L 97.704385 213.950212 
L 102.478717 215.59123 
L 107.253048 217.044971 
L 112.02738 218.296924 
L 116.801711 219.335315 
L 121.576043 220.151113 
L 126.350374 220.738023 
L 131.124706 221.09249 
L 135.899037 221.213701 
L 140.673369 221.10358 
L 145.447701 220.766792 
L 150.222032 220.210739 
L 154.996364 219.445565 
L 159.770695 218.484153 
L 164.545027 217.342124 
L 169.319358 216.037841 
L 174.09369 214.592405 
L 178.868021 213.029655 
L 183.642353 211.376172 
L 188.416684 209.661276 
L 193.191016 207.917024 
L 197.965348 206.178216 
L 202.739679 204.48239 
L 207.514011 202.869822 
L 212.288342 201.383529 
L 217.062674 200.069269 
L 221.837005 198.975536 
L 226.611337 198.153565 
L 231.385668 197.657332 
L 236.16 197.54355 
L 240.934332 197.871673 
L 245.708663 198.703894 
L 250.482995 200.105146 
L 255.257326 202.143101 
L 260.031658 204.888169 
L 264.805989 208.413503 
L 269.580321 212.794992 
L 274.354652 218.111266 
L 279.128984 224.443695 
L 283.903316 231.876387 
L 288.677647 240.496191 
L 293.451979 250.392694 
" style="fill:none;stroke:#0000ff;stroke-linecap:square;stroke-width:1.5;"/>
   </g>
   <g id="line2d_43">
    <path clip-path="url(#p84e58393bb)" d="M 73.832727 236.875247 
L 78.607059 232.116315 
L 83.38139 228.129097 
L 88.155722 224.829465 
L 92.930053 222.137472 
L 97.704385 219.977347 
L 102.478717 218.277499 
L 107.253048 216.970512 
L 112.02738 215.99315 
L 116.801711 215.286355 
L 121.576043 214.795247 
L 126.350374 214.469123 
L 131.124706 214.261458 
L 135.899037 214.129908 
L 140.673369 214.036302 
L 145.447701 213.946651 
L 150.222032 213.831141 
L 154.996364 213.66414 
L 159.770695 213.42419 
L 164.545027 213.094012 
L 169.319358 212.660506 
L 174.09369 212.11475 
L 178.868021 211.451999 
L 183.642353 210.671686 
L 188.416684 209.777424 
L 193.191016 208.777 
L 197.965348 207.682383 
L 202.739679 206.509719 
L 207.514011 205.27933 
L 212.288342 204.015717 
L 217.062674 202.747561 
L 221.837005 201.507718 
L 226.611337 200.333223 
L 231.385668 199.265291 
L 236.16 198.349312 
L 240.934332 197.634855 
L 245.708663 197.175668 
L 250.482995 197.029677 
L 255.257326 197.258983 
L 260.031658 197.929869 
L 264.805989 199.112793 
L 269.580321 200.882393 
L 274.354652 203.317483 
L 279.128984 206.501058 
L 283.903316 210.520288 
L 288.677647 215.466522 
L 293.451979 221.435288 
L 298.22631 228.526289 
L 303.000642 236.84341 
L 307.774973 246.494712 
" style="fill:none;stroke:#008000;stroke-linecap:square;stroke-width:1.5;"/>
   </g>
   <g id="line2d_44">
    <path clip-path="url(#p84e58393bb)" d="M 73.832727 202.487895 
L 78.607059 203.742877 
L 83.38139 204.984582 
L 88.155722 206.199298 
L 92.930053 207.374359 
L 97.704385 208.49814 
L 102.478717 209.560066 
L 107.253048 210.550604 
L 112.02738 211.461266 
L 116.801711 212.284613 
L 121.576043 213.014246 
L 126.350374 213.644814 
L 131.124706 214.172013 
L 135.899037 214.592579 
L 140.673369 214.904299 
L 145.447701 215.106 
L 150.222032 215.197559 
L 154.996364 215.179894 
L 159.770695 215.054971 
L 164.545027 214.825799 
L 169.319358 214.496434 
L 174.09369 214.071978 
L 178.868021 213.558574 
L 183.642353 212.963415 
L 188.416684 212.294736 
L 193.191016 211.561819 
L 197.965348 210.774989 
L 202.739679 209.94562 
L 207.514011 209.086127 
L 212.288342 208.209972 
L 217.062674 207.331664 
L 221.837005 206.466753 
L 226.611337 205.631839 
L 231.385668 204.844562 
L 236.16 204.123613 
L 240.934332 203.488722 
L 245.708663 202.96067 
L 250.482995 202.561279 
L 255.257326 202.313418 
L 260.031658 202.241 
L 264.805989 202.368986 
L 269.580321 202.723379 
L 274.354652 203.331229 
L 279.128984 204.22063 
L 283.903316 205.420721 
L 288.677647 206.961689 
L 293.451979 208.874763 
L 298.22631 211.192218 
L 303.000642 213.947376 
L 307.774973 217.174601 
L 312.549305 220.909305 
L 317.323636 225.187943 
L 322.097968 230.048018 
L 326.872299 235.528074 
" style="fill:none;stroke:#ff0000;stroke-linecap:square;stroke-width:1.5;"/>
   </g>
   <g id="line2d_45">
    <path clip-path="url(#p84e58393bb)" d="M 73.832727 201.191132 
L 78.607059 202.553539 
L 83.38139 203.829821 
L 88.155722 205.015292 
L 92.930053 206.10587 
L 97.704385 207.098089 
L 102.478717 207.989089 
L 107.253048 208.776622 
L 112.02738 209.459051 
L 116.801711 210.035347 
L 121.576043 210.505094 
L 126.350374 210.868483 
L 131.124706 211.126317 
L 135.899037 211.28001 
L 140.673369 211.331584 
L 145.447701 211.283672 
L 150.222032 211.139519 
L 154.996364 210.902977 
L 159.770695 210.578511 
L 164.545027 210.171194 
L 169.319358 209.686711 
L 174.09369 209.131357 
L 178.868021 208.512035 
L 183.642353 207.83626 
L 188.416684 207.112158 
L 193.191016 206.348463 
L 197.965348 205.554521 
L 202.739679 204.740287 
L 207.514011 203.916327 
L 212.288342 203.093816 
L 217.062674 202.284541 
L 221.837005 201.500898 
L 226.611337 200.755893 
L 231.385668 200.063143 
L 236.16 199.436875 
L 240.934332 198.891925 
L 245.708663 198.44374 
L 250.482995 198.108378 
L 255.257326 197.902506 
L 260.031658 197.843402 
L 264.805989 197.948954 
L 269.580321 198.237659 
L 274.354652 198.728627 
L 279.128984 199.441574 
L 283.903316 200.39683 
L 288.677647 201.615334 
L 293.451979 203.118634 
L 298.22631 204.92889 
L 303.000642 207.06887 
L 307.774973 209.561954 
L 312.549305 212.432133 
L 317.323636 215.704005 
L 322.097968 219.40278 
L 326.872299 223.554279 
L 331.646631 228.184933 
L 336.420963 233.321781 
L 341.195294 238.992475 
" style="fill:none;stroke:#00bfbf;stroke-linecap:square;stroke-width:1.5;"/>
   </g>
   <g id="line2d_46">
    <path clip-path="url(#p84e58393bb)" d="M 73.832727 200.36244 
L 78.607059 202.055599 
L 83.38139 203.604301 
L 88.155722 205.012336 
L 92.930053 206.2836 
L 97.704385 207.422102 
L 102.478717 208.431956 
L 107.253048 209.317389 
L 112.02738 210.082734 
L 116.801711 210.732435 
L 121.576043 211.271045 
L 126.350374 211.703225 
L 131.124706 212.033747 
L 135.899037 212.26749 
L 140.673369 212.409443 
L 145.447701 212.464706 
L 150.222032 212.438485 
L 154.996364 212.336098 
L 159.770695 212.162969 
L 164.545027 211.924634 
L 169.319358 211.626737 
L 174.09369 211.275031 
L 178.868021 210.875379 
L 183.642353 210.433751 
L 188.416684 209.956229 
L 193.191016 209.449003 
L 197.965348 208.91837 
L 202.739679 208.370741 
L 207.514011 207.81263 
L 212.288342 207.250666 
L 217.062674 206.691583 
L 221.837005 206.142226 
L 226.611337 205.609549 
L 231.385668 205.100614 
L 236.16 204.622595 
L 240.934332 204.182771 
L 245.708663 203.788534 
L 250.482995 203.447383 
L 255.257326 203.166926 
L 260.031658 202.954882 
L 264.805989 202.819077 
L 269.580321 202.767447 
L 274.354652 202.808037 
L 279.128984 202.949002 
L 283.903316 203.198606 
L 288.677647 203.565221 
L 293.451979 204.057328 
L 298.22631 204.683519 
L 303.000642 205.452494 
L 307.774973 206.373062 
L 312.549305 207.454141 
L 317.323636 208.704759 
L 322.097968 210.134052 
L 326.872299 211.751266 
L 331.646631 213.565757 
L 336.420963 215.586988 
L 341.195294 217.824532 
L 345.969626 220.288072 
L 350.743957 222.987399 
L 355.518289 225.932414 
L 360.29262 229.133126 
L 365.066952 232.599656 
" style="fill:none;stroke:#bf00bf;stroke-linecap:square;stroke-width:1.5;"/>
   </g>
   <g id="line2d_47">
    <path clip-path="url(#p84e58393bb)" d="M 73.832727 201.940572 
L 78.607059 203.078286 
L 83.38139 204.126686 
L 88.155722 205.087995 
L 92.930053 205.964495 
L 97.704385 206.758525 
L 102.478717 207.472481 
L 107.253048 208.108817 
L 112.02738 208.670041 
L 116.801711 209.15872 
L 121.576043 209.577479 
L 126.350374 209.928998 
L 131.124706 210.216016 
L 135.899037 210.441326 
L 140.673369 210.607782 
L 145.447701 210.718291 
L 150.222032 210.77582 
L 154.996364 210.783392 
L 159.770695 210.744086 
L 164.545027 210.66104 
L 169.319358 210.537446 
L 174.09369 210.376557 
L 178.868021 210.18168 
L 183.642353 209.95618 
L 188.416684 209.703478 
L 193.191016 209.427055 
L 197.965348 209.130445 
L 202.739679 208.817241 
L 207.514011 208.491094 
L 212.288342 208.15571 
L 217.062674 207.814853 
L 221.837005 207.472344 
L 226.611337 207.132061 
L 231.385668 206.797939 
L 236.16 206.47397 
L 240.934332 206.164203 
L 245.708663 205.872743 
L 250.482995 205.603754 
L 255.257326 205.361455 
L 260.031658 205.150123 
L 264.805989 204.974093 
L 269.580321 204.837755 
L 274.354652 204.745557 
L 279.128984 204.702005 
L 283.903316 204.711659 
L 288.677647 204.779139 
L 293.451979 204.909121 
L 298.22631 205.106337 
L 303.000642 205.375579 
L 307.774973 205.721691 
L 312.549305 206.14958 
L 317.323636 206.664205 
L 322.097968 207.270584 
L 326.872299 207.973793 
L 331.646631 208.778963 
L 336.420963 209.691283 
L 341.195294 210.715999 
L 345.969626 211.858415 
L 350.743957 213.12389 
L 355.518289 214.51784 
L 360.29262 216.045741 
L 365.066952 217.713122 
L 369.841283 219.525573 
L 374.615615 221.488737 
L 379.389947 223.608317 
L 384.164278 225.890072 
L 388.93861 228.339817 
L 393.712941 230.963427 
L 398.487273 233.766829 
" style="fill:none;stroke:#bfbf00;stroke-linecap:square;stroke-width:1.5;"/>
   </g>
   <g id="patch_8">
    <path d="M 57.6 307.584 
L 57.6 186.624 
" style="fill:none;stroke:#000000;stroke-linecap:square;stroke-linejoin:miter;stroke-width:0.8;"/>
   </g>
   <g id="patch_9">
    <path d="M 414.72 307.584 
L 414.72 186.624 
" style="fill:none;stroke:#000000;stroke-linecap:square;stroke-linejoin:miter;stroke-width:0.8;"/>
   </g>
   <g id="patch_10">
    <path d="M 57.6 307.584 
L 414.72 307.584 
" style="fill:none;stroke:#000000;stroke-linecap:square;stroke-linejoin:miter;stroke-width:0.8;"/>
   </g>
   <g id="patch_11">
    <path d="M 57.6 186.624 
L 414.72 186.624 
" style="fill:none;stroke:#000000;stroke-linecap:square;stroke-linejoin:miter;stroke-width:0.8;"/>
   </g>
  </g>
 </g>
 <defs>
  <clipPath id="pf03b38f32f">
   <rect height="120.96" width="357.12" x="57.6" y="41.472"/>
  </clipPath>
  <clipPath id="p84e58393bb">
   <rect height="120.96" width="357.12" x="57.6" y="186.624"/>
  </clipPath>
 </defs>
</svg>
