<?xml version="1.0" encoding="utf-8" standalone="no"?>
<!DOCTYPE svg PUBLIC "-//W3C//DTD SVG 1.1//EN"
  "http://www.w3.org/Graphics/SVG/1.1/DTD/svg11.dtd">
<!-- Created with matplotlib (http://matplotlib.org/) -->
<svg height="432pt" version="1.1" viewBox="0 0 576 432" width="576pt" xmlns="http://www.w3.org/2000/svg" xmlns:xlink="http://www.w3.org/1999/xlink">
 <defs>
  <style type="text/css">
*{stroke-linecap:square;stroke-linejoin:round;}
  </style>
 </defs>
 <g id="figure_1">
  <g id="patch_1">
   <path d="
M0 432
L576 432
L576 0
L0 0
z
" style="fill:#ffffff;"/>
  </g>
  <g id="axes_1">
   <g id="patch_2">
    <path d="
M72 200.291
L518.4 200.291
L518.4 43.2
L72 43.2
z
" style="fill:#ffffff;"/>
   </g>
   <g id="line2d_1">
    <path clip-path="url(#p3af14643a6)" d="
M98.997 118.449
L110.083 117.908
L121.166 118.107
L132.23 118.818
L143.288 119.837
L154.34 120.983
L165.38 122.096
L176.412 123.041
L187.436 123.702
L198.45 123.988
L209.455 123.827
L220.446 123.172
L231.432 121.993
L242.408 120.286
L253.376 118.065
L264.336 115.366
L275.282 112.247
L286.219 108.784
L297.147 105.075
L308.07 101.237
L318.982 97.4086
L329.889 93.7468
L340.787 90.4304
L351.679 87.6562
L362.553 85.6437
L373.424 84.6259
L384.291 84.8596
L395.137 86.6174
L405.983 90.1947
L416.818 95.9015
L427.646 104.07
L438.465 115.048
L449.274 129.201
L460.079 146.922
L470.866 168.588" style="fill:none;stroke:#0000ff;"/>
   </g>
   <g id="line2d_2">
    <path clip-path="url(#p3af14643a6)" d="
M90.6338 111.948
L101.396 113.296
L112.147 114.603
L122.89 115.809
L133.624 116.86
L144.348 117.711
L155.065 118.324
L165.772 118.668
L176.468 118.72
L187.158 118.466
L197.836 117.898
L208.507 117.015
L219.166 115.823
L229.818 114.337
L240.461 112.578
L251.093 110.574
L261.717 108.36
L272.333 105.978
L282.939 103.478
L293.535 100.917
L304.125 98.3543
L314.704 95.8626
L325.277 93.5164
L335.839 91.3997
L346.393 89.6013
L356.938 88.2173
L367.48 87.35
L378.003 87.109
L388.523 87.6087
L399.036 88.9713
L409.538 91.3241
L420.033 94.8016
L430.518 99.5433
L440.994 105.695
L451.462 113.411
L461.92 122.846
L472.369 134.165" style="fill:none;stroke:#008000;"/>
   </g>
   <g id="line2d_3">
    <path clip-path="url(#p3af14643a6)" d="
M91.4271 116.448
L101.845 114.166
L112.256 113.183
L122.658 113.209
L133.047 113.975
L143.43 115.239
L153.805 116.784
L164.167 118.417
L174.522 119.968
L184.869 121.293
L195.204 122.27
L205.531 122.802
L215.848 122.815
L226.155 122.258
L236.455 121.103
L246.744 119.344
L257.026 116.999
L267.295 114.108
L277.558 110.732
L287.81 106.956
L298.054 102.884
L308.291 98.6436
L318.519 94.3838
L328.736 90.2752
L338.944 86.5076
L349.145 83.2927
L359.338 80.8626
L369.522 79.4712
L379.696 79.3914
L389.864 80.917
L400.021 84.3607
L410.171 90.0568
L420.312 98.3573
L430.445 109.635
L440.568 124.28
L450.681 142.702
L460.789 165.338
L470.879 192.607" style="fill:none;stroke:#ff0000;"/>
   </g>
   <g id="line2d_4">
    <path clip-path="url(#p3af14643a6)" d="
M89.207 111.39
L99.2728 112.869
L109.331 114.352
L119.378 115.765
L129.417 117.048
L139.448 118.145
L149.467 119.011
L159.48 119.608
L169.482 119.905
L179.474 119.881
L189.456 119.523
L199.429 118.823
L209.395 117.783
L219.351 116.413
L229.299 114.73
L239.236 112.757
L249.162 110.529
L259.084 108.081
L268.993 105.463
L278.895 102.728
L288.789 99.9358
L298.67 97.1576
L308.543 94.4669
L318.41 91.9455
L328.267 89.6838
L338.114 87.778
L347.954 86.3305
L357.786 85.4516
L367.609 85.258
L377.424 85.873
L387.23 87.4261
L397.027 90.0539
L406.817 93.8998
L416.596 99.111
L426.367 105.845
L436.13 114.263
L445.88 124.529
L455.622 136.819
L465.354 151.312
L475.078 168.197" style="fill:none;stroke:#00bfbf;"/>
   </g>
   <g id="line2d_5">
    <path clip-path="url(#p3af14643a6)" d="
M92.6435 140.141
L102.341 132.327
L112.027 126.412
L121.709 122.092
L131.374 119.093
L141.034 117.153
L150.684 116.038
L160.325 115.533
L169.958 115.442
L179.583 115.594
L189.195 115.833
L198.795 116.028
L208.391 116.065
L217.982 115.852
L227.558 115.315
L237.129 114.399
L246.683 113.072
L256.236 111.316
L265.773 109.138
L275.307 106.556
L284.824 103.616
L294.337 100.374
L303.84 96.9076
L313.335 93.3136
L322.825 89.7034
L332.3 86.2132
L341.771 82.9872
L351.232 80.1941
L360.685 78.017
L370.135 76.6567
L379.571 76.3326
L388.993 77.2773
L398.413 79.7436
L407.822 83.9974
L417.224 90.3248
L426.615 99.0225
L436.003 110.415
L445.372 124.816
L454.737 142.587
L464.098 164.1
L473.44 189.695" style="fill:none;stroke:#bf00bf;"/>
   </g>
   <g id="line2d_6">
    <path clip-path="url(#p3af14643a6)" d="
M90.2198 103.404
L99.5385 104.418
L108.849 105.614
L118.149 106.911
L127.44 108.234
L136.723 109.517
L145.996 110.702
L155.26 111.735
L164.52 112.574
L173.763 113.18
L183.001 113.524
L192.227 113.583
L201.446 113.342
L210.657 112.791
L219.857 111.93
L229.049 110.762
L238.232 109.301
L247.405 107.564
L256.567 105.576
L265.723 103.37
L274.868 100.984
L284.006 98.4614
L293.132 95.8555
L302.251 93.2216
L311.368 90.6227
L320.463 88.1339
L329.557 85.8255
L338.643 83.782
L347.724 82.0906
L356.788 80.8476
L365.851 80.1512
L374.897 80.1081
L383.94 80.8297
L392.973 82.4334
L401.998 85.0423
L411.013 88.7852
L420.021 93.7968
L429.02 100.216
L438.016 108.194
L446.99 117.863
L455.961 129.396
L464.923 142.948
L473.875 158.684" style="fill:none;stroke:#bfbf00;"/>
   </g>
   <g id="line2d_7">
    <path clip-path="url(#p3af14643a6)" d="
M89.838 97.1226
L98.7612 100.448
L107.676 103.454
L116.583 106.13
L125.48 108.468
L134.371 110.464
L143.245 112.115
L152.115 113.421
L160.975 114.386
L169.827 115.013
L178.668 115.311
L187.503 115.29
L196.325 114.961
L205.14 114.339
L213.946 113.441
L222.742 112.287
L231.529 110.896
L240.308 109.293
L249.077 107.504
L257.835 105.558
L266.586 103.482
L275.327 101.311
L284.061 99.0778
L292.782 96.8204
L301.498 94.5757
L310.206 92.3846
L318.901 90.2913
L327.589 88.3387
L336.268 86.5741
L344.941 85.0453
L353.611 83.8029
L362.259 82.9018
L370.904 82.3936
L379.543 82.3355
L388.171 82.7856
L396.79 83.8038
L405.402 85.452
L414.005 87.7938
L422.598 90.894
L431.183 94.8202
L439.758 99.6405
L448.325 105.426
L456.883 112.248
L465.432 120.182
L473.972 129.301" style="fill:none;stroke:#000000;"/>
   </g>
   <g id="line2d_8">
    <path clip-path="url(#p3af14643a6)" d="
M89.0773 91.2569
L97.5886 93.4421
L106.091 95.6393
L114.583 97.8058
L123.067 99.9025
L131.542 101.895
L140.008 103.75
L148.465 105.443
L156.913 106.947
L165.351 108.243
L173.78 109.315
L182.201 110.149
L190.614 110.736
L199.017 111.07
L207.411 111.148
L215.795 110.971
L224.171 110.543
L232.536 109.873
L240.894 108.97
L249.241 107.85
L257.587 106.529
L265.909 105.03
L274.23 103.375
L282.543 101.591
L290.845 99.7089
L299.138 97.7617
L307.424 95.7853
L315.699 93.8196
L323.968 91.9059
L332.225 90.0908
L340.474 88.4213
L348.717 86.9482
L356.951 85.726
L365.175 84.8114
L373.389 84.2635
L381.597 84.1446
L389.796 84.5197
L397.985 85.4563
L406.165 87.0245
L414.338 89.2977
L422.501 92.3505
L430.655 96.2612
L438.8 101.11
L446.936 106.981
L455.063 113.958
L463.181 122.129
L471.29 131.584
L479.39 142.417" style="fill:none;stroke:#0000ff;"/>
   </g>
   <g id="line2d_9">
    <path clip-path="url(#p3af14643a6)" d="
M93.5854 49.936
L101.656 61.4851
L109.718 71.5507
L117.771 80.2352
L125.816 87.6402
L133.851 93.8607
L141.877 98.9925
L149.9 103.128
L157.903 106.346
L165.901 108.738
L173.891 110.384
L181.874 111.36
L189.846 111.741
L197.808 111.599
L205.763 111.001
L213.709 110.013
L221.649 108.697
L229.572 107.115
L237.487 105.32
L245.399 103.366
L253.3 101.305
L261.189 99.1846
L269.071 97.0488
L276.944 94.9399
L284.808 92.8979
L292.664 90.9589
L300.515 89.1564
L308.349 87.524
L316.177 86.088
L323.999 84.8748
L331.811 83.9085
L339.614 83.2097
L347.409 82.7967
L355.195 82.6856
L362.973 82.8896
L370.742 83.4198
L378.505 84.285
L386.254 85.49
L393.996 87.04
L401.731 88.9361
L409.456 91.1767
L417.172 93.7591
L424.881 96.678
L432.58 99.9249
L440.27 103.49
L447.951 107.362
L455.626 111.527
L463.285 115.964
L470.939 120.659
L478.584 125.591" style="fill:none;stroke:#008000;"/>
   </g>
   <g id="line2d_10">
    <path clip-path="url(#p3af14643a6)" d="
M91.8358 103.172
L99.4521 102.313
L107.059 101.71
L114.658 101.324
L122.247 101.122
L129.828 101.068
L137.401 101.133
L144.963 101.287
L152.517 101.505
L160.063 101.76
L167.598 102.032
L175.126 102.3
L182.644 102.546
L190.153 102.754
L197.652 102.91
L205.145 103.003
L212.629 103.021
L220.102 102.958
L227.569 102.806
L235.024 102.564
L242.466 102.227
L249.906 101.796
L257.336 101.272
L264.757 100.66
L272.166 99.9631
L279.568 99.1899
L286.961 98.3486
L294.345 97.4501
L301.723 96.5061
L309.086 95.532
L316.448 94.5416
L323.794 93.5543
L331.134 92.5879
L338.465 91.6633
L345.789 90.8028
L353.104 90.0303
L360.408 89.3715
L367.706 88.8531
L374.994 88.5038
L382.273 88.3536
L389.543 88.4339
L396.805 88.7778
L404.058 89.4198
L411.302 90.3955
L418.538 91.7427
L425.766 93.4996
L432.982 95.7059
L440.191 98.4034
L447.392 101.635
L454.583 105.444
L461.765 109.877
L468.937 114.978
L476.102 120.798" style="fill:none;stroke:#ff0000;"/>
   </g>
   <g id="matplotlib.axis_1">
    <g id="xtick_1">
     <g id="line2d_11">
      <defs>
       <path d="
M0 0
L0 -4" id="mcb557df647" style="stroke:#000000;stroke-linecap:butt;stroke-width:0.5;"/>
      </defs>
      <g>
       <use style="stroke:#000000;stroke-linecap:butt;stroke-width:0.5;" x="72.0" xlink:href="#mcb557df647" y="200.290909091"/>
      </g>
     </g>
     <g id="line2d_12">
      <defs>
       <path d="
M0 0
L0 4" id="mdad270ee8e" style="stroke:#000000;stroke-linecap:butt;stroke-width:0.5;"/>
      </defs>
      <g>
       <use style="stroke:#000000;stroke-linecap:butt;stroke-width:0.5;" x="72.0" xlink:href="#mdad270ee8e" y="43.2"/>
      </g>
     </g>
     <g id="text_1">
      <!-- 0 -->
      <defs>
       <path d="
M31.7812 66.4062
Q24.1719 66.4062 20.3281 58.9062
Q16.5 51.4219 16.5 36.375
Q16.5 21.3906 20.3281 13.8906
Q24.1719 6.39062 31.7812 6.39062
Q39.4531 6.39062 43.2812 13.8906
Q47.125 21.3906 47.125 36.375
Q47.125 51.4219 43.2812 58.9062
Q39.4531 66.4062 31.7812 66.4062
M31.7812 74.2188
Q44.0469 74.2188 50.5156 64.5156
Q56.9844 54.8281 56.9844 36.375
Q56.9844 17.9688 50.5156 8.26562
Q44.0469 -1.42188 31.7812 -1.42188
Q19.5312 -1.42188 13.0625 8.26562
Q6.59375 17.9688 6.59375 36.375
Q6.59375 54.8281 13.0625 64.5156
Q19.5312 74.2188 31.7812 74.2188" id="DejaVuSans-30"/>
      </defs>
      <g transform="translate(68.9765625 213.197159091)scale(0.12 -0.12)">
       <use xlink:href="#DejaVuSans-30"/>
      </g>
     </g>
    </g>
    <g id="xtick_2">
     <g id="line2d_13">
      <g>
       <use style="stroke:#000000;stroke-linecap:butt;stroke-width:0.5;" x="127.8" xlink:href="#mcb557df647" y="200.290909091"/>
      </g>
     </g>
     <g id="line2d_14">
      <g>
       <use style="stroke:#000000;stroke-linecap:butt;stroke-width:0.5;" x="127.8" xlink:href="#mdad270ee8e" y="43.2"/>
      </g>
     </g>
     <g id="text_2">
      <!-- 50 -->
      <defs>
       <path d="
M10.7969 72.9062
L49.5156 72.9062
L49.5156 64.5938
L19.8281 64.5938
L19.8281 46.7344
Q21.9688 47.4688 24.1094 47.8281
Q26.2656 48.1875 28.4219 48.1875
Q40.625 48.1875 47.75 41.5
Q54.8906 34.8125 54.8906 23.3906
Q54.8906 11.625 47.5625 5.09375
Q40.2344 -1.42188 26.9062 -1.42188
Q22.3125 -1.42188 17.5469 -0.640625
Q12.7969 0.140625 7.71875 1.70312
L7.71875 11.625
Q12.1094 9.23438 16.7969 8.0625
Q21.4844 6.89062 26.7031 6.89062
Q35.1562 6.89062 40.0781 11.3281
Q45.0156 15.7656 45.0156 23.3906
Q45.0156 31 40.0781 35.4375
Q35.1562 39.8906 26.7031 39.8906
Q22.75 39.8906 18.8125 39.0156
Q14.8906 38.1406 10.7969 36.2812
z
" id="DejaVuSans-35"/>
      </defs>
      <g transform="translate(121.0265625 213.197159091)scale(0.12 -0.12)">
       <use xlink:href="#DejaVuSans-35"/>
       <use x="63.623046875" xlink:href="#DejaVuSans-30"/>
      </g>
     </g>
    </g>
    <g id="xtick_3">
     <g id="line2d_15">
      <g>
       <use style="stroke:#000000;stroke-linecap:butt;stroke-width:0.5;" x="183.6" xlink:href="#mcb557df647" y="200.290909091"/>
      </g>
     </g>
     <g id="line2d_16">
      <g>
       <use style="stroke:#000000;stroke-linecap:butt;stroke-width:0.5;" x="183.6" xlink:href="#mdad270ee8e" y="43.2"/>
      </g>
     </g>
     <g id="text_3">
      <!-- 100 -->
      <defs>
       <path d="
M12.4062 8.29688
L28.5156 8.29688
L28.5156 63.9219
L10.9844 60.4062
L10.9844 69.3906
L28.4219 72.9062
L38.2812 72.9062
L38.2812 8.29688
L54.3906 8.29688
L54.3906 0
L12.4062 0
z
" id="DejaVuSans-31"/>
      </defs>
      <g transform="translate(173.205 213.197159091)scale(0.12 -0.12)">
       <use xlink:href="#DejaVuSans-31"/>
       <use x="63.623046875" xlink:href="#DejaVuSans-30"/>
       <use x="127.24609375" xlink:href="#DejaVuSans-30"/>
      </g>
     </g>
    </g>
    <g id="xtick_4">
     <g id="line2d_17">
      <g>
       <use style="stroke:#000000;stroke-linecap:butt;stroke-width:0.5;" x="239.4" xlink:href="#mcb557df647" y="200.290909091"/>
      </g>
     </g>
     <g id="line2d_18">
      <g>
       <use style="stroke:#000000;stroke-linecap:butt;stroke-width:0.5;" x="239.4" xlink:href="#mdad270ee8e" y="43.2"/>
      </g>
     </g>
     <g id="text_4">
      <!-- 150 -->
      <g transform="translate(229.005 213.197159091)scale(0.12 -0.12)">
       <use xlink:href="#DejaVuSans-31"/>
       <use x="63.623046875" xlink:href="#DejaVuSans-35"/>
       <use x="127.24609375" xlink:href="#DejaVuSans-30"/>
      </g>
     </g>
    </g>
    <g id="xtick_5">
     <g id="line2d_19">
      <g>
       <use style="stroke:#000000;stroke-linecap:butt;stroke-width:0.5;" x="295.2" xlink:href="#mcb557df647" y="200.290909091"/>
      </g>
     </g>
     <g id="line2d_20">
      <g>
       <use style="stroke:#000000;stroke-linecap:butt;stroke-width:0.5;" x="295.2" xlink:href="#mdad270ee8e" y="43.2"/>
      </g>
     </g>
     <g id="text_5">
      <!-- 200 -->
      <defs>
       <path d="
M19.1875 8.29688
L53.6094 8.29688
L53.6094 0
L7.32812 0
L7.32812 8.29688
Q12.9375 14.1094 22.625 23.8906
Q32.3281 33.6875 34.8125 36.5312
Q39.5469 41.8438 41.4219 45.5312
Q43.3125 49.2188 43.3125 52.7812
Q43.3125 58.5938 39.2344 62.25
Q35.1562 65.9219 28.6094 65.9219
Q23.9688 65.9219 18.8125 64.3125
Q13.6719 62.7031 7.8125 59.4219
L7.8125 69.3906
Q13.7656 71.7812 18.9375 73
Q24.125 74.2188 28.4219 74.2188
Q39.75 74.2188 46.4844 68.5469
Q53.2188 62.8906 53.2188 53.4219
Q53.2188 48.9219 51.5312 44.8906
Q49.8594 40.875 45.4062 35.4062
Q44.1875 33.9844 37.6406 27.2188
Q31.1094 20.4531 19.1875 8.29688" id="DejaVuSans-32"/>
      </defs>
      <g transform="translate(284.585625 213.197159091)scale(0.12 -0.12)">
       <use xlink:href="#DejaVuSans-32"/>
       <use x="63.623046875" xlink:href="#DejaVuSans-30"/>
       <use x="127.24609375" xlink:href="#DejaVuSans-30"/>
      </g>
     </g>
    </g>
    <g id="xtick_6">
     <g id="line2d_21">
      <g>
       <use style="stroke:#000000;stroke-linecap:butt;stroke-width:0.5;" x="351.0" xlink:href="#mcb557df647" y="200.290909091"/>
      </g>
     </g>
     <g id="line2d_22">
      <g>
       <use style="stroke:#000000;stroke-linecap:butt;stroke-width:0.5;" x="351.0" xlink:href="#mdad270ee8e" y="43.2"/>
      </g>
     </g>
     <g id="text_6">
      <!-- 250 -->
      <g transform="translate(340.385625 213.197159091)scale(0.12 -0.12)">
       <use xlink:href="#DejaVuSans-32"/>
       <use x="63.623046875" xlink:href="#DejaVuSans-35"/>
       <use x="127.24609375" xlink:href="#DejaVuSans-30"/>
      </g>
     </g>
    </g>
    <g id="xtick_7">
     <g id="line2d_23">
      <g>
       <use style="stroke:#000000;stroke-linecap:butt;stroke-width:0.5;" x="406.8" xlink:href="#mcb557df647" y="200.290909091"/>
      </g>
     </g>
     <g id="line2d_24">
      <g>
       <use style="stroke:#000000;stroke-linecap:butt;stroke-width:0.5;" x="406.8" xlink:href="#mdad270ee8e" y="43.2"/>
      </g>
     </g>
     <g id="text_7">
      <!-- 300 -->
      <defs>
       <path d="
M40.5781 39.3125
Q47.6562 37.7969 51.625 33
Q55.6094 28.2188 55.6094 21.1875
Q55.6094 10.4062 48.1875 4.48438
Q40.7656 -1.42188 27.0938 -1.42188
Q22.5156 -1.42188 17.6562 -0.515625
Q12.7969 0.390625 7.625 2.20312
L7.625 11.7188
Q11.7188 9.32812 16.5938 8.10938
Q21.4844 6.89062 26.8125 6.89062
Q36.0781 6.89062 40.9375 10.5469
Q45.7969 14.2031 45.7969 21.1875
Q45.7969 27.6406 41.2812 31.2656
Q36.7656 34.9062 28.7188 34.9062
L20.2188 34.9062
L20.2188 43.0156
L29.1094 43.0156
Q36.375 43.0156 40.2344 45.9219
Q44.0938 48.8281 44.0938 54.2969
Q44.0938 59.9062 40.1094 62.9062
Q36.1406 65.9219 28.7188 65.9219
Q24.6562 65.9219 20.0156 65.0312
Q15.375 64.1562 9.8125 62.3125
L9.8125 71.0938
Q15.4375 72.6562 20.3438 73.4375
Q25.25 74.2188 29.5938 74.2188
Q40.8281 74.2188 47.3594 69.1094
Q53.9062 64.0156 53.9062 55.3281
Q53.9062 49.2656 50.4375 45.0938
Q46.9688 40.9219 40.5781 39.3125" id="DejaVuSans-33"/>
      </defs>
      <g transform="translate(396.2034375 213.197159091)scale(0.12 -0.12)">
       <use xlink:href="#DejaVuSans-33"/>
       <use x="63.623046875" xlink:href="#DejaVuSans-30"/>
       <use x="127.24609375" xlink:href="#DejaVuSans-30"/>
      </g>
     </g>
    </g>
    <g id="xtick_8">
     <g id="line2d_25">
      <g>
       <use style="stroke:#000000;stroke-linecap:butt;stroke-width:0.5;" x="462.6" xlink:href="#mcb557df647" y="200.290909091"/>
      </g>
     </g>
     <g id="line2d_26">
      <g>
       <use style="stroke:#000000;stroke-linecap:butt;stroke-width:0.5;" x="462.6" xlink:href="#mdad270ee8e" y="43.2"/>
      </g>
     </g>
     <g id="text_8">
      <!-- 350 -->
      <g transform="translate(452.0034375 213.197159091)scale(0.12 -0.12)">
       <use xlink:href="#DejaVuSans-33"/>
       <use x="63.623046875" xlink:href="#DejaVuSans-35"/>
       <use x="127.24609375" xlink:href="#DejaVuSans-30"/>
      </g>
     </g>
    </g>
    <g id="xtick_9">
     <g id="line2d_27">
      <g>
       <use style="stroke:#000000;stroke-linecap:butt;stroke-width:0.5;" x="518.4" xlink:href="#mcb557df647" y="200.290909091"/>
      </g>
     </g>
     <g id="line2d_28">
      <g>
       <use style="stroke:#000000;stroke-linecap:butt;stroke-width:0.5;" x="518.4" xlink:href="#mdad270ee8e" y="43.2"/>
      </g>
     </g>
     <g id="text_9">
      <!-- 400 -->
      <defs>
       <path d="
M37.7969 64.3125
L12.8906 25.3906
L37.7969 25.3906
z

M35.2031 72.9062
L47.6094 72.9062
L47.6094 25.3906
L58.0156 25.3906
L58.0156 17.1875
L47.6094 17.1875
L47.6094 0
L37.7969 0
L37.7969 17.1875
L4.89062 17.1875
L4.89062 26.7031
z
" id="DejaVuSans-34"/>
      </defs>
      <g transform="translate(507.639375 213.197159091)scale(0.12 -0.12)">
       <use xlink:href="#DejaVuSans-34"/>
       <use x="63.623046875" xlink:href="#DejaVuSans-30"/>
       <use x="127.24609375" xlink:href="#DejaVuSans-30"/>
      </g>
     </g>
    </g>
   </g>
   <g id="matplotlib.axis_2">
    <g id="ytick_1">
     <g id="line2d_29">
      <defs>
       <path d="
M0 0
L4 0" id="mc8fcea1516" style="stroke:#000000;stroke-linecap:butt;stroke-width:0.5;"/>
      </defs>
      <g>
       <use style="stroke:#000000;stroke-linecap:butt;stroke-width:0.5;" x="72.0" xlink:href="#mc8fcea1516" y="200.290909091"/>
      </g>
     </g>
     <g id="line2d_30">
      <defs>
       <path d="
M0 0
L-4 0" id="m0d5b0a6425" style="stroke:#000000;stroke-linecap:butt;stroke-width:0.5;"/>
      </defs>
      <g>
       <use style="stroke:#000000;stroke-linecap:butt;stroke-width:0.5;" x="518.4" xlink:href="#m0d5b0a6425" y="200.290909091"/>
      </g>
     </g>
     <g id="text_10">
      <!-- −0.0005 -->
      <defs>
       <path d="
M10.6875 12.4062
L21 12.4062
L21 0
L10.6875 0
z
" id="DejaVuSans-2e"/>
       <path d="
M10.5938 35.5
L73.1875 35.5
L73.1875 27.2031
L10.5938 27.2031
z
" id="DejaVuSans-2212"/>
      </defs>
      <g transform="translate(18.275 204.658721591)scale(0.12 -0.12)">
       <use xlink:href="#DejaVuSans-2212"/>
       <use x="83.7890625" xlink:href="#DejaVuSans-30"/>
       <use x="147.412109375" xlink:href="#DejaVuSans-2e"/>
       <use x="179.19921875" xlink:href="#DejaVuSans-30"/>
       <use x="242.822265625" xlink:href="#DejaVuSans-30"/>
       <use x="306.4453125" xlink:href="#DejaVuSans-30"/>
       <use x="370.068359375" xlink:href="#DejaVuSans-35"/>
      </g>
     </g>
    </g>
    <g id="ytick_2">
     <g id="line2d_31">
      <g>
       <use style="stroke:#000000;stroke-linecap:butt;stroke-width:0.5;" x="72.0" xlink:href="#mc8fcea1516" y="180.654545455"/>
      </g>
     </g>
     <g id="line2d_32">
      <g>
       <use style="stroke:#000000;stroke-linecap:butt;stroke-width:0.5;" x="518.4" xlink:href="#m0d5b0a6425" y="180.654545455"/>
      </g>
     </g>
     <g id="text_11">
      <!-- −0.0004 -->
      <g transform="translate(17.9 185.022357955)scale(0.12 -0.12)">
       <use xlink:href="#DejaVuSans-2212"/>
       <use x="83.7890625" xlink:href="#DejaVuSans-30"/>
       <use x="147.412109375" xlink:href="#DejaVuSans-2e"/>
       <use x="179.19921875" xlink:href="#DejaVuSans-30"/>
       <use x="242.822265625" xlink:href="#DejaVuSans-30"/>
       <use x="306.4453125" xlink:href="#DejaVuSans-30"/>
       <use x="370.068359375" xlink:href="#DejaVuSans-34"/>
      </g>
     </g>
    </g>
    <g id="ytick_3">
     <g id="line2d_33">
      <g>
       <use style="stroke:#000000;stroke-linecap:butt;stroke-width:0.5;" x="72.0" xlink:href="#mc8fcea1516" y="161.018181818"/>
      </g>
     </g>
     <g id="line2d_34">
      <g>
       <use style="stroke:#000000;stroke-linecap:butt;stroke-width:0.5;" x="518.4" xlink:href="#m0d5b0a6425" y="161.018181818"/>
      </g>
     </g>
     <g id="text_12">
      <!-- −0.0003 -->
      <g transform="translate(18.18875 165.385994318)scale(0.12 -0.12)">
       <use xlink:href="#DejaVuSans-2212"/>
       <use x="83.7890625" xlink:href="#DejaVuSans-30"/>
       <use x="147.412109375" xlink:href="#DejaVuSans-2e"/>
       <use x="179.19921875" xlink:href="#DejaVuSans-30"/>
       <use x="242.822265625" xlink:href="#DejaVuSans-30"/>
       <use x="306.4453125" xlink:href="#DejaVuSans-30"/>
       <use x="370.068359375" xlink:href="#DejaVuSans-33"/>
      </g>
     </g>
    </g>
    <g id="ytick_4">
     <g id="line2d_35">
      <g>
       <use style="stroke:#000000;stroke-linecap:butt;stroke-width:0.5;" x="72.0" xlink:href="#mc8fcea1516" y="141.381818182"/>
      </g>
     </g>
     <g id="line2d_36">
      <g>
       <use style="stroke:#000000;stroke-linecap:butt;stroke-width:0.5;" x="518.4" xlink:href="#m0d5b0a6425" y="141.381818182"/>
      </g>
     </g>
     <g id="text_13">
      <!-- −0.0002 -->
      <g transform="translate(18.42875 145.749630682)scale(0.12 -0.12)">
       <use xlink:href="#DejaVuSans-2212"/>
       <use x="83.7890625" xlink:href="#DejaVuSans-30"/>
       <use x="147.412109375" xlink:href="#DejaVuSans-2e"/>
       <use x="179.19921875" xlink:href="#DejaVuSans-30"/>
       <use x="242.822265625" xlink:href="#DejaVuSans-30"/>
       <use x="306.4453125" xlink:href="#DejaVuSans-30"/>
       <use x="370.068359375" xlink:href="#DejaVuSans-32"/>
      </g>
     </g>
    </g>
    <g id="ytick_5">
     <g id="line2d_37">
      <g>
       <use style="stroke:#000000;stroke-linecap:butt;stroke-width:0.5;" x="72.0" xlink:href="#mc8fcea1516" y="121.745454545"/>
      </g>
     </g>
     <g id="line2d_38">
      <g>
       <use style="stroke:#000000;stroke-linecap:butt;stroke-width:0.5;" x="518.4" xlink:href="#m0d5b0a6425" y="121.745454545"/>
      </g>
     </g>
     <g id="text_14">
      <!-- −0.0001 -->
      <g transform="translate(18.335 126.113267045)scale(0.12 -0.12)">
       <use xlink:href="#DejaVuSans-2212"/>
       <use x="83.7890625" xlink:href="#DejaVuSans-30"/>
       <use x="147.412109375" xlink:href="#DejaVuSans-2e"/>
       <use x="179.19921875" xlink:href="#DejaVuSans-30"/>
       <use x="242.822265625" xlink:href="#DejaVuSans-30"/>
       <use x="306.4453125" xlink:href="#DejaVuSans-30"/>
       <use x="370.068359375" xlink:href="#DejaVuSans-31"/>
      </g>
     </g>
    </g>
    <g id="ytick_6">
     <g id="line2d_39">
      <g>
       <use style="stroke:#000000;stroke-linecap:butt;stroke-width:0.5;" x="72.0" xlink:href="#mc8fcea1516" y="102.109090909"/>
      </g>
     </g>
     <g id="line2d_40">
      <g>
       <use style="stroke:#000000;stroke-linecap:butt;stroke-width:0.5;" x="518.4" xlink:href="#m0d5b0a6425" y="102.109090909"/>
      </g>
     </g>
     <g id="text_15">
      <!-- 0.0000 -->
      <g transform="translate(27.599375 106.476903409)scale(0.12 -0.12)">
       <use xlink:href="#DejaVuSans-30"/>
       <use x="63.623046875" xlink:href="#DejaVuSans-2e"/>
       <use x="95.41015625" xlink:href="#DejaVuSans-30"/>
       <use x="159.033203125" xlink:href="#DejaVuSans-30"/>
       <use x="222.65625" xlink:href="#DejaVuSans-30"/>
       <use x="286.279296875" xlink:href="#DejaVuSans-30"/>
      </g>
     </g>
    </g>
    <g id="ytick_7">
     <g id="line2d_41">
      <g>
       <use style="stroke:#000000;stroke-linecap:butt;stroke-width:0.5;" x="72.0" xlink:href="#mc8fcea1516" y="82.4727272727"/>
      </g>
     </g>
     <g id="line2d_42">
      <g>
       <use style="stroke:#000000;stroke-linecap:butt;stroke-width:0.5;" x="518.4" xlink:href="#m0d5b0a6425" y="82.4727272727"/>
      </g>
     </g>
     <g id="text_16">
      <!-- 0.0001 -->
      <g transform="translate(27.910625 86.8405397727)scale(0.12 -0.12)">
       <use xlink:href="#DejaVuSans-30"/>
       <use x="63.623046875" xlink:href="#DejaVuSans-2e"/>
       <use x="95.41015625" xlink:href="#DejaVuSans-30"/>
       <use x="159.033203125" xlink:href="#DejaVuSans-30"/>
       <use x="222.65625" xlink:href="#DejaVuSans-30"/>
       <use x="286.279296875" xlink:href="#DejaVuSans-31"/>
      </g>
     </g>
    </g>
    <g id="ytick_8">
     <g id="line2d_43">
      <g>
       <use style="stroke:#000000;stroke-linecap:butt;stroke-width:0.5;" x="72.0" xlink:href="#mc8fcea1516" y="62.8363636364"/>
      </g>
     </g>
     <g id="line2d_44">
      <g>
       <use style="stroke:#000000;stroke-linecap:butt;stroke-width:0.5;" x="518.4" xlink:href="#m0d5b0a6425" y="62.8363636364"/>
      </g>
     </g>
     <g id="text_17">
      <!-- 0.0002 -->
      <g transform="translate(28.004375 67.2041761364)scale(0.12 -0.12)">
       <use xlink:href="#DejaVuSans-30"/>
       <use x="63.623046875" xlink:href="#DejaVuSans-2e"/>
       <use x="95.41015625" xlink:href="#DejaVuSans-30"/>
       <use x="159.033203125" xlink:href="#DejaVuSans-30"/>
       <use x="222.65625" xlink:href="#DejaVuSans-30"/>
       <use x="286.279296875" xlink:href="#DejaVuSans-32"/>
      </g>
     </g>
    </g>
    <g id="ytick_9">
     <g id="line2d_45">
      <g>
       <use style="stroke:#000000;stroke-linecap:butt;stroke-width:0.5;" x="72.0" xlink:href="#mc8fcea1516" y="43.2"/>
      </g>
     </g>
     <g id="line2d_46">
      <g>
       <use style="stroke:#000000;stroke-linecap:butt;stroke-width:0.5;" x="518.4" xlink:href="#m0d5b0a6425" y="43.2"/>
      </g>
     </g>
     <g id="text_18">
      <!-- 0.0003 -->
      <g transform="translate(27.764375 47.5678125)scale(0.12 -0.12)">
       <use xlink:href="#DejaVuSans-30"/>
       <use x="63.623046875" xlink:href="#DejaVuSans-2e"/>
       <use x="95.41015625" xlink:href="#DejaVuSans-30"/>
       <use x="159.033203125" xlink:href="#DejaVuSans-30"/>
       <use x="222.65625" xlink:href="#DejaVuSans-30"/>
       <use x="286.279296875" xlink:href="#DejaVuSans-33"/>
      </g>
     </g>
    </g>
   </g>
   <g id="patch_3">
    <path d="
M72 43.2
L518.4 43.2" style="fill:none;stroke:#000000;"/>
   </g>
   <g id="patch_4">
    <path d="
M518.4 200.291
L518.4 43.2" style="fill:none;stroke:#000000;"/>
   </g>
   <g id="patch_5">
    <path d="
M72 200.291
L518.4 200.291" style="fill:none;stroke:#000000;"/>
   </g>
   <g id="patch_6">
    <path d="
M72 200.291
L72 43.2" style="fill:none;stroke:#000000;"/>
   </g>
  </g>
  <g id="axes_2">
   <g id="patch_7">
    <path d="
M72 388.8
L518.4 388.8
L518.4 231.709
L72 231.709
z
" style="fill:#ffffff;"/>
   </g>
   <g id="line2d_47">
    <path clip-path="url(#p8d90287ba5)" d="
M72 300.694
L79.812 300.374
L87.624 300.724
L95.436 301.531
L103.248 302.604
L111.06 303.77
L118.872 304.88
L126.684 305.803
L134.496 306.43
L142.308 306.673
L150.12 306.463
L157.932 305.753
L165.744 304.518
L173.556 302.75
L181.368 300.466
L189.18 297.7
L196.992 294.509
L204.804 290.969
L212.616 287.179
L220.428 283.257
L228.24 279.342
L236.052 275.594
L243.864 272.192
L251.676 269.339
L259.488 267.255
L267.3 266.184
L275.112 266.388
L282.924 268.152
L290.736 271.78
L298.548 277.597
L306.36 285.95
L314.172 297.204
L321.984 311.748
L329.796 329.988
L337.608 352.355" style="fill:none;stroke:#0000ff;"/>
   </g>
   <g id="line2d_48">
    <path clip-path="url(#p8d90287ba5)" d="
M72 293.446
L79.812 295.056
L87.624 296.55
L95.436 297.879
L103.248 299.004
L111.06 299.889
L118.872 300.505
L126.684 300.831
L134.496 300.852
L142.308 300.557
L150.12 299.945
L157.932 299.019
L165.744 297.789
L173.556 296.272
L181.368 294.489
L189.18 292.471
L196.992 290.254
L204.804 287.878
L212.616 285.394
L220.428 282.854
L228.24 280.322
L236.052 277.864
L243.864 275.555
L251.676 273.475
L259.488 271.71
L267.3 270.355
L275.112 269.508
L282.924 269.277
L290.736 269.773
L298.548 271.115
L306.36 273.428
L314.172 276.845
L321.984 281.503
L329.796 287.547
L337.608 295.127
L345.42 304.402
L353.232 315.534" style="fill:none;stroke:#008000;"/>
   </g>
   <g id="line2d_49">
    <path clip-path="url(#p8d90287ba5)" d="
M72 297.56
L79.812 295.664
L87.624 294.911
L95.436 295.043
L103.248 295.824
L111.06 297.039
L118.872 298.494
L126.684 300.015
L134.496 301.45
L142.308 302.667
L150.12 303.556
L157.932 304.026
L165.744 304.008
L173.556 303.456
L181.368 302.341
L189.18 300.657
L196.992 298.419
L204.804 295.663
L212.616 292.445
L220.428 288.842
L228.24 284.953
L236.052 280.896
L243.864 276.813
L251.676 272.863
L259.488 269.229
L267.3 266.114
L275.112 263.74
L282.924 262.354
L290.736 262.219
L298.548 263.623
L306.36 266.872
L314.172 272.296
L321.984 280.242
L329.796 291.081
L337.608 305.204
L345.42 323.023
L353.232 344.969
L361.044 371.497" style="fill:none;stroke:#ff0000;"/>
   </g>
   <g id="line2d_50">
    <path clip-path="url(#p8d90287ba5)" d="
M72 291.978
L79.812 293.731
L87.624 295.387
L95.436 296.896
L103.248 298.215
L111.06 299.306
L118.872 300.139
L126.684 300.688
L134.496 300.935
L142.308 300.867
L150.12 300.479
L157.932 299.769
L165.744 298.745
L173.556 297.418
L181.368 295.808
L189.18 293.938
L196.992 291.84
L204.804 289.551
L212.616 287.114
L220.428 284.579
L228.24 282.001
L236.052 279.443
L243.864 276.973
L251.676 274.665
L259.488 272.599
L267.3 270.863
L275.112 269.549
L282.924 268.757
L290.736 268.592
L298.548 269.165
L306.36 270.594
L314.172 273.004
L321.984 276.524
L329.796 281.291
L337.608 287.448
L345.42 295.142
L353.232 304.53
L361.044 315.772
L368.856 329.036
L376.668 344.495" style="fill:none;stroke:#00bfbf;"/>
   </g>
   <g id="line2d_51">
    <path clip-path="url(#p8d90287ba5)" d="
M72 316.999
L79.812 310.607
L87.624 305.741
L95.436 302.164
L103.248 299.653
L111.06 298.002
L118.872 297.022
L126.684 296.538
L134.496 296.393
L142.308 296.444
L150.12 296.566
L157.932 296.648
L165.744 296.597
L173.556 296.334
L181.368 295.797
L189.18 294.941
L196.992 293.734
L204.804 292.163
L212.616 290.23
L220.428 287.953
L228.24 285.364
L236.052 282.515
L243.864 279.471
L251.676 276.313
L259.488 273.139
L267.3 270.064
L275.112 267.216
L282.924 264.742
L290.736 262.802
L298.548 261.575
L306.36 261.255
L314.172 262.05
L321.984 264.187
L329.796 267.906
L337.608 273.466
L345.42 281.14
L353.232 291.218
L361.044 304.005
L368.856 319.822
L376.668 339.007
L384.48 361.914" style="fill:none;stroke:#bf00bf;"/>
   </g>
   <g id="line2d_52">
    <path clip-path="url(#p8d90287ba5)" d="
M72 284.309
L79.812 285.556
L87.624 286.867
L95.436 288.186
L103.248 289.462
L111.06 290.651
L118.872 291.712
L126.684 292.611
L134.496 293.317
L142.308 293.807
L150.12 294.061
L157.932 294.064
L165.744 293.808
L173.556 293.289
L181.368 292.508
L189.18 291.472
L196.992 290.191
L204.804 288.684
L212.616 286.971
L220.428 285.08
L228.24 283.043
L236.052 280.898
L243.864 278.687
L251.676 276.458
L259.488 274.264
L267.3 272.163
L275.112 270.218
L282.924 268.497
L290.736 267.075
L298.548 266.029
L306.36 265.445
L314.172 265.41
L321.984 266.019
L329.796 267.372
L337.608 269.572
L345.42 272.731
L353.232 276.962
L361.044 282.385
L368.856 289.127
L376.668 297.316
L384.48 307.09
L392.292 318.588
L400.104 331.956" style="fill:none;stroke:#bfbf00;"/>
   </g>
   <g id="line2d_53">
    <path clip-path="url(#p8d90287ba5)" d="
M72 279.383
L79.812 282.36
L87.624 285.02
L95.436 287.362
L103.248 289.386
L111.06 291.095
L118.872 292.493
L126.684 293.586
L134.496 294.38
L142.308 294.883
L150.12 295.106
L157.932 295.059
L165.744 294.756
L173.556 294.212
L181.368 293.441
L189.18 292.462
L196.992 291.293
L204.804 289.955
L212.616 288.47
L220.428 286.861
L228.24 285.153
L236.052 283.373
L243.864 281.549
L251.676 279.71
L259.488 277.887
L267.3 276.112
L275.112 274.42
L282.924 272.847
L290.736 271.428
L298.548 270.203
L306.36 269.212
L314.172 268.496
L321.984 268.098
L329.796 268.063
L337.608 268.437
L345.42 269.268
L353.232 270.604
L361.044 272.496
L368.856 274.996
L376.668 278.158
L384.48 282.038
L392.292 286.69
L400.104 292.175
L407.916 298.55
L415.728 305.878" style="fill:none;stroke:#000000;"/>
   </g>
   <g id="line2d_54">
    <path clip-path="url(#p8d90287ba5)" d="
M72 274.267
L79.812 276.402
L87.624 278.461
L95.436 280.421
L103.248 282.262
L111.06 283.965
L118.872 285.515
L126.684 286.899
L134.496 288.105
L142.308 289.123
L150.12 289.946
L157.932 290.569
L165.744 290.99
L173.556 291.208
L181.368 291.224
L189.18 291.041
L196.992 290.665
L204.804 290.105
L212.616 289.37
L220.428 288.473
L228.24 287.427
L236.052 286.249
L243.864 284.959
L251.676 283.576
L259.488 282.125
L267.3 280.629
L275.112 279.116
L282.924 277.616
L290.736 276.16
L298.548 274.781
L306.36 273.517
L314.172 272.404
L321.984 271.484
L329.796 270.798
L337.608 270.391
L345.42 270.309
L353.232 270.602
L361.044 271.321
L368.856 272.517
L376.668 274.248
L384.48 276.57
L392.292 279.543
L400.104 283.228
L407.916 287.69
L415.728 292.994
L423.54 299.21
L431.352 306.406
L439.164 314.656" style="fill:none;stroke:#0000ff;"/>
   </g>
   <g id="line2d_55">
    <path clip-path="url(#p8d90287ba5)" d="
M72 245.241
L79.812 253.771
L87.624 261.219
L95.436 267.657
L103.248 273.158
L111.06 277.789
L118.872 281.617
L126.684 284.709
L134.496 287.126
L142.308 288.929
L150.12 290.176
L157.932 290.925
L165.744 291.231
L173.556 291.144
L181.368 290.717
L189.18 289.997
L196.992 289.03
L204.804 287.861
L212.616 286.533
L220.428 285.085
L228.24 283.554
L236.052 281.979
L243.864 280.391
L251.676 278.824
L259.488 277.306
L267.3 275.866
L275.112 274.53
L282.924 273.321
L290.736 272.26
L298.548 271.368
L306.36 270.661
L314.172 270.156
L321.984 269.865
L329.796 269.799
L337.608 269.969
L345.42 270.38
L353.232 271.039
L361.044 271.948
L368.856 273.108
L376.668 274.519
L384.48 276.176
L392.292 278.075
L400.104 280.209
L407.916 282.568
L415.728 285.14
L423.54 287.914
L431.352 290.872
L439.164 293.997
L446.976 297.27
L454.788 300.669" style="fill:none;stroke:#008000;"/>
   </g>
   <g id="line2d_56">
    <path clip-path="url(#p8d90287ba5)" d="
M72 283.894
L79.812 283.574
L87.624 283.379
L95.436 283.288
L103.248 283.284
L111.06 283.349
L118.872 283.466
L126.684 283.62
L134.496 283.797
L142.308 283.985
L150.12 284.17
L157.932 284.342
L165.744 284.492
L173.556 284.611
L181.368 284.691
L189.18 284.726
L196.992 284.71
L204.804 284.64
L212.616 284.512
L220.428 284.324
L228.24 284.075
L236.052 283.766
L243.864 283.398
L251.676 282.973
L259.488 282.494
L267.3 281.968
L275.112 281.398
L282.924 280.793
L290.736 280.159
L298.548 279.507
L306.36 278.846
L314.172 278.187
L321.984 277.543
L329.796 276.928
L337.608 276.356
L345.42 275.842
L353.232 275.404
L361.044 275.059
L368.856 274.827
L376.668 274.728
L384.48 274.782
L392.292 275.012
L400.104 275.442
L407.916 276.096
L415.728 277
L423.54 278.181
L431.352 279.666
L439.164 281.484
L446.976 283.666
L454.788 286.243
L462.6 289.247
L470.412 292.711
L478.224 296.67" style="fill:none;stroke:#ff0000;"/>
   </g>
   <g id="matplotlib.axis_3">
    <g id="xtick_10">
     <g id="line2d_57">
      <g>
       <use style="stroke:#000000;stroke-linecap:butt;stroke-width:0.5;" x="72.0" xlink:href="#mcb557df647" y="388.8"/>
      </g>
     </g>
     <g id="line2d_58">
      <g>
       <use style="stroke:#000000;stroke-linecap:butt;stroke-width:0.5;" x="72.0" xlink:href="#mdad270ee8e" y="231.709090909"/>
      </g>
     </g>
     <g id="text_19">
      <!-- 0.0 -->
      <g transform="translate(63.2521875 401.70625)scale(0.12 -0.12)">
       <use xlink:href="#DejaVuSans-30"/>
       <use x="63.623046875" xlink:href="#DejaVuSans-2e"/>
       <use x="95.41015625" xlink:href="#DejaVuSans-30"/>
      </g>
     </g>
    </g>
    <g id="xtick_11">
     <g id="line2d_59">
      <g>
       <use style="stroke:#000000;stroke-linecap:butt;stroke-width:0.5;" x="127.8" xlink:href="#mcb557df647" y="388.8"/>
      </g>
     </g>
     <g id="line2d_60">
      <g>
       <use style="stroke:#000000;stroke-linecap:butt;stroke-width:0.5;" x="127.8" xlink:href="#mdad270ee8e" y="231.709090909"/>
      </g>
     </g>
     <g id="text_20">
      <!-- 0.5 -->
      <g transform="translate(119.1778125 401.70625)scale(0.12 -0.12)">
       <use xlink:href="#DejaVuSans-30"/>
       <use x="63.623046875" xlink:href="#DejaVuSans-2e"/>
       <use x="95.41015625" xlink:href="#DejaVuSans-35"/>
      </g>
     </g>
    </g>
    <g id="xtick_12">
     <g id="line2d_61">
      <g>
       <use style="stroke:#000000;stroke-linecap:butt;stroke-width:0.5;" x="183.6" xlink:href="#mcb557df647" y="388.8"/>
      </g>
     </g>
     <g id="line2d_62">
      <g>
       <use style="stroke:#000000;stroke-linecap:butt;stroke-width:0.5;" x="183.6" xlink:href="#mdad270ee8e" y="231.709090909"/>
      </g>
     </g>
     <g id="text_21">
      <!-- 1.0 -->
      <g transform="translate(175.115625 401.70625)scale(0.12 -0.12)">
       <use xlink:href="#DejaVuSans-31"/>
       <use x="63.623046875" xlink:href="#DejaVuSans-2e"/>
       <use x="95.41015625" xlink:href="#DejaVuSans-30"/>
      </g>
     </g>
    </g>
    <g id="xtick_13">
     <g id="line2d_63">
      <g>
       <use style="stroke:#000000;stroke-linecap:butt;stroke-width:0.5;" x="239.4" xlink:href="#mcb557df647" y="388.8"/>
      </g>
     </g>
     <g id="line2d_64">
      <g>
       <use style="stroke:#000000;stroke-linecap:butt;stroke-width:0.5;" x="239.4" xlink:href="#mdad270ee8e" y="231.709090909"/>
      </g>
     </g>
     <g id="text_22">
      <!-- 1.5 -->
      <g transform="translate(231.04125 401.54875)scale(0.12 -0.12)">
       <use xlink:href="#DejaVuSans-31"/>
       <use x="63.623046875" xlink:href="#DejaVuSans-2e"/>
       <use x="95.41015625" xlink:href="#DejaVuSans-35"/>
      </g>
     </g>
    </g>
    <g id="xtick_14">
     <g id="line2d_65">
      <g>
       <use style="stroke:#000000;stroke-linecap:butt;stroke-width:0.5;" x="295.2" xlink:href="#mcb557df647" y="388.8"/>
      </g>
     </g>
     <g id="line2d_66">
      <g>
       <use style="stroke:#000000;stroke-linecap:butt;stroke-width:0.5;" x="295.2" xlink:href="#mdad270ee8e" y="231.709090909"/>
      </g>
     </g>
     <g id="text_23">
      <!-- 2.0 -->
      <g transform="translate(286.49625 401.70625)scale(0.12 -0.12)">
       <use xlink:href="#DejaVuSans-32"/>
       <use x="63.623046875" xlink:href="#DejaVuSans-2e"/>
       <use x="95.41015625" xlink:href="#DejaVuSans-30"/>
      </g>
     </g>
    </g>
    <g id="xtick_15">
     <g id="line2d_67">
      <g>
       <use style="stroke:#000000;stroke-linecap:butt;stroke-width:0.5;" x="351.0" xlink:href="#mcb557df647" y="388.8"/>
      </g>
     </g>
     <g id="line2d_68">
      <g>
       <use style="stroke:#000000;stroke-linecap:butt;stroke-width:0.5;" x="351.0" xlink:href="#mdad270ee8e" y="231.709090909"/>
      </g>
     </g>
     <g id="text_24">
      <!-- 2.5 -->
      <g transform="translate(342.421875 401.70625)scale(0.12 -0.12)">
       <use xlink:href="#DejaVuSans-32"/>
       <use x="63.623046875" xlink:href="#DejaVuSans-2e"/>
       <use x="95.41015625" xlink:href="#DejaVuSans-35"/>
      </g>
     </g>
    </g>
    <g id="xtick_16">
     <g id="line2d_69">
      <g>
       <use style="stroke:#000000;stroke-linecap:butt;stroke-width:0.5;" x="406.8" xlink:href="#mcb557df647" y="388.8"/>
      </g>
     </g>
     <g id="line2d_70">
      <g>
       <use style="stroke:#000000;stroke-linecap:butt;stroke-width:0.5;" x="406.8" xlink:href="#mdad270ee8e" y="231.709090909"/>
      </g>
     </g>
     <g id="text_25">
      <!-- 3.0 -->
      <g transform="translate(398.1140625 401.70625)scale(0.12 -0.12)">
       <use xlink:href="#DejaVuSans-33"/>
       <use x="63.623046875" xlink:href="#DejaVuSans-2e"/>
       <use x="95.41015625" xlink:href="#DejaVuSans-30"/>
      </g>
     </g>
    </g>
    <g id="xtick_17">
     <g id="line2d_71">
      <g>
       <use style="stroke:#000000;stroke-linecap:butt;stroke-width:0.5;" x="462.6" xlink:href="#mcb557df647" y="388.8"/>
      </g>
     </g>
     <g id="line2d_72">
      <g>
       <use style="stroke:#000000;stroke-linecap:butt;stroke-width:0.5;" x="462.6" xlink:href="#mdad270ee8e" y="231.709090909"/>
      </g>
     </g>
     <g id="text_26">
      <!-- 3.5 -->
      <g transform="translate(454.0396875 401.70625)scale(0.12 -0.12)">
       <use xlink:href="#DejaVuSans-33"/>
       <use x="63.623046875" xlink:href="#DejaVuSans-2e"/>
       <use x="95.41015625" xlink:href="#DejaVuSans-35"/>
      </g>
     </g>
    </g>
    <g id="xtick_18">
     <g id="line2d_73">
      <g>
       <use style="stroke:#000000;stroke-linecap:butt;stroke-width:0.5;" x="518.4" xlink:href="#mcb557df647" y="388.8"/>
      </g>
     </g>
     <g id="line2d_74">
      <g>
       <use style="stroke:#000000;stroke-linecap:butt;stroke-width:0.5;" x="518.4" xlink:href="#mdad270ee8e" y="231.709090909"/>
      </g>
     </g>
     <g id="text_27">
      <!-- 4.0 -->
      <g transform="translate(509.55 401.70625)scale(0.12 -0.12)">
       <use xlink:href="#DejaVuSans-34"/>
       <use x="63.623046875" xlink:href="#DejaVuSans-2e"/>
       <use x="95.41015625" xlink:href="#DejaVuSans-30"/>
      </g>
     </g>
    </g>
   </g>
   <g id="matplotlib.axis_4">
    <g id="ytick_10">
     <g id="line2d_75">
      <g>
       <use style="stroke:#000000;stroke-linecap:butt;stroke-width:0.5;" x="72.0" xlink:href="#mc8fcea1516" y="388.8"/>
      </g>
     </g>
     <g id="line2d_76">
      <g>
       <use style="stroke:#000000;stroke-linecap:butt;stroke-width:0.5;" x="518.4" xlink:href="#m0d5b0a6425" y="388.8"/>
      </g>
     </g>
     <g id="text_28">
      <!-- −40 -->
      <g transform="translate(44.7425 393.1678125)scale(0.12 -0.12)">
       <use xlink:href="#DejaVuSans-2212"/>
       <use x="83.7890625" xlink:href="#DejaVuSans-34"/>
       <use x="147.412109375" xlink:href="#DejaVuSans-30"/>
      </g>
     </g>
    </g>
    <g id="ytick_11">
     <g id="line2d_77">
      <g>
       <use style="stroke:#000000;stroke-linecap:butt;stroke-width:0.5;" x="72.0" xlink:href="#mc8fcea1516" y="362.618181818"/>
      </g>
     </g>
     <g id="line2d_78">
      <g>
       <use style="stroke:#000000;stroke-linecap:butt;stroke-width:0.5;" x="518.4" xlink:href="#m0d5b0a6425" y="362.618181818"/>
      </g>
     </g>
     <g id="text_29">
      <!-- −30 -->
      <g transform="translate(44.7425 366.985994318)scale(0.12 -0.12)">
       <use xlink:href="#DejaVuSans-2212"/>
       <use x="83.7890625" xlink:href="#DejaVuSans-33"/>
       <use x="147.412109375" xlink:href="#DejaVuSans-30"/>
      </g>
     </g>
    </g>
    <g id="ytick_12">
     <g id="line2d_79">
      <g>
       <use style="stroke:#000000;stroke-linecap:butt;stroke-width:0.5;" x="72.0" xlink:href="#mc8fcea1516" y="336.436363636"/>
      </g>
     </g>
     <g id="line2d_80">
      <g>
       <use style="stroke:#000000;stroke-linecap:butt;stroke-width:0.5;" x="518.4" xlink:href="#m0d5b0a6425" y="336.436363636"/>
      </g>
     </g>
     <g id="text_30">
      <!-- −20 -->
      <g transform="translate(44.7425 340.804176136)scale(0.12 -0.12)">
       <use xlink:href="#DejaVuSans-2212"/>
       <use x="83.7890625" xlink:href="#DejaVuSans-32"/>
       <use x="147.412109375" xlink:href="#DejaVuSans-30"/>
      </g>
     </g>
    </g>
    <g id="ytick_13">
     <g id="line2d_81">
      <g>
       <use style="stroke:#000000;stroke-linecap:butt;stroke-width:0.5;" x="72.0" xlink:href="#mc8fcea1516" y="310.254545455"/>
      </g>
     </g>
     <g id="line2d_82">
      <g>
       <use style="stroke:#000000;stroke-linecap:butt;stroke-width:0.5;" x="518.4" xlink:href="#m0d5b0a6425" y="310.254545455"/>
      </g>
     </g>
     <g id="text_31">
      <!-- −10 -->
      <g transform="translate(44.7425 314.622357955)scale(0.12 -0.12)">
       <use xlink:href="#DejaVuSans-2212"/>
       <use x="83.7890625" xlink:href="#DejaVuSans-31"/>
       <use x="147.412109375" xlink:href="#DejaVuSans-30"/>
      </g>
     </g>
    </g>
    <g id="ytick_14">
     <g id="line2d_83">
      <g>
       <use style="stroke:#000000;stroke-linecap:butt;stroke-width:0.5;" x="72.0" xlink:href="#mc8fcea1516" y="284.072727273"/>
      </g>
     </g>
     <g id="line2d_84">
      <g>
       <use style="stroke:#000000;stroke-linecap:butt;stroke-width:0.5;" x="518.4" xlink:href="#m0d5b0a6425" y="284.072727273"/>
      </g>
     </g>
     <g id="text_32">
      <!-- 0 -->
      <g transform="translate(61.953125 288.440539773)scale(0.12 -0.12)">
       <use xlink:href="#DejaVuSans-30"/>
      </g>
     </g>
    </g>
    <g id="ytick_15">
     <g id="line2d_85">
      <g>
       <use style="stroke:#000000;stroke-linecap:butt;stroke-width:0.5;" x="72.0" xlink:href="#mc8fcea1516" y="257.890909091"/>
      </g>
     </g>
     <g id="line2d_86">
      <g>
       <use style="stroke:#000000;stroke-linecap:butt;stroke-width:0.5;" x="518.4" xlink:href="#m0d5b0a6425" y="257.890909091"/>
      </g>
     </g>
     <g id="text_33">
      <!-- 10 -->
      <g transform="translate(54.845 262.258721591)scale(0.12 -0.12)">
       <use xlink:href="#DejaVuSans-31"/>
       <use x="63.623046875" xlink:href="#DejaVuSans-30"/>
      </g>
     </g>
    </g>
    <g id="ytick_16">
     <g id="line2d_87">
      <g>
       <use style="stroke:#000000;stroke-linecap:butt;stroke-width:0.5;" x="72.0" xlink:href="#mc8fcea1516" y="231.709090909"/>
      </g>
     </g>
     <g id="line2d_88">
      <g>
       <use style="stroke:#000000;stroke-linecap:butt;stroke-width:0.5;" x="518.4" xlink:href="#m0d5b0a6425" y="231.709090909"/>
      </g>
     </g>
     <g id="text_34">
      <!-- 20 -->
      <g transform="translate(54.40625 236.076903409)scale(0.12 -0.12)">
       <use xlink:href="#DejaVuSans-32"/>
       <use x="63.623046875" xlink:href="#DejaVuSans-30"/>
      </g>
     </g>
    </g>
   </g>
   <g id="patch_8">
    <path d="
M72 231.709
L518.4 231.709" style="fill:none;stroke:#000000;"/>
   </g>
   <g id="patch_9">
    <path d="
M518.4 388.8
L518.4 231.709" style="fill:none;stroke:#000000;"/>
   </g>
   <g id="patch_10">
    <path d="
M72 388.8
L518.4 388.8" style="fill:none;stroke:#000000;"/>
   </g>
   <g id="patch_11">
    <path d="
M72 388.8
L72 231.709" style="fill:none;stroke:#000000;"/>
   </g>
  </g>
 </g>
 <defs>
  <clipPath id="p3af14643a6">
   <rect height="157.090909091" width="446.4" x="72.0" y="43.2"/>
  </clipPath>
  <clipPath id="p8d90287ba5">
   <rect height="157.090909091" width="446.4" x="72.0" y="231.709090909"/>
  </clipPath>
 </defs>
</svg>
