<?xml version="1.0" encoding="utf-8" standalone="no"?>
<!DOCTYPE svg PUBLIC "-//W3C//DTD SVG 1.1//EN"
  "http://www.w3.org/Graphics/SVG/1.1/DTD/svg11.dtd">
<!-- Created with matplotlib (http://matplotlib.org/) -->
<svg height="432pt" version="1.1" viewBox="0 0 576 432" width="576pt" xmlns="http://www.w3.org/2000/svg" xmlns:xlink="http://www.w3.org/1999/xlink">
 <defs>
  <style type="text/css">
*{stroke-linecap:square;stroke-linejoin:round;}
  </style>
 </defs>
 <g id="figure_1">
  <g id="patch_1">
   <path d="
M0 432
L576 432
L576 0
L0 0
z
" style="fill:#ffffff;"/>
  </g>
  <g id="axes_1">
   <g id="patch_2">
    <path d="
M72 200.291
L518.4 200.291
L518.4 43.2
L72 43.2
z
" style="fill:#ffffff;"/>
   </g>
   <g id="line2d_1">
    <path clip-path="url(#p3af14643a6)" d="
M96.3822 118.958
L109.537 125.589
L122.692 131.57
L135.845 136.763
L148.999 141.058
L162.151 144.367
L175.298 146.631
L188.45 147.819
L201.603 147.921
L214.746 146.956
L227.895 144.968
L241.047 142.025
L254.186 138.229
L267.337 133.694
L280.476 128.574
L293.616 123.04
L306.764 117.288
L319.909 111.545
L333.052 106.065
L346.195 101.12
L359.347 97.0134
L372.495 94.0768
L385.643 92.664
L398.795 93.156
L411.945 95.9596
L425.094 101.507
L438.253 110.265
L451.401 122.703
L464.556 139.347" style="fill:none;stroke:#0000ff;"/>
   </g>
   <g id="line2d_2">
    <path clip-path="url(#p3af14643a6)" d="
M89.2515 155.678
L102.395 149.558
L115.546 145.195
L128.7 142.153
L141.845 140.041
L155 138.51
L168.143 137.263
L181.291 136.044
L194.443 134.644
L207.586 132.906
L220.737 130.71
L233.878 127.993
L247.014 124.73
L260.167 120.94
L273.314 116.698
L286.457 112.121
L299.599 107.37
L312.741 102.653
L325.901 98.2186
L339.043 94.3806
L352.2 91.4765
L365.349 89.9064
L378.498 90.1083
L391.659 92.5719
L404.813 97.8288
L417.961 106.454
L431.117 119.084
L444.276 136.391
L457.434 159.089
L470.585 187.931" style="fill:none;stroke:#008000;"/>
   </g>
   <g id="line2d_3">
    <path clip-path="url(#p3af14643a6)" d="
M95.2785 92.0808
L108.424 117.462
L121.573 136.337
L134.73 149.518
L147.874 157.756
L161.039 161.794
L174.179 162.302
L187.322 159.929
L200.457 155.273
L213.6 148.882
L226.746 141.265
L239.889 132.892
L253.032 124.185
L266.166 115.531
L279.311 107.254
L292.45 99.66
L305.584 92.9987
L318.742 87.4661
L331.88 83.2478
L345.026 80.4552
L358.176 79.1716
L371.331 79.4351
L384.484 81.2399
L397.634 84.5357
L410.788 89.232
L423.951 95.1972
L437.103 102.243
L450.264 110.158
L463.422 118.671" style="fill:none;stroke:#ff0000;"/>
   </g>
   <g id="line2d_4">
    <path clip-path="url(#p3af14643a6)" d="
M88.1181 137.153
L101.273 142.682
L114.43 147.435
L127.584 151.288
L140.733 154.147
L153.885 155.942
L167.032 156.631
L180.184 156.195
L193.329 154.641
L206.474 152.005
L219.62 148.343
L232.761 143.743
L245.907 138.313
L259.046 132.192
L272.184 125.541
L285.325 118.546
L298.469 111.418
L311.606 104.402
L324.757 97.7525
L337.898 91.7712
L351.044 86.768
L364.188 83.0869
L377.34 81.0947
L390.49 81.1875
L403.642 83.7853
L416.795 89.3346
L429.95 98.3081
L443.106 111.203
L456.261 128.542
L469.416 150.876" style="fill:none;stroke:#00bfbf;"/>
   </g>
   <g id="line2d_5">
    <path clip-path="url(#p3af14643a6)" d="
M94.1141 61.3431
L107.269 92.1477
L120.423 115.92
L133.576 133.532
L146.733 145.807
L159.879 153.505
L173.032 157.36
L186.176 158.039
L199.326 156.168
L212.473 152.319
L225.618 147.02
L238.759 140.747
L251.906 133.921
L265.048 126.927
L278.19 120.09
L291.332 113.691
L304.476 107.96
L317.618 103.081
L330.765 99.1856
L343.911 96.3603
L357.058 94.6409
L370.206 94.0145
L383.355 94.4195
L396.504 95.745
L409.657 97.8322
L422.81 100.471
L435.963 103.405
L449.117 106.327
L462.271 108.88" style="fill:none;stroke:#bf00bf;"/>
   </g>
   <g id="line2d_6">
    <path clip-path="url(#p3af14643a6)" d="
M86.9652 116.047
L100.118 124.821
L113.266 131.887
L126.42 137.323
L139.573 141.208
L152.72 143.633
L165.873 144.699
L179.018 144.513
L192.165 143.194
L205.314 140.866
L218.459 137.665
L231.604 133.732
L244.751 129.219
L257.894 124.287
L271.038 119.103
L284.177 113.848
L297.324 108.701
L310.474 103.861
L323.616 99.5332
L336.766 95.9257
L349.92 93.2607
L363.068 91.7701
L376.215 91.6904
L389.368 93.2693
L402.522 96.763
L415.681 102.439
L428.831 110.563
L441.988 121.427
L455.144 135.316
L468.298 152.527" style="fill:none;stroke:#bfbf00;"/>
   </g>
   <g id="line2d_7">
    <path clip-path="url(#p3af14643a6)" d="
M92.9921 107.926
L106.145 122.434
L119.297 133.836
L132.447 142.373
L145.595 148.288
L158.745 151.824
L171.891 153.222
L185.038 152.723
L198.182 150.569
L211.339 146.996
L224.476 142.255
L237.613 136.58
L250.752 130.213
L263.895 123.388
L277.038 116.35
L290.18 109.339
L303.319 102.594
L316.468 96.3489
L329.611 90.8504
L342.752 86.336
L355.908 83.0401
L369.054 81.2091
L382.206 81.0793
L395.359 82.8912
L408.512 86.8839
L421.667 93.2974
L434.823 102.371
L447.981 114.345
L461.139 129.457
L474.295 147.944" style="fill:none;stroke:#000000;"/>
   </g>
   <g id="line2d_8">
    <path clip-path="url(#p3af14643a6)" d="
M98.9889 104.756
L112.143 120.14
L125.297 132.377
L138.452 141.706
L151.6 148.361
L164.751 152.585
L177.9 154.615
L191.047 154.689
L204.196 153.047
L217.34 149.927
L230.487 145.569
L243.625 140.214
L256.768 134.098
L269.916 127.459
L283.06 120.543
L296.194 113.591
L309.337 106.837
L322.482 100.522
L335.626 94.8921
L348.77 90.1869
L361.926 86.6456
L375.071 84.5173
L388.219 84.041
L401.369 85.461
L414.525 89.0231
L427.679 94.9703
L440.833 103.547
L453.992 115.003
L467.147 129.575" style="fill:none;stroke:#0000ff;"/>
   </g>
   <g id="line2d_9">
    <path clip-path="url(#p3af14643a6)" d="
M91.8385 114.214
L104.992 122.788
L118.145 130.044
L131.299 135.966
L144.448 140.547
L157.598 143.805
L170.742 145.769
L183.893 146.486
L197.047 146.019
L210.187 144.448
L223.335 141.867
L236.481 138.389
L249.624 134.142
L262.766 129.272
L275.908 123.938
L289.052 118.316
L302.195 112.602
L315.345 107.001
L328.487 101.746
L341.63 97.0761
L354.777 93.2486
L367.927 90.5404
L381.078 89.2442
L394.227 89.6683
L407.378 92.1376
L420.532 96.9944
L433.687 104.597
L446.839 115.316
L459.999 129.553
L473.15 147.698" style="fill:none;stroke:#008000;"/>
   </g>
   <g id="line2d_10">
    <path clip-path="url(#p3af14643a6)" d="
M97.8431 108.947
L110.994 123.812
L124.146 134.627
L137.297 141.931
L150.446 146.232
L163.596 148.007
L176.745 147.699
L189.893 145.715
L203.038 142.436
L216.181 138.203
L229.327 133.327
L242.474 128.086
L255.613 122.729
L268.759 117.463
L281.903 112.472
L295.053 107.899
L308.193 103.866
L321.343 100.446
L334.486 97.6943
L347.635 95.6242
L360.784 94.2204
L373.935 93.4339
L387.089 93.1826
L400.243 93.352
L413.398 93.7943
L426.555 94.3291
L439.707 94.7426
L452.865 94.7888
L466.025 94.188" style="fill:none;stroke:#ff0000;"/>
   </g>
   <g id="matplotlib.axis_1">
    <g id="xtick_1">
     <g id="line2d_11">
      <defs>
       <path d="
M0 0
L0 -4" id="mcb557df647" style="stroke:#000000;stroke-linecap:butt;stroke-width:0.5;"/>
      </defs>
      <g>
       <use style="stroke:#000000;stroke-linecap:butt;stroke-width:0.5;" x="72.0" xlink:href="#mcb557df647" y="200.290909091"/>
      </g>
     </g>
     <g id="line2d_12">
      <defs>
       <path d="
M0 0
L0 4" id="mdad270ee8e" style="stroke:#000000;stroke-linecap:butt;stroke-width:0.5;"/>
      </defs>
      <g>
       <use style="stroke:#000000;stroke-linecap:butt;stroke-width:0.5;" x="72.0" xlink:href="#mdad270ee8e" y="43.2"/>
      </g>
     </g>
     <g id="text_1">
      <!-- 0 -->
      <defs>
       <path d="
M31.7812 66.4062
Q24.1719 66.4062 20.3281 58.9062
Q16.5 51.4219 16.5 36.375
Q16.5 21.3906 20.3281 13.8906
Q24.1719 6.39062 31.7812 6.39062
Q39.4531 6.39062 43.2812 13.8906
Q47.125 21.3906 47.125 36.375
Q47.125 51.4219 43.2812 58.9062
Q39.4531 66.4062 31.7812 66.4062
M31.7812 74.2188
Q44.0469 74.2188 50.5156 64.5156
Q56.9844 54.8281 56.9844 36.375
Q56.9844 17.9688 50.5156 8.26562
Q44.0469 -1.42188 31.7812 -1.42188
Q19.5312 -1.42188 13.0625 8.26562
Q6.59375 17.9688 6.59375 36.375
Q6.59375 54.8281 13.0625 64.5156
Q19.5312 74.2188 31.7812 74.2188" id="DejaVuSans-30"/>
      </defs>
      <g transform="translate(68.9765625 213.197159091)scale(0.12 -0.12)">
       <use xlink:href="#DejaVuSans-30"/>
      </g>
     </g>
    </g>
    <g id="xtick_2">
     <g id="line2d_13">
      <g>
       <use style="stroke:#000000;stroke-linecap:butt;stroke-width:0.5;" x="127.8" xlink:href="#mcb557df647" y="200.290909091"/>
      </g>
     </g>
     <g id="line2d_14">
      <g>
       <use style="stroke:#000000;stroke-linecap:butt;stroke-width:0.5;" x="127.8" xlink:href="#mdad270ee8e" y="43.2"/>
      </g>
     </g>
     <g id="text_2">
      <!-- 50 -->
      <defs>
       <path d="
M10.7969 72.9062
L49.5156 72.9062
L49.5156 64.5938
L19.8281 64.5938
L19.8281 46.7344
Q21.9688 47.4688 24.1094 47.8281
Q26.2656 48.1875 28.4219 48.1875
Q40.625 48.1875 47.75 41.5
Q54.8906 34.8125 54.8906 23.3906
Q54.8906 11.625 47.5625 5.09375
Q40.2344 -1.42188 26.9062 -1.42188
Q22.3125 -1.42188 17.5469 -0.640625
Q12.7969 0.140625 7.71875 1.70312
L7.71875 11.625
Q12.1094 9.23438 16.7969 8.0625
Q21.4844 6.89062 26.7031 6.89062
Q35.1562 6.89062 40.0781 11.3281
Q45.0156 15.7656 45.0156 23.3906
Q45.0156 31 40.0781 35.4375
Q35.1562 39.8906 26.7031 39.8906
Q22.75 39.8906 18.8125 39.0156
Q14.8906 38.1406 10.7969 36.2812
z
" id="DejaVuSans-35"/>
      </defs>
      <g transform="translate(121.0265625 213.197159091)scale(0.12 -0.12)">
       <use xlink:href="#DejaVuSans-35"/>
       <use x="63.623046875" xlink:href="#DejaVuSans-30"/>
      </g>
     </g>
    </g>
    <g id="xtick_3">
     <g id="line2d_15">
      <g>
       <use style="stroke:#000000;stroke-linecap:butt;stroke-width:0.5;" x="183.6" xlink:href="#mcb557df647" y="200.290909091"/>
      </g>
     </g>
     <g id="line2d_16">
      <g>
       <use style="stroke:#000000;stroke-linecap:butt;stroke-width:0.5;" x="183.6" xlink:href="#mdad270ee8e" y="43.2"/>
      </g>
     </g>
     <g id="text_3">
      <!-- 100 -->
      <defs>
       <path d="
M12.4062 8.29688
L28.5156 8.29688
L28.5156 63.9219
L10.9844 60.4062
L10.9844 69.3906
L28.4219 72.9062
L38.2812 72.9062
L38.2812 8.29688
L54.3906 8.29688
L54.3906 0
L12.4062 0
z
" id="DejaVuSans-31"/>
      </defs>
      <g transform="translate(173.205 213.197159091)scale(0.12 -0.12)">
       <use xlink:href="#DejaVuSans-31"/>
       <use x="63.623046875" xlink:href="#DejaVuSans-30"/>
       <use x="127.24609375" xlink:href="#DejaVuSans-30"/>
      </g>
     </g>
    </g>
    <g id="xtick_4">
     <g id="line2d_17">
      <g>
       <use style="stroke:#000000;stroke-linecap:butt;stroke-width:0.5;" x="239.4" xlink:href="#mcb557df647" y="200.290909091"/>
      </g>
     </g>
     <g id="line2d_18">
      <g>
       <use style="stroke:#000000;stroke-linecap:butt;stroke-width:0.5;" x="239.4" xlink:href="#mdad270ee8e" y="43.2"/>
      </g>
     </g>
     <g id="text_4">
      <!-- 150 -->
      <g transform="translate(229.005 213.197159091)scale(0.12 -0.12)">
       <use xlink:href="#DejaVuSans-31"/>
       <use x="63.623046875" xlink:href="#DejaVuSans-35"/>
       <use x="127.24609375" xlink:href="#DejaVuSans-30"/>
      </g>
     </g>
    </g>
    <g id="xtick_5">
     <g id="line2d_19">
      <g>
       <use style="stroke:#000000;stroke-linecap:butt;stroke-width:0.5;" x="295.2" xlink:href="#mcb557df647" y="200.290909091"/>
      </g>
     </g>
     <g id="line2d_20">
      <g>
       <use style="stroke:#000000;stroke-linecap:butt;stroke-width:0.5;" x="295.2" xlink:href="#mdad270ee8e" y="43.2"/>
      </g>
     </g>
     <g id="text_5">
      <!-- 200 -->
      <defs>
       <path d="
M19.1875 8.29688
L53.6094 8.29688
L53.6094 0
L7.32812 0
L7.32812 8.29688
Q12.9375 14.1094 22.625 23.8906
Q32.3281 33.6875 34.8125 36.5312
Q39.5469 41.8438 41.4219 45.5312
Q43.3125 49.2188 43.3125 52.7812
Q43.3125 58.5938 39.2344 62.25
Q35.1562 65.9219 28.6094 65.9219
Q23.9688 65.9219 18.8125 64.3125
Q13.6719 62.7031 7.8125 59.4219
L7.8125 69.3906
Q13.7656 71.7812 18.9375 73
Q24.125 74.2188 28.4219 74.2188
Q39.75 74.2188 46.4844 68.5469
Q53.2188 62.8906 53.2188 53.4219
Q53.2188 48.9219 51.5312 44.8906
Q49.8594 40.875 45.4062 35.4062
Q44.1875 33.9844 37.6406 27.2188
Q31.1094 20.4531 19.1875 8.29688" id="DejaVuSans-32"/>
      </defs>
      <g transform="translate(284.585625 213.197159091)scale(0.12 -0.12)">
       <use xlink:href="#DejaVuSans-32"/>
       <use x="63.623046875" xlink:href="#DejaVuSans-30"/>
       <use x="127.24609375" xlink:href="#DejaVuSans-30"/>
      </g>
     </g>
    </g>
    <g id="xtick_6">
     <g id="line2d_21">
      <g>
       <use style="stroke:#000000;stroke-linecap:butt;stroke-width:0.5;" x="351.0" xlink:href="#mcb557df647" y="200.290909091"/>
      </g>
     </g>
     <g id="line2d_22">
      <g>
       <use style="stroke:#000000;stroke-linecap:butt;stroke-width:0.5;" x="351.0" xlink:href="#mdad270ee8e" y="43.2"/>
      </g>
     </g>
     <g id="text_6">
      <!-- 250 -->
      <g transform="translate(340.385625 213.197159091)scale(0.12 -0.12)">
       <use xlink:href="#DejaVuSans-32"/>
       <use x="63.623046875" xlink:href="#DejaVuSans-35"/>
       <use x="127.24609375" xlink:href="#DejaVuSans-30"/>
      </g>
     </g>
    </g>
    <g id="xtick_7">
     <g id="line2d_23">
      <g>
       <use style="stroke:#000000;stroke-linecap:butt;stroke-width:0.5;" x="406.8" xlink:href="#mcb557df647" y="200.290909091"/>
      </g>
     </g>
     <g id="line2d_24">
      <g>
       <use style="stroke:#000000;stroke-linecap:butt;stroke-width:0.5;" x="406.8" xlink:href="#mdad270ee8e" y="43.2"/>
      </g>
     </g>
     <g id="text_7">
      <!-- 300 -->
      <defs>
       <path d="
M40.5781 39.3125
Q47.6562 37.7969 51.625 33
Q55.6094 28.2188 55.6094 21.1875
Q55.6094 10.4062 48.1875 4.48438
Q40.7656 -1.42188 27.0938 -1.42188
Q22.5156 -1.42188 17.6562 -0.515625
Q12.7969 0.390625 7.625 2.20312
L7.625 11.7188
Q11.7188 9.32812 16.5938 8.10938
Q21.4844 6.89062 26.8125 6.89062
Q36.0781 6.89062 40.9375 10.5469
Q45.7969 14.2031 45.7969 21.1875
Q45.7969 27.6406 41.2812 31.2656
Q36.7656 34.9062 28.7188 34.9062
L20.2188 34.9062
L20.2188 43.0156
L29.1094 43.0156
Q36.375 43.0156 40.2344 45.9219
Q44.0938 48.8281 44.0938 54.2969
Q44.0938 59.9062 40.1094 62.9062
Q36.1406 65.9219 28.7188 65.9219
Q24.6562 65.9219 20.0156 65.0312
Q15.375 64.1562 9.8125 62.3125
L9.8125 71.0938
Q15.4375 72.6562 20.3438 73.4375
Q25.25 74.2188 29.5938 74.2188
Q40.8281 74.2188 47.3594 69.1094
Q53.9062 64.0156 53.9062 55.3281
Q53.9062 49.2656 50.4375 45.0938
Q46.9688 40.9219 40.5781 39.3125" id="DejaVuSans-33"/>
      </defs>
      <g transform="translate(396.2034375 213.197159091)scale(0.12 -0.12)">
       <use xlink:href="#DejaVuSans-33"/>
       <use x="63.623046875" xlink:href="#DejaVuSans-30"/>
       <use x="127.24609375" xlink:href="#DejaVuSans-30"/>
      </g>
     </g>
    </g>
    <g id="xtick_8">
     <g id="line2d_25">
      <g>
       <use style="stroke:#000000;stroke-linecap:butt;stroke-width:0.5;" x="462.6" xlink:href="#mcb557df647" y="200.290909091"/>
      </g>
     </g>
     <g id="line2d_26">
      <g>
       <use style="stroke:#000000;stroke-linecap:butt;stroke-width:0.5;" x="462.6" xlink:href="#mdad270ee8e" y="43.2"/>
      </g>
     </g>
     <g id="text_8">
      <!-- 350 -->
      <g transform="translate(452.0034375 213.197159091)scale(0.12 -0.12)">
       <use xlink:href="#DejaVuSans-33"/>
       <use x="63.623046875" xlink:href="#DejaVuSans-35"/>
       <use x="127.24609375" xlink:href="#DejaVuSans-30"/>
      </g>
     </g>
    </g>
    <g id="xtick_9">
     <g id="line2d_27">
      <g>
       <use style="stroke:#000000;stroke-linecap:butt;stroke-width:0.5;" x="518.4" xlink:href="#mcb557df647" y="200.290909091"/>
      </g>
     </g>
     <g id="line2d_28">
      <g>
       <use style="stroke:#000000;stroke-linecap:butt;stroke-width:0.5;" x="518.4" xlink:href="#mdad270ee8e" y="43.2"/>
      </g>
     </g>
     <g id="text_9">
      <!-- 400 -->
      <defs>
       <path d="
M37.7969 64.3125
L12.8906 25.3906
L37.7969 25.3906
z

M35.2031 72.9062
L47.6094 72.9062
L47.6094 25.3906
L58.0156 25.3906
L58.0156 17.1875
L47.6094 17.1875
L47.6094 0
L37.7969 0
L37.7969 17.1875
L4.89062 17.1875
L4.89062 26.7031
z
" id="DejaVuSans-34"/>
      </defs>
      <g transform="translate(507.639375 213.197159091)scale(0.12 -0.12)">
       <use xlink:href="#DejaVuSans-34"/>
       <use x="63.623046875" xlink:href="#DejaVuSans-30"/>
       <use x="127.24609375" xlink:href="#DejaVuSans-30"/>
      </g>
     </g>
    </g>
   </g>
   <g id="matplotlib.axis_2">
    <g id="ytick_1">
     <g id="line2d_29">
      <defs>
       <path d="
M0 0
L4 0" id="mc8fcea1516" style="stroke:#000000;stroke-linecap:butt;stroke-width:0.5;"/>
      </defs>
      <g>
       <use style="stroke:#000000;stroke-linecap:butt;stroke-width:0.5;" x="72.0" xlink:href="#mc8fcea1516" y="200.290909091"/>
      </g>
     </g>
     <g id="line2d_30">
      <defs>
       <path d="
M0 0
L-4 0" id="m0d5b0a6425" style="stroke:#000000;stroke-linecap:butt;stroke-width:0.5;"/>
      </defs>
      <g>
       <use style="stroke:#000000;stroke-linecap:butt;stroke-width:0.5;" x="518.4" xlink:href="#m0d5b0a6425" y="200.290909091"/>
      </g>
     </g>
     <g id="text_10">
      <!-- −0.0006 -->
      <defs>
       <path d="
M10.6875 12.4062
L21 12.4062
L21 0
L10.6875 0
z
" id="DejaVuSans-2e"/>
       <path d="
M33.0156 40.375
Q26.375 40.375 22.4844 35.8281
Q18.6094 31.2969 18.6094 23.3906
Q18.6094 15.5312 22.4844 10.9531
Q26.375 6.39062 33.0156 6.39062
Q39.6562 6.39062 43.5312 10.9531
Q47.4062 15.5312 47.4062 23.3906
Q47.4062 31.2969 43.5312 35.8281
Q39.6562 40.375 33.0156 40.375
M52.5938 71.2969
L52.5938 62.3125
Q48.875 64.0625 45.0938 64.9844
Q41.3125 65.9219 37.5938 65.9219
Q27.8281 65.9219 22.6719 59.3281
Q17.5312 52.7344 16.7969 39.4062
Q19.6719 43.6562 24.0156 45.9219
Q28.375 48.1875 33.5938 48.1875
Q44.5781 48.1875 50.9531 41.5156
Q57.3281 34.8594 57.3281 23.3906
Q57.3281 12.1562 50.6875 5.35938
Q44.0469 -1.42188 33.0156 -1.42188
Q20.3594 -1.42188 13.6719 8.26562
Q6.98438 17.9688 6.98438 36.375
Q6.98438 53.6562 15.1875 63.9375
Q23.3906 74.2188 37.2031 74.2188
Q40.9219 74.2188 44.7031 73.4844
Q48.4844 72.75 52.5938 71.2969" id="DejaVuSans-36"/>
       <path d="
M10.5938 35.5
L73.1875 35.5
L73.1875 27.2031
L10.5938 27.2031
z
" id="DejaVuSans-2212"/>
      </defs>
      <g transform="translate(17.9825 204.658721591)scale(0.12 -0.12)">
       <use xlink:href="#DejaVuSans-2212"/>
       <use x="83.7890625" xlink:href="#DejaVuSans-30"/>
       <use x="147.412109375" xlink:href="#DejaVuSans-2e"/>
       <use x="179.19921875" xlink:href="#DejaVuSans-30"/>
       <use x="242.822265625" xlink:href="#DejaVuSans-30"/>
       <use x="306.4453125" xlink:href="#DejaVuSans-30"/>
       <use x="370.068359375" xlink:href="#DejaVuSans-36"/>
      </g>
     </g>
    </g>
    <g id="ytick_2">
     <g id="line2d_31">
      <g>
       <use style="stroke:#000000;stroke-linecap:butt;stroke-width:0.5;" x="72.0" xlink:href="#mc8fcea1516" y="174.109090909"/>
      </g>
     </g>
     <g id="line2d_32">
      <g>
       <use style="stroke:#000000;stroke-linecap:butt;stroke-width:0.5;" x="518.4" xlink:href="#m0d5b0a6425" y="174.109090909"/>
      </g>
     </g>
     <g id="text_11">
      <!-- −0.0004 -->
      <g transform="translate(17.9 178.476903409)scale(0.12 -0.12)">
       <use xlink:href="#DejaVuSans-2212"/>
       <use x="83.7890625" xlink:href="#DejaVuSans-30"/>
       <use x="147.412109375" xlink:href="#DejaVuSans-2e"/>
       <use x="179.19921875" xlink:href="#DejaVuSans-30"/>
       <use x="242.822265625" xlink:href="#DejaVuSans-30"/>
       <use x="306.4453125" xlink:href="#DejaVuSans-30"/>
       <use x="370.068359375" xlink:href="#DejaVuSans-34"/>
      </g>
     </g>
    </g>
    <g id="ytick_3">
     <g id="line2d_33">
      <g>
       <use style="stroke:#000000;stroke-linecap:butt;stroke-width:0.5;" x="72.0" xlink:href="#mc8fcea1516" y="147.927272727"/>
      </g>
     </g>
     <g id="line2d_34">
      <g>
       <use style="stroke:#000000;stroke-linecap:butt;stroke-width:0.5;" x="518.4" xlink:href="#m0d5b0a6425" y="147.927272727"/>
      </g>
     </g>
     <g id="text_12">
      <!-- −0.0002 -->
      <g transform="translate(18.42875 152.295085227)scale(0.12 -0.12)">
       <use xlink:href="#DejaVuSans-2212"/>
       <use x="83.7890625" xlink:href="#DejaVuSans-30"/>
       <use x="147.412109375" xlink:href="#DejaVuSans-2e"/>
       <use x="179.19921875" xlink:href="#DejaVuSans-30"/>
       <use x="242.822265625" xlink:href="#DejaVuSans-30"/>
       <use x="306.4453125" xlink:href="#DejaVuSans-30"/>
       <use x="370.068359375" xlink:href="#DejaVuSans-32"/>
      </g>
     </g>
    </g>
    <g id="ytick_4">
     <g id="line2d_35">
      <g>
       <use style="stroke:#000000;stroke-linecap:butt;stroke-width:0.5;" x="72.0" xlink:href="#mc8fcea1516" y="121.745454545"/>
      </g>
     </g>
     <g id="line2d_36">
      <g>
       <use style="stroke:#000000;stroke-linecap:butt;stroke-width:0.5;" x="518.4" xlink:href="#m0d5b0a6425" y="121.745454545"/>
      </g>
     </g>
     <g id="text_13">
      <!-- 0.0000 -->
      <g transform="translate(27.599375 126.113267045)scale(0.12 -0.12)">
       <use xlink:href="#DejaVuSans-30"/>
       <use x="63.623046875" xlink:href="#DejaVuSans-2e"/>
       <use x="95.41015625" xlink:href="#DejaVuSans-30"/>
       <use x="159.033203125" xlink:href="#DejaVuSans-30"/>
       <use x="222.65625" xlink:href="#DejaVuSans-30"/>
       <use x="286.279296875" xlink:href="#DejaVuSans-30"/>
      </g>
     </g>
    </g>
    <g id="ytick_5">
     <g id="line2d_37">
      <g>
       <use style="stroke:#000000;stroke-linecap:butt;stroke-width:0.5;" x="72.0" xlink:href="#mc8fcea1516" y="95.5636363636"/>
      </g>
     </g>
     <g id="line2d_38">
      <g>
       <use style="stroke:#000000;stroke-linecap:butt;stroke-width:0.5;" x="518.4" xlink:href="#m0d5b0a6425" y="95.5636363636"/>
      </g>
     </g>
     <g id="text_14">
      <!-- 0.0002 -->
      <g transform="translate(28.004375 99.9314488636)scale(0.12 -0.12)">
       <use xlink:href="#DejaVuSans-30"/>
       <use x="63.623046875" xlink:href="#DejaVuSans-2e"/>
       <use x="95.41015625" xlink:href="#DejaVuSans-30"/>
       <use x="159.033203125" xlink:href="#DejaVuSans-30"/>
       <use x="222.65625" xlink:href="#DejaVuSans-30"/>
       <use x="286.279296875" xlink:href="#DejaVuSans-32"/>
      </g>
     </g>
    </g>
    <g id="ytick_6">
     <g id="line2d_39">
      <g>
       <use style="stroke:#000000;stroke-linecap:butt;stroke-width:0.5;" x="72.0" xlink:href="#mc8fcea1516" y="69.3818181818"/>
      </g>
     </g>
     <g id="line2d_40">
      <g>
       <use style="stroke:#000000;stroke-linecap:butt;stroke-width:0.5;" x="518.4" xlink:href="#m0d5b0a6425" y="69.3818181818"/>
      </g>
     </g>
     <g id="text_15">
      <!-- 0.0004 -->
      <g transform="translate(27.475625 73.7496306818)scale(0.12 -0.12)">
       <use xlink:href="#DejaVuSans-30"/>
       <use x="63.623046875" xlink:href="#DejaVuSans-2e"/>
       <use x="95.41015625" xlink:href="#DejaVuSans-30"/>
       <use x="159.033203125" xlink:href="#DejaVuSans-30"/>
       <use x="222.65625" xlink:href="#DejaVuSans-30"/>
       <use x="286.279296875" xlink:href="#DejaVuSans-34"/>
      </g>
     </g>
    </g>
    <g id="ytick_7">
     <g id="line2d_41">
      <g>
       <use style="stroke:#000000;stroke-linecap:butt;stroke-width:0.5;" x="72.0" xlink:href="#mc8fcea1516" y="43.2"/>
      </g>
     </g>
     <g id="line2d_42">
      <g>
       <use style="stroke:#000000;stroke-linecap:butt;stroke-width:0.5;" x="518.4" xlink:href="#m0d5b0a6425" y="43.2"/>
      </g>
     </g>
     <g id="text_16">
      <!-- 0.0006 -->
      <g transform="translate(27.558125 47.5678125)scale(0.12 -0.12)">
       <use xlink:href="#DejaVuSans-30"/>
       <use x="63.623046875" xlink:href="#DejaVuSans-2e"/>
       <use x="95.41015625" xlink:href="#DejaVuSans-30"/>
       <use x="159.033203125" xlink:href="#DejaVuSans-30"/>
       <use x="222.65625" xlink:href="#DejaVuSans-30"/>
       <use x="286.279296875" xlink:href="#DejaVuSans-36"/>
      </g>
     </g>
    </g>
   </g>
   <g id="patch_3">
    <path d="
M72 43.2
L518.4 43.2" style="fill:none;stroke:#000000;"/>
   </g>
   <g id="patch_4">
    <path d="
M518.4 200.291
L518.4 43.2" style="fill:none;stroke:#000000;"/>
   </g>
   <g id="patch_5">
    <path d="
M72 200.291
L518.4 200.291" style="fill:none;stroke:#000000;"/>
   </g>
   <g id="patch_6">
    <path d="
M72 200.291
L72 43.2" style="fill:none;stroke:#000000;"/>
   </g>
  </g>
  <g id="axes_2">
   <g id="patch_7">
    <path d="
M72 388.8
L518.4 388.8
L518.4 231.709
L72 231.709
z
" style="fill:#ffffff;"/>
   </g>
   <g id="line2d_43">
    <path clip-path="url(#p8d90287ba5)" d="
M72 307.178
L84.4992 314.545
L96.9984 321.191
L109.498 326.963
L121.997 331.737
L134.496 335.417
L146.995 337.937
L159.494 339.259
L171.994 339.374
L184.493 338.302
L196.992 336.092
L209.491 332.822
L221.99 328.597
L234.49 323.553
L246.989 317.855
L259.488 311.694
L271.987 305.294
L284.486 298.904
L296.986 292.803
L309.485 287.301
L321.984 282.735
L334.483 279.469
L346.982 277.899
L359.482 278.449
L371.981 281.57
L384.48 287.745
L396.979 297.482
L409.478 311.322
L421.978 329.832" style="fill:none;stroke:#0000ff;"/>
   </g>
   <g id="line2d_44">
    <path clip-path="url(#p8d90287ba5)" d="
M72 348.056
L84.4992 341.22
L96.9984 336.351
L109.498 332.957
L121.997 330.601
L134.496 328.897
L146.995 327.509
L159.494 326.155
L171.994 324.602
L184.493 322.672
L196.992 320.234
L209.491 317.212
L221.99 313.581
L234.49 309.366
L246.989 304.646
L259.488 299.551
L271.987 294.26
L284.486 289.006
L296.986 284.074
L309.485 279.799
L321.984 276.569
L334.483 274.821
L346.982 275.047
L359.482 277.789
L371.981 283.64
L384.48 293.245
L396.979 307.301
L409.478 326.556
L421.978 351.81
L434.477 383.914" style="fill:none;stroke:#008000;"/>
   </g>
   <g id="line2d_45">
    <path clip-path="url(#p8d90287ba5)" d="
M72 277.347
L84.4992 305.544
L96.9984 326.51
L109.498 341.145
L121.997 350.302
L134.496 354.787
L146.995 355.357
L159.494 352.722
L171.994 347.544
L184.493 340.438
L196.992 331.969
L209.491 322.658
L221.99 312.974
L234.49 303.342
L246.989 294.137
L259.488 285.686
L271.987 278.271
L284.486 272.123
L296.986 267.427
L309.485 264.32
L321.984 262.891
L334.483 263.182
L346.982 265.186
L359.482 268.849
L371.981 274.069
L384.48 280.698
L396.979 288.537
L409.478 297.342
L421.978 306.82" style="fill:none;stroke:#ff0000;"/>
   </g>
   <g id="line2d_46">
    <path clip-path="url(#p8d90287ba5)" d="
M72 327.466
L84.4992 333.588
L96.9984 338.852
L109.498 343.123
L121.997 346.295
L134.496 348.287
L146.995 349.052
L159.494 348.568
L171.994 346.843
L184.493 343.913
L196.992 339.844
L209.491 334.729
L221.99 328.691
L234.49 321.881
L246.989 314.48
L259.488 306.696
L271.987 298.766
L284.486 290.956
L296.986 283.561
L309.485 276.905
L321.984 271.339
L334.483 267.244
L346.982 265.03
L359.482 265.135
L371.981 268.027
L384.48 274.199
L396.979 284.178
L409.478 298.515
L421.978 317.792
L434.477 342.62" style="fill:none;stroke:#00bfbf;"/>
   </g>
   <g id="line2d_47">
    <path clip-path="url(#p8d90287ba5)" d="
M72 243.104
L84.4992 277.346
L96.9984 303.776
L109.498 323.36
L121.997 337.009
L134.496 345.578
L146.995 349.868
L159.494 350.628
L171.994 348.549
L184.493 344.27
L196.992 338.375
L209.491 331.394
L221.99 323.802
L234.49 316.019
L246.989 308.411
L259.488 301.291
L271.987 294.916
L284.486 289.488
L296.986 285.156
L309.485 282.015
L321.984 280.104
L334.483 279.409
L346.982 279.859
L359.482 281.333
L371.981 283.651
L384.48 286.581
L396.979 289.838
L409.478 293.078
L421.978 295.907" style="fill:none;stroke:#bf00bf;"/>
   </g>
   <g id="line2d_48">
    <path clip-path="url(#p8d90287ba5)" d="
M72 303.946
L84.4992 313.692
L96.9984 321.544
L109.498 327.583
L121.997 331.902
L134.496 334.599
L146.995 335.785
L159.494 335.581
L171.994 334.115
L184.493 331.528
L196.992 327.968
L209.491 323.593
L221.99 318.573
L234.49 313.085
L246.989 307.317
L259.488 301.466
L271.987 295.74
L284.486 290.355
L296.986 285.537
L309.485 281.524
L321.984 278.56
L334.483 276.902
L346.982 276.815
L359.482 278.572
L371.981 282.46
L384.48 288.773
L396.979 297.813
L409.478 309.896
L421.978 325.344
L434.477 344.49" style="fill:none;stroke:#bfbf00;"/>
   </g>
   <g id="line2d_49">
    <path clip-path="url(#p8d90287ba5)" d="
M72 294.928
L84.4992 311.039
L96.9984 323.705
L109.498 333.192
L121.997 339.769
L134.496 343.702
L146.995 345.26
L159.494 344.709
L171.994 342.317
L184.493 338.351
L196.992 333.078
L209.491 326.765
L221.99 319.679
L234.49 312.087
L246.989 304.256
L259.488 296.454
L271.987 288.945
L284.486 281.998
L296.986 275.878
L309.485 270.853
L321.984 267.189
L334.483 265.152
L346.982 265.008
L359.482 267.025
L371.981 271.467
L384.48 278.601
L396.979 288.694
L409.478 302.011
L421.978 318.817
L434.477 339.38" style="fill:none;stroke:#000000;"/>
   </g>
   <g id="line2d_50">
    <path clip-path="url(#p8d90287ba5)" d="
M72 291.41
L84.4992 308.496
L96.9984 322.09
L109.498 332.456
L121.997 339.855
L134.496 344.552
L146.995 346.811
L159.494 346.896
L171.994 345.073
L184.493 341.605
L196.992 336.76
L209.491 330.802
L221.99 323.998
L234.49 316.616
L246.989 308.921
L259.488 301.182
L271.987 293.666
L284.486 286.642
L296.986 280.377
L309.485 275.143
L321.984 271.206
L334.483 268.839
L346.982 268.309
L359.482 269.889
L371.981 273.849
L384.48 280.46
L396.979 289.995
L409.478 302.724
L421.978 318.921" style="fill:none;stroke:#0000ff;"/>
   </g>
   <g id="line2d_51">
    <path clip-path="url(#p8d90287ba5)" d="
M72 301.909
L84.4992 311.431
L96.9984 319.493
L109.498 326.072
L121.997 331.166
L134.496 334.789
L146.995 336.975
L159.494 337.774
L171.994 337.256
L184.493 335.51
L196.992 332.641
L209.491 328.773
L221.99 324.049
L234.49 318.63
L246.989 312.694
L259.488 306.439
L271.987 300.08
L284.486 293.85
L296.986 288.002
L309.485 282.805
L321.984 278.548
L334.483 275.537
L346.982 274.096
L359.482 274.57
L371.981 277.318
L384.48 282.721
L396.979 291.176
L409.478 303.098
L421.978 318.922
L434.477 339.1" style="fill:none;stroke:#008000;"/>
   </g>
   <g id="line2d_52">
    <path clip-path="url(#p8d90287ba5)" d="
M72 296.059
L84.4992 312.574
L96.9984 324.589
L109.498 332.706
L121.997 337.487
L134.496 339.461
L146.995 339.119
L159.494 336.916
L171.994 333.27
L184.493 328.563
L196.992 323.14
L209.491 317.313
L221.99 311.352
L234.49 305.495
L246.989 299.941
L259.488 294.856
L271.987 290.365
L284.486 286.561
L296.986 283.497
L309.485 281.192
L321.984 279.628
L334.483 278.75
L346.982 278.467
L359.482 278.652
L371.981 279.142
L384.48 279.736
L396.979 280.198
L409.478 280.254
L421.978 279.597" style="fill:none;stroke:#ff0000;"/>
   </g>
   <g id="matplotlib.axis_3">
    <g id="xtick_10">
     <g id="line2d_53">
      <g>
       <use style="stroke:#000000;stroke-linecap:butt;stroke-width:0.5;" x="72.0" xlink:href="#mcb557df647" y="388.8"/>
      </g>
     </g>
     <g id="line2d_54">
      <g>
       <use style="stroke:#000000;stroke-linecap:butt;stroke-width:0.5;" x="72.0" xlink:href="#mdad270ee8e" y="231.709090909"/>
      </g>
     </g>
     <g id="text_17">
      <!-- 0.0 -->
      <g transform="translate(63.2521875 401.70625)scale(0.12 -0.12)">
       <use xlink:href="#DejaVuSans-30"/>
       <use x="63.623046875" xlink:href="#DejaVuSans-2e"/>
       <use x="95.41015625" xlink:href="#DejaVuSans-30"/>
      </g>
     </g>
    </g>
    <g id="xtick_11">
     <g id="line2d_55">
      <g>
       <use style="stroke:#000000;stroke-linecap:butt;stroke-width:0.5;" x="161.28" xlink:href="#mcb557df647" y="388.8"/>
      </g>
     </g>
     <g id="line2d_56">
      <g>
       <use style="stroke:#000000;stroke-linecap:butt;stroke-width:0.5;" x="161.28" xlink:href="#mdad270ee8e" y="231.709090909"/>
      </g>
     </g>
     <g id="text_18">
      <!-- 0.5 -->
      <g transform="translate(152.6578125 401.70625)scale(0.12 -0.12)">
       <use xlink:href="#DejaVuSans-30"/>
       <use x="63.623046875" xlink:href="#DejaVuSans-2e"/>
       <use x="95.41015625" xlink:href="#DejaVuSans-35"/>
      </g>
     </g>
    </g>
    <g id="xtick_12">
     <g id="line2d_57">
      <g>
       <use style="stroke:#000000;stroke-linecap:butt;stroke-width:0.5;" x="250.56" xlink:href="#mcb557df647" y="388.8"/>
      </g>
     </g>
     <g id="line2d_58">
      <g>
       <use style="stroke:#000000;stroke-linecap:butt;stroke-width:0.5;" x="250.56" xlink:href="#mdad270ee8e" y="231.709090909"/>
      </g>
     </g>
     <g id="text_19">
      <!-- 1.0 -->
      <g transform="translate(242.075625 401.70625)scale(0.12 -0.12)">
       <use xlink:href="#DejaVuSans-31"/>
       <use x="63.623046875" xlink:href="#DejaVuSans-2e"/>
       <use x="95.41015625" xlink:href="#DejaVuSans-30"/>
      </g>
     </g>
    </g>
    <g id="xtick_13">
     <g id="line2d_59">
      <g>
       <use style="stroke:#000000;stroke-linecap:butt;stroke-width:0.5;" x="339.84" xlink:href="#mcb557df647" y="388.8"/>
      </g>
     </g>
     <g id="line2d_60">
      <g>
       <use style="stroke:#000000;stroke-linecap:butt;stroke-width:0.5;" x="339.84" xlink:href="#mdad270ee8e" y="231.709090909"/>
      </g>
     </g>
     <g id="text_20">
      <!-- 1.5 -->
      <g transform="translate(331.48125 401.54875)scale(0.12 -0.12)">
       <use xlink:href="#DejaVuSans-31"/>
       <use x="63.623046875" xlink:href="#DejaVuSans-2e"/>
       <use x="95.41015625" xlink:href="#DejaVuSans-35"/>
      </g>
     </g>
    </g>
    <g id="xtick_14">
     <g id="line2d_61">
      <g>
       <use style="stroke:#000000;stroke-linecap:butt;stroke-width:0.5;" x="429.12" xlink:href="#mcb557df647" y="388.8"/>
      </g>
     </g>
     <g id="line2d_62">
      <g>
       <use style="stroke:#000000;stroke-linecap:butt;stroke-width:0.5;" x="429.12" xlink:href="#mdad270ee8e" y="231.709090909"/>
      </g>
     </g>
     <g id="text_21">
      <!-- 2.0 -->
      <g transform="translate(420.41625 401.70625)scale(0.12 -0.12)">
       <use xlink:href="#DejaVuSans-32"/>
       <use x="63.623046875" xlink:href="#DejaVuSans-2e"/>
       <use x="95.41015625" xlink:href="#DejaVuSans-30"/>
      </g>
     </g>
    </g>
    <g id="xtick_15">
     <g id="line2d_63">
      <g>
       <use style="stroke:#000000;stroke-linecap:butt;stroke-width:0.5;" x="518.4" xlink:href="#mcb557df647" y="388.8"/>
      </g>
     </g>
     <g id="line2d_64">
      <g>
       <use style="stroke:#000000;stroke-linecap:butt;stroke-width:0.5;" x="518.4" xlink:href="#mdad270ee8e" y="231.709090909"/>
      </g>
     </g>
     <g id="text_22">
      <!-- 2.5 -->
      <g transform="translate(509.821875 401.70625)scale(0.12 -0.12)">
       <use xlink:href="#DejaVuSans-32"/>
       <use x="63.623046875" xlink:href="#DejaVuSans-2e"/>
       <use x="95.41015625" xlink:href="#DejaVuSans-35"/>
      </g>
     </g>
    </g>
   </g>
   <g id="matplotlib.axis_4">
    <g id="ytick_8">
     <g id="line2d_65">
      <g>
       <use style="stroke:#000000;stroke-linecap:butt;stroke-width:0.5;" x="72.0" xlink:href="#mc8fcea1516" y="373.090909091"/>
      </g>
     </g>
     <g id="line2d_66">
      <g>
       <use style="stroke:#000000;stroke-linecap:butt;stroke-width:0.5;" x="518.4" xlink:href="#m0d5b0a6425" y="373.090909091"/>
      </g>
     </g>
     <g id="text_23">
      <!-- −40 -->
      <g transform="translate(44.7425 377.458721591)scale(0.12 -0.12)">
       <use xlink:href="#DejaVuSans-2212"/>
       <use x="83.7890625" xlink:href="#DejaVuSans-34"/>
       <use x="147.412109375" xlink:href="#DejaVuSans-30"/>
      </g>
     </g>
    </g>
    <g id="ytick_9">
     <g id="line2d_67">
      <g>
       <use style="stroke:#000000;stroke-linecap:butt;stroke-width:0.5;" x="72.0" xlink:href="#mc8fcea1516" y="341.672727273"/>
      </g>
     </g>
     <g id="line2d_68">
      <g>
       <use style="stroke:#000000;stroke-linecap:butt;stroke-width:0.5;" x="518.4" xlink:href="#m0d5b0a6425" y="341.672727273"/>
      </g>
     </g>
     <g id="text_24">
      <!-- −20 -->
      <g transform="translate(44.7425 346.040539773)scale(0.12 -0.12)">
       <use xlink:href="#DejaVuSans-2212"/>
       <use x="83.7890625" xlink:href="#DejaVuSans-32"/>
       <use x="147.412109375" xlink:href="#DejaVuSans-30"/>
      </g>
     </g>
    </g>
    <g id="ytick_10">
     <g id="line2d_69">
      <g>
       <use style="stroke:#000000;stroke-linecap:butt;stroke-width:0.5;" x="72.0" xlink:href="#mc8fcea1516" y="310.254545455"/>
      </g>
     </g>
     <g id="line2d_70">
      <g>
       <use style="stroke:#000000;stroke-linecap:butt;stroke-width:0.5;" x="518.4" xlink:href="#m0d5b0a6425" y="310.254545455"/>
      </g>
     </g>
     <g id="text_25">
      <!-- 0 -->
      <g transform="translate(61.953125 314.622357955)scale(0.12 -0.12)">
       <use xlink:href="#DejaVuSans-30"/>
      </g>
     </g>
    </g>
    <g id="ytick_11">
     <g id="line2d_71">
      <g>
       <use style="stroke:#000000;stroke-linecap:butt;stroke-width:0.5;" x="72.0" xlink:href="#mc8fcea1516" y="278.836363636"/>
      </g>
     </g>
     <g id="line2d_72">
      <g>
       <use style="stroke:#000000;stroke-linecap:butt;stroke-width:0.5;" x="518.4" xlink:href="#m0d5b0a6425" y="278.836363636"/>
      </g>
     </g>
     <g id="text_26">
      <!-- 20 -->
      <g transform="translate(54.40625 283.204176136)scale(0.12 -0.12)">
       <use xlink:href="#DejaVuSans-32"/>
       <use x="63.623046875" xlink:href="#DejaVuSans-30"/>
      </g>
     </g>
    </g>
    <g id="ytick_12">
     <g id="line2d_73">
      <g>
       <use style="stroke:#000000;stroke-linecap:butt;stroke-width:0.5;" x="72.0" xlink:href="#mc8fcea1516" y="247.418181818"/>
      </g>
     </g>
     <g id="line2d_74">
      <g>
       <use style="stroke:#000000;stroke-linecap:butt;stroke-width:0.5;" x="518.4" xlink:href="#m0d5b0a6425" y="247.418181818"/>
      </g>
     </g>
     <g id="text_27">
      <!-- 40 -->
      <g transform="translate(54.11375 251.785994318)scale(0.12 -0.12)">
       <use xlink:href="#DejaVuSans-34"/>
       <use x="63.623046875" xlink:href="#DejaVuSans-30"/>
      </g>
     </g>
    </g>
   </g>
   <g id="patch_8">
    <path d="
M72 231.709
L518.4 231.709" style="fill:none;stroke:#000000;"/>
   </g>
   <g id="patch_9">
    <path d="
M518.4 388.8
L518.4 231.709" style="fill:none;stroke:#000000;"/>
   </g>
   <g id="patch_10">
    <path d="
M72 388.8
L518.4 388.8" style="fill:none;stroke:#000000;"/>
   </g>
   <g id="patch_11">
    <path d="
M72 388.8
L72 231.709" style="fill:none;stroke:#000000;"/>
   </g>
  </g>
 </g>
 <defs>
  <clipPath id="p3af14643a6">
   <rect height="157.090909091" width="446.4" x="72.0" y="43.2"/>
  </clipPath>
  <clipPath id="p8d90287ba5">
   <rect height="157.090909091" width="446.4" x="72.0" y="231.709090909"/>
  </clipPath>
 </defs>
</svg>
