<?xml version="1.0" encoding="utf-8" standalone="no"?>
<!DOCTYPE svg PUBLIC "-//W3C//DTD SVG 1.1//EN"
  "http://www.w3.org/Graphics/SVG/1.1/DTD/svg11.dtd">
<!-- Created with matplotlib (http://matplotlib.org/) -->
<svg height="432pt" version="1.1" viewBox="0 0 576 432" width="576pt" xmlns="http://www.w3.org/2000/svg" xmlns:xlink="http://www.w3.org/1999/xlink">
 <defs>
  <style type="text/css">
*{stroke-linecap:square;stroke-linejoin:round;}
  </style>
 </defs>
 <g id="figure_1">
  <g id="patch_1">
   <path d="
M0 432
L576 432
L576 0
L0 0
z
" style="fill:#ffffff;"/>
  </g>
  <g id="axes_1">
   <g id="patch_2">
    <path d="
M72 200.291
L518.4 200.291
L518.4 43.2
L72 43.2
z
" style="fill:#ffffff;"/>
   </g>
   <g id="line2d_1">
    <path clip-path="url(#p3af14643a6)" d="
M89.0201 107.587
L99.7755 125.451
L110.535 140.755
L121.299 153.594
L132.051 164.059
L142.812 172.277
L153.559 178.348
L164.313 182.403
L175.059 184.56
L185.8 184.952
L196.538 183.712
L207.276 180.977
L218.001 176.896
L228.736 171.605
L239.453 165.272
L250.172 158.04
L260.89 150.073
L271.614 141.53
L282.335 132.586
L293.058 123.41
L303.79 114.178
L314.52 105.081
L325.263 96.2947
L336.005 88.0273
L346.76 80.4679
L357.525 73.8245
L368.289 68.3149
L379.067 64.1481
L389.855 61.551
L400.652 60.7535
L411.46 61.9916
L422.276 65.5073
L433.102 71.5491
L443.937 80.3705
L454.782 92.2329
L465.629 107.391" style="fill:none;stroke:#0000ff;"/>
   </g>
   <g id="line2d_2">
    <path clip-path="url(#p3af14643a6)" d="
M85.5634 99.9715
L96.4298 111.137
L107.295 121.706
L118.161 131.554
L129.036 140.576
L139.908 148.665
L150.778 155.74
L161.644 161.734
L172.516 166.603
L183.382 170.303
L194.248 172.816
L205.106 174.135
L215.965 174.271
L226.818 173.247
L237.668 171.104
L248.514 167.895
L259.357 163.688
L270.2 158.566
L281.043 152.627
L291.884 145.982
L302.725 138.76
L313.57 131.098
L324.42 123.153
L335.268 115.1
L346.129 107.117
L356.986 99.4169
L367.857 92.2065
L378.726 85.7285
L389.603 80.2259
L400.493 75.9632
L411.388 73.2253
L422.291 72.3101
L433.207 73.533
L444.127 77.2254
L455.057 83.7368
L465.994 93.4317" style="fill:none;stroke:#008000;"/>
   </g>
   <g id="line2d_3">
    <path clip-path="url(#p3af14643a6)" d="
M86.1179 90.8836
L97.0761 95.615
L108.037 101.247
L119.004 107.517
L129.979 114.183
L140.952 121.013
L151.929 127.804
L162.909 134.371
L173.894 140.549
L184.874 146.188
L195.855 151.164
L206.835 155.372
L217.815 158.728
L228.793 161.167
L239.768 162.644
L250.744 163.137
L261.717 162.641
L272.679 161.174
L283.651 158.77
L294.616 155.488
L305.586 151.401
L316.555 146.607
L327.519 141.224
L338.491 135.383
L349.456 129.248
L360.427 122.987
L371.403 116.8
L382.388 110.9
L393.367 105.535
L404.353 100.955
L415.348 97.4402
L426.348 95.2938
L437.352 94.8381
L448.371 96.4183
L459.383 100.396
L470.408 107.163" style="fill:none;stroke:#ff0000;"/>
   </g>
   <g id="line2d_4">
    <path clip-path="url(#p3af14643a6)" d="
M90.7075 81.0622
L101.755 85.8956
L112.805 90.8818
L123.865 95.9529
L134.929 101.038
L145.997 106.074
L157.077 111.007
L168.154 115.774
L179.229 120.327
L190.313 124.625
L201.402 128.624
L212.495 132.289
L223.579 135.583
L234.677 138.485
L245.771 140.968
L256.853 143.013
L267.947 144.61
L279.038 145.747
L290.133 146.422
L301.228 146.633
L312.32 146.385
L323.417 145.687
L334.502 144.555
L345.603 143.003
L356.696 141.058
L367.787 138.745
L378.88 136.097
L389.975 133.149
L401.079 129.941
L412.18 126.521
L423.282 122.938
L434.389 119.247
L445.498 115.506
L456.612 111.78
L467.73 108.137" style="fill:none;stroke:#00bfbf;"/>
   </g>
   <g id="line2d_5">
    <path clip-path="url(#p3af14643a6)" d="
M88.2206 95.1306
L99.348 96.5164
L110.487 97.7826
L121.628 98.9699
L132.773 100.117
L143.925 101.258
L155.082 102.423
L166.245 103.637
L177.411 104.922
L188.579 106.296
L199.766 107.774
L210.946 109.362
L222.129 111.066
L233.32 112.889
L244.515 114.825
L255.715 116.868
L266.912 119.004
L278.104 121.216
L289.32 123.491
L300.533 125.797
L311.744 128.105
L322.957 130.385
L334.169 132.596
L345.395 134.701
L356.603 136.646
L367.819 138.388
L379.05 139.87
L390.264 141.029
L401.487 141.807
L412.707 142.133
L423.928 141.937
L435.151 141.142
L446.373 139.667
L457.6 137.427
L468.824 134.334" style="fill:none;stroke:#bf00bf;"/>
   </g>
   <g id="line2d_6">
    <path clip-path="url(#p3af14643a6)" d="
M89.5236 137.751
L100.765 132.394
L111.984 127.51
L123.219 123.062
L134.454 119.041
L145.695 115.428
L156.937 112.21
L168.184 109.374
L179.436 106.909
L190.693 104.805
L201.955 103.053
L213.225 101.648
L224.496 100.585
L235.771 99.8603
L247.055 99.4721
L258.347 99.4204
L269.638 99.7066
L280.937 100.334
L292.246 101.307
L303.551 102.631
L314.87 104.316
L326.196 106.371
L337.524 108.805
L348.847 111.63
L360.178 114.863
L371.517 118.519
L382.859 122.616
L394.199 127.17
L405.543 132.203
L416.896 137.741
L428.236 143.796
L439.586 150.406
L450.929 157.588
L462.273 165.375" style="fill:none;stroke:#bfbf00;"/>
   </g>
   <g id="line2d_7">
    <path clip-path="url(#p3af14643a6)" d="
M83.2185 148.827
L94.5596 150.836
L105.904 151.296
L117.242 150.42
L128.591 148.405
L139.925 145.447
L151.265 141.722
L162.608 137.403
L173.949 132.651
L185.298 127.614
L196.644 122.437
L207.993 117.251
L219.35 112.174
L230.709 107.323
L242.074 102.797
L253.438 98.6932
L264.816 95.089
L276.197 92.0625
L287.583 89.6766
L298.979 87.9847
L310.379 87.0325
L321.788 86.854
L333.204 87.4741
L344.629 88.9078
L356.058 91.1587
L367.494 94.2217
L378.936 98.0802
L390.384 102.708
L401.837 108.068
L413.294 114.113
L424.753 120.783
L436.223 128.016
L447.681 135.718
L459.145 143.811
L470.612 152.194" style="fill:none;stroke:#000000;"/>
   </g>
   <g id="line2d_8">
    <path clip-path="url(#p3af14643a6)" d="
M91.8061 144.988
L103.271 151.517
L114.732 156.133
L126.192 159.01
L137.654 160.313
L149.111 160.207
L160.565 158.851
L172.018 156.4
L183.475 153.005
L194.923 148.818
L206.378 143.978
L217.832 138.629
L229.282 132.909
L240.748 126.942
L252.197 120.876
L263.657 114.82
L275.127 108.901
L286.593 103.244
L298.069 97.9592
L309.554 93.1603
L321.042 88.9605
L332.537 85.4645
L344.045 82.7749
L355.554 80.9951
L367.074 80.2202
L378.599 80.5449
L390.133 82.0595
L401.679 84.8529
L413.227 89.0065
L424.783 94.6014
L436.345 101.715
L447.914 110.418
L459.483 120.777
L471.057 132.859" style="fill:none;stroke:#0000ff;"/>
   </g>
   <g id="line2d_9">
    <path clip-path="url(#p3af14643a6)" d="
M92.4859 123.041
L104.064 132.419
L115.643 140.371
L127.226 146.935
L138.81 152.15
L150.387 156.062
L161.96 158.727
L173.53 160.206
L185.108 160.565
L196.682 159.874
L208.251 158.212
L219.819 155.662
L231.39 152.312
L242.953 148.258
L254.518 143.6
L266.088 138.44
L277.653 132.896
L289.222 127.081
L300.794 121.12
L312.371 115.14
L323.956 109.276
L335.535 103.677
L347.122 98.4835
L358.726 93.8473
L370.323 89.9386
L381.935 86.9167
L393.549 84.9598
L405.178 84.2466
L416.808 84.9657
L428.446 87.3107
L440.093 91.4828
L451.746 97.6886
L463.403 106.141" style="fill:none;stroke:#008000;"/>
   </g>
   <g id="line2d_10">
    <path clip-path="url(#p3af14643a6)" d="
M85.0184 110.797
L96.691 113.363
L108.377 116.751
L120.049 120.704
L131.734 125.005
L143.424 129.444
L155.111 133.831
L166.799 138.002
L178.489 141.813
L190.181 145.138
L201.87 147.874
L213.562 149.938
L225.249 151.267
L236.932 151.821
L248.62 151.579
L260.309 150.542
L271.992 148.731
L283.674 146.188
L295.359 142.974
L307.045 139.172
L318.731 134.887
L330.418 130.242
L342.117 125.378
L353.805 120.471
L365.499 115.701
L377.203 111.274
L388.904 107.426
L400.611 104.402
L412.326 102.477
L424.044 101.945
L435.768 103.121
L447.5 106.345
L459.239 111.977
L470.974 120.392" style="fill:none;stroke:#ff0000;"/>
   </g>
   <g id="line2d_11">
    <path clip-path="url(#p3af14643a6)" d="
M92.7589 101.642
L104.515 102.234
L116.28 103.56
L128.047 105.476
L139.817 107.849
L151.595 110.556
L163.374 113.481
L175.156 116.521
L186.948 119.583
L198.74 122.578
L210.533 125.432
L222.334 128.081
L234.126 130.466
L245.925 132.544
L257.724 134.278
L269.532 135.644
L281.33 136.623
L293.129 137.21
L304.938 137.411
L316.743 137.237
L328.548 136.713
L340.362 135.873
L352.167 134.761
L363.975 133.43
L375.788 131.943
L387.601 130.376
L399.416 128.811
L411.235 127.342
L423.051 126.074
L434.881 125.119
L446.699 124.603
L458.523 124.66
L470.355 125.434" style="fill:none;stroke:#00bfbf;"/>
   </g>
   <g id="line2d_12">
    <path clip-path="url(#p3af14643a6)" d="
M92.3143 116.31
L104.15 114.812
L115.993 113.433
L127.838 112.188
L139.694 111.091
L151.545 110.157
L163.41 109.394
L175.272 108.813
L187.135 108.422
L199.011 108.226
L210.892 108.229
L222.771 108.434
L234.659 108.842
L246.545 109.451
L258.442 110.26
L270.346 111.264
L282.248 112.455
L294.154 113.827
L306.065 115.37
L317.988 117.074
L329.904 118.922
L341.822 120.902
L353.752 122.997
L365.674 125.186
L377.604 127.451
L389.539 129.77
L401.468 132.117
L413.399 134.468
L425.337 136.796
L437.279 139.071
L449.212 141.261
L461.15 143.334
L473.087 145.257" style="fill:none;stroke:#bf00bf;"/>
   </g>
   <g id="line2d_13">
    <path clip-path="url(#p3af14643a6)" d="
M95.2716 163.512
L107.198 154.205
L119.137 146.209
L131.078 139.352
L143.021 133.473
L154.956 128.428
L166.902 124.074
L178.852 120.299
L190.809 116.997
L202.76 114.084
L214.713 111.485
L226.676 109.139
L238.637 107.005
L250.61 105.054
L262.583 103.273
L274.57 101.663
L286.553 100.244
L298.548 99.0461
L310.548 98.118
L322.552 97.5234
L334.562 97.3409
L346.58 97.6652
L358.602 98.6063
L370.634 100.291
L382.669 102.86
L394.705 106.469
L406.747 111.294
L418.797 117.525
L430.841 125.357
L442.897 135.023
L454.95 146.748
L467.001 160.782" style="fill:none;stroke:#bfbf00;"/>
   </g>
   <g id="line2d_14">
    <path clip-path="url(#p3af14643a6)" d="
M89.4182 143.044
L101.473 146.635
L113.526 149.088
L125.584 150.485
L137.633 150.908
L149.679 150.441
L161.731 149.167
L173.78 147.173
L185.827 144.544
L197.881 141.365
L209.935 137.725
L221.981 133.716
L234.035 129.421
L246.096 124.933
L258.148 120.347
L270.206 115.752
L282.27 111.24
L294.344 106.905
L306.416 102.846
L318.495 99.1591
L330.591 95.9386
L342.673 93.2919
L354.774 91.3122
L366.88 90.105
L378.999 89.7732
L391.115 90.4218
L403.241 92.1566
L415.376 95.0855
L427.512 99.3148
L439.66 104.958
L451.809 112.121
L463.962 120.917" style="fill:none;stroke:#000000;"/>
   </g>
   <g id="line2d_15">
    <path clip-path="url(#p3af14643a6)" d="
M86.593 119.526
L98.7515 125.845
L110.916 131.518
L123.082 136.49
L135.246 140.72
L147.411 144.18
L159.572 146.848
L171.744 148.719
L183.905 149.79
L196.07 150.074
L208.227 149.595
L220.391 148.384
L232.552 146.485
L244.719 143.949
L256.878 140.844
L269.036 137.242
L281.199 133.226
L293.362 128.892
L305.528 124.345
L317.701 119.698
L329.873 115.082
L342.051 110.63
L354.232 106.492
L366.42 102.825
L378.615 99.7981
L390.807 97.5946
L403.017 96.4029
L415.226 96.4279
L427.441 97.883
L439.662 100.993
L451.892 105.996
L464.124 113.137" style="fill:none;stroke:#0000ff;"/>
   </g>
   <g id="line2d_16">
    <path clip-path="url(#p3af14643a6)" d="
M86.9259 99.4775
L99.1745 105.62
L111.425 111.089
L123.679 115.923
L135.937 120.158
L148.208 123.831
L160.466 126.969
L172.733 129.61
L185.006 131.784
L197.272 133.521
L209.544 134.851
L221.817 135.801
L234.092 136.399
L246.364 136.669
L258.641 136.638
L270.916 136.328
L283.193 135.76
L295.473 134.957
L307.746 133.938
L320.025 132.722
L332.308 131.324
L344.596 129.762
L356.89 128.049
L369.17 126.204
L381.462 124.233
L393.757 122.15
L406.049 119.967
L418.351 117.688
L430.653 115.326
L442.961 112.883
L455.27 110.367
L467.587 107.78" style="fill:none;stroke:#008000;"/>
   </g>
   <g id="line2d_17">
    <path clip-path="url(#p3af14643a6)" d="
M90.5445 115.625
L102.874 114.656
L115.199 113.928
L127.536 113.414
L139.869 113.091
L152.206 112.938
L164.547 112.935
L176.901 113.064
L189.251 113.308
L201.606 113.654
L213.974 114.09
L226.334 114.606
L238.698 115.192
L251.068 115.844
L263.444 116.556
L275.821 117.326
L288.214 118.155
L300.596 119.042
L312.98 119.992
L325.371 121.01
L337.765 122.103
L350.164 123.282
L362.564 124.557
L374.965 125.942
L387.372 127.452
L399.777 129.105
L412.185 130.919
L424.595 132.916
L437.006 135.12
L449.42 137.557
L461.831 140.251" style="fill:none;stroke:#ff0000;"/>
   </g>
   <g id="line2d_18">
    <path clip-path="url(#p3af14643a6)" d="
M84.9914 136.169
L97.4078 135.849
L109.822 134.96
L122.239 133.583
L134.658 131.797
L147.08 129.677
L159.505 127.296
L171.93 124.725
L184.357 122.033
L196.785 119.285
L209.22 116.543
L221.66 113.868
L234.103 111.316
L246.545 108.946
L259.002 106.806
L271.459 104.949
L283.915 103.423
L296.385 102.271
L308.858 101.536
L321.333 101.258
L333.818 101.475
L346.307 102.221
L358.803 103.528
L371.302 105.424
L383.809 107.939
L396.316 111.093
L408.83 114.909
L421.355 119.409
L433.867 124.597
L446.388 130.496
L458.913 137.113
L471.437 144.454" style="fill:none;stroke:#00bfbf;"/>
   </g>
   <g id="line2d_19">
    <path clip-path="url(#p3af14643a6)" d="
M94.8287 149.548
L107.36 149.853
L119.879 149.631
L132.408 148.908
L144.931 147.716
L157.452 146.087
L169.978 144.058
L182.501 141.666
L195.028 138.951
L207.553 135.958
L220.08 132.731
L232.606 129.32
L245.134 125.774
L257.668 122.148
L270.201 118.497
L282.745 114.879
L295.284 111.358
L307.833 107.996
L320.384 104.86
L332.942 102.021
L345.51 99.5486
L358.076 97.522
L370.656 96.0164
L383.238 95.1145
L395.827 94.8997
L408.423 95.4589
L421.024 96.8819
L433.631 99.2608
L446.244 102.691
L458.866 107.273
L471.488 113.104" style="fill:none;stroke:#bf00bf;"/>
   </g>
   <g id="line2d_20">
    <path clip-path="url(#p3af14643a6)" d="
M95.0771 102.979
L107.704 114.548
L120.336 123.884
L132.967 131.215
L145.601 136.764
L158.23 140.74
L170.87 143.343
L183.501 144.756
L196.139 145.152
L208.77 144.695
L221.409 143.53
L234.043 141.797
L246.675 139.62
L259.304 137.11
L271.943 134.366
L284.581 131.476
L297.221 128.516
L309.855 125.551
L322.508 122.626
L335.154 119.785
L347.804 117.053
L360.456 114.444
L373.112 111.96
L385.78 109.589
L398.442 107.311
L411.118 105.087
L423.795 102.872
L436.478 100.606
L449.165 98.2146
L461.862 95.6121" style="fill:none;stroke:#bfbf00;"/>
   </g>
   <g id="line2d_21">
    <path clip-path="url(#p3af14643a6)" d="
M85.6104 119.911
L98.3157 117.782
L111.029 116.677
L123.737 116.411
L136.453 116.81
L149.173 117.718
L161.893 118.989
L174.625 120.495
L187.357 122.118
L200.084 123.756
L212.825 125.323
L225.562 126.745
L238.298 127.963
L251.038 128.933
L263.78 129.625
L276.532 130.023
L289.272 130.125
L302.022 129.944
L314.775 129.51
L327.525 128.862
L340.279 128.059
L353.039 127.171
L365.796 126.284
L378.557 125.498
L391.318 124.928
L404.094 124.704
L416.857 124.971
L429.629 125.886
L442.401 127.623
L455.175 130.372
L467.954 134.335" style="fill:none;stroke:#000000;"/>
   </g>
   <g id="line2d_22">
    <path clip-path="url(#p3af14643a6)" d="
M91.8746 131.03
L104.658 128.575
L117.447 126.315
L130.24 124.232
L143.029 122.313
L155.827 120.543
L168.623 118.914
L181.425 117.419
L194.234 116.053
L207.044 114.816
L219.857 113.71
L232.676 112.741
L245.497 111.915
L258.324 111.245
L271.155 110.742
L283.992 110.425
L296.832 110.313
L309.673 110.429
L322.522 110.797
L335.375 111.448
L348.235 112.411
L361.096 113.723
L373.962 115.42
L386.835 117.544
L399.705 120.135
L412.58 123.244
L425.458 126.918
L438.338 131.209
L451.221 136.174
L464.103 141.87" style="fill:none;stroke:#0000ff;"/>
   </g>
   <g id="matplotlib.axis_1">
    <g id="xtick_1">
     <g id="line2d_23">
      <defs>
       <path d="
M0 0
L0 -4" id="mcb557df647" style="stroke:#000000;stroke-linecap:butt;stroke-width:0.5;"/>
      </defs>
      <g>
       <use style="stroke:#000000;stroke-linecap:butt;stroke-width:0.5;" x="72.0" xlink:href="#mcb557df647" y="200.290909091"/>
      </g>
     </g>
     <g id="line2d_24">
      <defs>
       <path d="
M0 0
L0 4" id="mdad270ee8e" style="stroke:#000000;stroke-linecap:butt;stroke-width:0.5;"/>
      </defs>
      <g>
       <use style="stroke:#000000;stroke-linecap:butt;stroke-width:0.5;" x="72.0" xlink:href="#mdad270ee8e" y="43.2"/>
      </g>
     </g>
     <g id="text_1">
      <!-- 0 -->
      <defs>
       <path d="
M31.7812 66.4062
Q24.1719 66.4062 20.3281 58.9062
Q16.5 51.4219 16.5 36.375
Q16.5 21.3906 20.3281 13.8906
Q24.1719 6.39062 31.7812 6.39062
Q39.4531 6.39062 43.2812 13.8906
Q47.125 21.3906 47.125 36.375
Q47.125 51.4219 43.2812 58.9062
Q39.4531 66.4062 31.7812 66.4062
M31.7812 74.2188
Q44.0469 74.2188 50.5156 64.5156
Q56.9844 54.8281 56.9844 36.375
Q56.9844 17.9688 50.5156 8.26562
Q44.0469 -1.42188 31.7812 -1.42188
Q19.5312 -1.42188 13.0625 8.26562
Q6.59375 17.9688 6.59375 36.375
Q6.59375 54.8281 13.0625 64.5156
Q19.5312 74.2188 31.7812 74.2188" id="DejaVuSans-30"/>
      </defs>
      <g transform="translate(68.9765625 213.197159091)scale(0.12 -0.12)">
       <use xlink:href="#DejaVuSans-30"/>
      </g>
     </g>
    </g>
    <g id="xtick_2">
     <g id="line2d_25">
      <g>
       <use style="stroke:#000000;stroke-linecap:butt;stroke-width:0.5;" x="127.8" xlink:href="#mcb557df647" y="200.290909091"/>
      </g>
     </g>
     <g id="line2d_26">
      <g>
       <use style="stroke:#000000;stroke-linecap:butt;stroke-width:0.5;" x="127.8" xlink:href="#mdad270ee8e" y="43.2"/>
      </g>
     </g>
     <g id="text_2">
      <!-- 50 -->
      <defs>
       <path d="
M10.7969 72.9062
L49.5156 72.9062
L49.5156 64.5938
L19.8281 64.5938
L19.8281 46.7344
Q21.9688 47.4688 24.1094 47.8281
Q26.2656 48.1875 28.4219 48.1875
Q40.625 48.1875 47.75 41.5
Q54.8906 34.8125 54.8906 23.3906
Q54.8906 11.625 47.5625 5.09375
Q40.2344 -1.42188 26.9062 -1.42188
Q22.3125 -1.42188 17.5469 -0.640625
Q12.7969 0.140625 7.71875 1.70312
L7.71875 11.625
Q12.1094 9.23438 16.7969 8.0625
Q21.4844 6.89062 26.7031 6.89062
Q35.1562 6.89062 40.0781 11.3281
Q45.0156 15.7656 45.0156 23.3906
Q45.0156 31 40.0781 35.4375
Q35.1562 39.8906 26.7031 39.8906
Q22.75 39.8906 18.8125 39.0156
Q14.8906 38.1406 10.7969 36.2812
z
" id="DejaVuSans-35"/>
      </defs>
      <g transform="translate(121.0265625 213.197159091)scale(0.12 -0.12)">
       <use xlink:href="#DejaVuSans-35"/>
       <use x="63.623046875" xlink:href="#DejaVuSans-30"/>
      </g>
     </g>
    </g>
    <g id="xtick_3">
     <g id="line2d_27">
      <g>
       <use style="stroke:#000000;stroke-linecap:butt;stroke-width:0.5;" x="183.6" xlink:href="#mcb557df647" y="200.290909091"/>
      </g>
     </g>
     <g id="line2d_28">
      <g>
       <use style="stroke:#000000;stroke-linecap:butt;stroke-width:0.5;" x="183.6" xlink:href="#mdad270ee8e" y="43.2"/>
      </g>
     </g>
     <g id="text_3">
      <!-- 100 -->
      <defs>
       <path d="
M12.4062 8.29688
L28.5156 8.29688
L28.5156 63.9219
L10.9844 60.4062
L10.9844 69.3906
L28.4219 72.9062
L38.2812 72.9062
L38.2812 8.29688
L54.3906 8.29688
L54.3906 0
L12.4062 0
z
" id="DejaVuSans-31"/>
      </defs>
      <g transform="translate(173.205 213.197159091)scale(0.12 -0.12)">
       <use xlink:href="#DejaVuSans-31"/>
       <use x="63.623046875" xlink:href="#DejaVuSans-30"/>
       <use x="127.24609375" xlink:href="#DejaVuSans-30"/>
      </g>
     </g>
    </g>
    <g id="xtick_4">
     <g id="line2d_29">
      <g>
       <use style="stroke:#000000;stroke-linecap:butt;stroke-width:0.5;" x="239.4" xlink:href="#mcb557df647" y="200.290909091"/>
      </g>
     </g>
     <g id="line2d_30">
      <g>
       <use style="stroke:#000000;stroke-linecap:butt;stroke-width:0.5;" x="239.4" xlink:href="#mdad270ee8e" y="43.2"/>
      </g>
     </g>
     <g id="text_4">
      <!-- 150 -->
      <g transform="translate(229.005 213.197159091)scale(0.12 -0.12)">
       <use xlink:href="#DejaVuSans-31"/>
       <use x="63.623046875" xlink:href="#DejaVuSans-35"/>
       <use x="127.24609375" xlink:href="#DejaVuSans-30"/>
      </g>
     </g>
    </g>
    <g id="xtick_5">
     <g id="line2d_31">
      <g>
       <use style="stroke:#000000;stroke-linecap:butt;stroke-width:0.5;" x="295.2" xlink:href="#mcb557df647" y="200.290909091"/>
      </g>
     </g>
     <g id="line2d_32">
      <g>
       <use style="stroke:#000000;stroke-linecap:butt;stroke-width:0.5;" x="295.2" xlink:href="#mdad270ee8e" y="43.2"/>
      </g>
     </g>
     <g id="text_5">
      <!-- 200 -->
      <defs>
       <path d="
M19.1875 8.29688
L53.6094 8.29688
L53.6094 0
L7.32812 0
L7.32812 8.29688
Q12.9375 14.1094 22.625 23.8906
Q32.3281 33.6875 34.8125 36.5312
Q39.5469 41.8438 41.4219 45.5312
Q43.3125 49.2188 43.3125 52.7812
Q43.3125 58.5938 39.2344 62.25
Q35.1562 65.9219 28.6094 65.9219
Q23.9688 65.9219 18.8125 64.3125
Q13.6719 62.7031 7.8125 59.4219
L7.8125 69.3906
Q13.7656 71.7812 18.9375 73
Q24.125 74.2188 28.4219 74.2188
Q39.75 74.2188 46.4844 68.5469
Q53.2188 62.8906 53.2188 53.4219
Q53.2188 48.9219 51.5312 44.8906
Q49.8594 40.875 45.4062 35.4062
Q44.1875 33.9844 37.6406 27.2188
Q31.1094 20.4531 19.1875 8.29688" id="DejaVuSans-32"/>
      </defs>
      <g transform="translate(284.585625 213.197159091)scale(0.12 -0.12)">
       <use xlink:href="#DejaVuSans-32"/>
       <use x="63.623046875" xlink:href="#DejaVuSans-30"/>
       <use x="127.24609375" xlink:href="#DejaVuSans-30"/>
      </g>
     </g>
    </g>
    <g id="xtick_6">
     <g id="line2d_33">
      <g>
       <use style="stroke:#000000;stroke-linecap:butt;stroke-width:0.5;" x="351.0" xlink:href="#mcb557df647" y="200.290909091"/>
      </g>
     </g>
     <g id="line2d_34">
      <g>
       <use style="stroke:#000000;stroke-linecap:butt;stroke-width:0.5;" x="351.0" xlink:href="#mdad270ee8e" y="43.2"/>
      </g>
     </g>
     <g id="text_6">
      <!-- 250 -->
      <g transform="translate(340.385625 213.197159091)scale(0.12 -0.12)">
       <use xlink:href="#DejaVuSans-32"/>
       <use x="63.623046875" xlink:href="#DejaVuSans-35"/>
       <use x="127.24609375" xlink:href="#DejaVuSans-30"/>
      </g>
     </g>
    </g>
    <g id="xtick_7">
     <g id="line2d_35">
      <g>
       <use style="stroke:#000000;stroke-linecap:butt;stroke-width:0.5;" x="406.8" xlink:href="#mcb557df647" y="200.290909091"/>
      </g>
     </g>
     <g id="line2d_36">
      <g>
       <use style="stroke:#000000;stroke-linecap:butt;stroke-width:0.5;" x="406.8" xlink:href="#mdad270ee8e" y="43.2"/>
      </g>
     </g>
     <g id="text_7">
      <!-- 300 -->
      <defs>
       <path d="
M40.5781 39.3125
Q47.6562 37.7969 51.625 33
Q55.6094 28.2188 55.6094 21.1875
Q55.6094 10.4062 48.1875 4.48438
Q40.7656 -1.42188 27.0938 -1.42188
Q22.5156 -1.42188 17.6562 -0.515625
Q12.7969 0.390625 7.625 2.20312
L7.625 11.7188
Q11.7188 9.32812 16.5938 8.10938
Q21.4844 6.89062 26.8125 6.89062
Q36.0781 6.89062 40.9375 10.5469
Q45.7969 14.2031 45.7969 21.1875
Q45.7969 27.6406 41.2812 31.2656
Q36.7656 34.9062 28.7188 34.9062
L20.2188 34.9062
L20.2188 43.0156
L29.1094 43.0156
Q36.375 43.0156 40.2344 45.9219
Q44.0938 48.8281 44.0938 54.2969
Q44.0938 59.9062 40.1094 62.9062
Q36.1406 65.9219 28.7188 65.9219
Q24.6562 65.9219 20.0156 65.0312
Q15.375 64.1562 9.8125 62.3125
L9.8125 71.0938
Q15.4375 72.6562 20.3438 73.4375
Q25.25 74.2188 29.5938 74.2188
Q40.8281 74.2188 47.3594 69.1094
Q53.9062 64.0156 53.9062 55.3281
Q53.9062 49.2656 50.4375 45.0938
Q46.9688 40.9219 40.5781 39.3125" id="DejaVuSans-33"/>
      </defs>
      <g transform="translate(396.2034375 213.197159091)scale(0.12 -0.12)">
       <use xlink:href="#DejaVuSans-33"/>
       <use x="63.623046875" xlink:href="#DejaVuSans-30"/>
       <use x="127.24609375" xlink:href="#DejaVuSans-30"/>
      </g>
     </g>
    </g>
    <g id="xtick_8">
     <g id="line2d_37">
      <g>
       <use style="stroke:#000000;stroke-linecap:butt;stroke-width:0.5;" x="462.6" xlink:href="#mcb557df647" y="200.290909091"/>
      </g>
     </g>
     <g id="line2d_38">
      <g>
       <use style="stroke:#000000;stroke-linecap:butt;stroke-width:0.5;" x="462.6" xlink:href="#mdad270ee8e" y="43.2"/>
      </g>
     </g>
     <g id="text_8">
      <!-- 350 -->
      <g transform="translate(452.0034375 213.197159091)scale(0.12 -0.12)">
       <use xlink:href="#DejaVuSans-33"/>
       <use x="63.623046875" xlink:href="#DejaVuSans-35"/>
       <use x="127.24609375" xlink:href="#DejaVuSans-30"/>
      </g>
     </g>
    </g>
    <g id="xtick_9">
     <g id="line2d_39">
      <g>
       <use style="stroke:#000000;stroke-linecap:butt;stroke-width:0.5;" x="518.4" xlink:href="#mcb557df647" y="200.290909091"/>
      </g>
     </g>
     <g id="line2d_40">
      <g>
       <use style="stroke:#000000;stroke-linecap:butt;stroke-width:0.5;" x="518.4" xlink:href="#mdad270ee8e" y="43.2"/>
      </g>
     </g>
     <g id="text_9">
      <!-- 400 -->
      <defs>
       <path d="
M37.7969 64.3125
L12.8906 25.3906
L37.7969 25.3906
z

M35.2031 72.9062
L47.6094 72.9062
L47.6094 25.3906
L58.0156 25.3906
L58.0156 17.1875
L47.6094 17.1875
L47.6094 0
L37.7969 0
L37.7969 17.1875
L4.89062 17.1875
L4.89062 26.7031
z
" id="DejaVuSans-34"/>
      </defs>
      <g transform="translate(507.639375 213.197159091)scale(0.12 -0.12)">
       <use xlink:href="#DejaVuSans-34"/>
       <use x="63.623046875" xlink:href="#DejaVuSans-30"/>
       <use x="127.24609375" xlink:href="#DejaVuSans-30"/>
      </g>
     </g>
    </g>
   </g>
   <g id="matplotlib.axis_2">
    <g id="ytick_1">
     <g id="line2d_41">
      <defs>
       <path d="
M0 0
L4 0" id="mc8fcea1516" style="stroke:#000000;stroke-linecap:butt;stroke-width:0.5;"/>
      </defs>
      <g>
       <use style="stroke:#000000;stroke-linecap:butt;stroke-width:0.5;" x="72.0" xlink:href="#mc8fcea1516" y="200.290909091"/>
      </g>
     </g>
     <g id="line2d_42">
      <defs>
       <path d="
M0 0
L-4 0" id="m0d5b0a6425" style="stroke:#000000;stroke-linecap:butt;stroke-width:0.5;"/>
      </defs>
      <g>
       <use style="stroke:#000000;stroke-linecap:butt;stroke-width:0.5;" x="518.4" xlink:href="#m0d5b0a6425" y="200.290909091"/>
      </g>
     </g>
     <g id="text_10">
      <!-- −0.0020 -->
      <defs>
       <path d="
M10.6875 12.4062
L21 12.4062
L21 0
L10.6875 0
z
" id="DejaVuSans-2e"/>
       <path d="
M10.5938 35.5
L73.1875 35.5
L73.1875 27.2031
L10.5938 27.2031
z
" id="DejaVuSans-2212"/>
      </defs>
      <g transform="translate(18.02375 204.658721591)scale(0.12 -0.12)">
       <use xlink:href="#DejaVuSans-2212"/>
       <use x="83.7890625" xlink:href="#DejaVuSans-30"/>
       <use x="147.412109375" xlink:href="#DejaVuSans-2e"/>
       <use x="179.19921875" xlink:href="#DejaVuSans-30"/>
       <use x="242.822265625" xlink:href="#DejaVuSans-30"/>
       <use x="306.4453125" xlink:href="#DejaVuSans-32"/>
       <use x="370.068359375" xlink:href="#DejaVuSans-30"/>
      </g>
     </g>
    </g>
    <g id="ytick_2">
     <g id="line2d_43">
      <g>
       <use style="stroke:#000000;stroke-linecap:butt;stroke-width:0.5;" x="72.0" xlink:href="#mc8fcea1516" y="180.654545455"/>
      </g>
     </g>
     <g id="line2d_44">
      <g>
       <use style="stroke:#000000;stroke-linecap:butt;stroke-width:0.5;" x="518.4" xlink:href="#m0d5b0a6425" y="180.654545455"/>
      </g>
     </g>
     <g id="text_11">
      <!-- −0.0015 -->
      <g transform="translate(18.275 185.022357955)scale(0.12 -0.12)">
       <use xlink:href="#DejaVuSans-2212"/>
       <use x="83.7890625" xlink:href="#DejaVuSans-30"/>
       <use x="147.412109375" xlink:href="#DejaVuSans-2e"/>
       <use x="179.19921875" xlink:href="#DejaVuSans-30"/>
       <use x="242.822265625" xlink:href="#DejaVuSans-30"/>
       <use x="306.4453125" xlink:href="#DejaVuSans-31"/>
       <use x="370.068359375" xlink:href="#DejaVuSans-35"/>
      </g>
     </g>
    </g>
    <g id="ytick_3">
     <g id="line2d_45">
      <g>
       <use style="stroke:#000000;stroke-linecap:butt;stroke-width:0.5;" x="72.0" xlink:href="#mc8fcea1516" y="161.018181818"/>
      </g>
     </g>
     <g id="line2d_46">
      <g>
       <use style="stroke:#000000;stroke-linecap:butt;stroke-width:0.5;" x="518.4" xlink:href="#m0d5b0a6425" y="161.018181818"/>
      </g>
     </g>
     <g id="text_12">
      <!-- −0.0010 -->
      <g transform="translate(18.02375 165.385994318)scale(0.12 -0.12)">
       <use xlink:href="#DejaVuSans-2212"/>
       <use x="83.7890625" xlink:href="#DejaVuSans-30"/>
       <use x="147.412109375" xlink:href="#DejaVuSans-2e"/>
       <use x="179.19921875" xlink:href="#DejaVuSans-30"/>
       <use x="242.822265625" xlink:href="#DejaVuSans-30"/>
       <use x="306.4453125" xlink:href="#DejaVuSans-31"/>
       <use x="370.068359375" xlink:href="#DejaVuSans-30"/>
      </g>
     </g>
    </g>
    <g id="ytick_4">
     <g id="line2d_47">
      <g>
       <use style="stroke:#000000;stroke-linecap:butt;stroke-width:0.5;" x="72.0" xlink:href="#mc8fcea1516" y="141.381818182"/>
      </g>
     </g>
     <g id="line2d_48">
      <g>
       <use style="stroke:#000000;stroke-linecap:butt;stroke-width:0.5;" x="518.4" xlink:href="#m0d5b0a6425" y="141.381818182"/>
      </g>
     </g>
     <g id="text_13">
      <!-- −0.0005 -->
      <g transform="translate(18.275 145.749630682)scale(0.12 -0.12)">
       <use xlink:href="#DejaVuSans-2212"/>
       <use x="83.7890625" xlink:href="#DejaVuSans-30"/>
       <use x="147.412109375" xlink:href="#DejaVuSans-2e"/>
       <use x="179.19921875" xlink:href="#DejaVuSans-30"/>
       <use x="242.822265625" xlink:href="#DejaVuSans-30"/>
       <use x="306.4453125" xlink:href="#DejaVuSans-30"/>
       <use x="370.068359375" xlink:href="#DejaVuSans-35"/>
      </g>
     </g>
    </g>
    <g id="ytick_5">
     <g id="line2d_49">
      <g>
       <use style="stroke:#000000;stroke-linecap:butt;stroke-width:0.5;" x="72.0" xlink:href="#mc8fcea1516" y="121.745454545"/>
      </g>
     </g>
     <g id="line2d_50">
      <g>
       <use style="stroke:#000000;stroke-linecap:butt;stroke-width:0.5;" x="518.4" xlink:href="#m0d5b0a6425" y="121.745454545"/>
      </g>
     </g>
     <g id="text_14">
      <!-- 0.0000 -->
      <g transform="translate(27.599375 126.113267045)scale(0.12 -0.12)">
       <use xlink:href="#DejaVuSans-30"/>
       <use x="63.623046875" xlink:href="#DejaVuSans-2e"/>
       <use x="95.41015625" xlink:href="#DejaVuSans-30"/>
       <use x="159.033203125" xlink:href="#DejaVuSans-30"/>
       <use x="222.65625" xlink:href="#DejaVuSans-30"/>
       <use x="286.279296875" xlink:href="#DejaVuSans-30"/>
      </g>
     </g>
    </g>
    <g id="ytick_6">
     <g id="line2d_51">
      <g>
       <use style="stroke:#000000;stroke-linecap:butt;stroke-width:0.5;" x="72.0" xlink:href="#mc8fcea1516" y="102.109090909"/>
      </g>
     </g>
     <g id="line2d_52">
      <g>
       <use style="stroke:#000000;stroke-linecap:butt;stroke-width:0.5;" x="518.4" xlink:href="#m0d5b0a6425" y="102.109090909"/>
      </g>
     </g>
     <g id="text_15">
      <!-- 0.0005 -->
      <g transform="translate(27.850625 106.476903409)scale(0.12 -0.12)">
       <use xlink:href="#DejaVuSans-30"/>
       <use x="63.623046875" xlink:href="#DejaVuSans-2e"/>
       <use x="95.41015625" xlink:href="#DejaVuSans-30"/>
       <use x="159.033203125" xlink:href="#DejaVuSans-30"/>
       <use x="222.65625" xlink:href="#DejaVuSans-30"/>
       <use x="286.279296875" xlink:href="#DejaVuSans-35"/>
      </g>
     </g>
    </g>
    <g id="ytick_7">
     <g id="line2d_53">
      <g>
       <use style="stroke:#000000;stroke-linecap:butt;stroke-width:0.5;" x="72.0" xlink:href="#mc8fcea1516" y="82.4727272727"/>
      </g>
     </g>
     <g id="line2d_54">
      <g>
       <use style="stroke:#000000;stroke-linecap:butt;stroke-width:0.5;" x="518.4" xlink:href="#m0d5b0a6425" y="82.4727272727"/>
      </g>
     </g>
     <g id="text_16">
      <!-- 0.0010 -->
      <g transform="translate(27.599375 86.8405397727)scale(0.12 -0.12)">
       <use xlink:href="#DejaVuSans-30"/>
       <use x="63.623046875" xlink:href="#DejaVuSans-2e"/>
       <use x="95.41015625" xlink:href="#DejaVuSans-30"/>
       <use x="159.033203125" xlink:href="#DejaVuSans-30"/>
       <use x="222.65625" xlink:href="#DejaVuSans-31"/>
       <use x="286.279296875" xlink:href="#DejaVuSans-30"/>
      </g>
     </g>
    </g>
    <g id="ytick_8">
     <g id="line2d_55">
      <g>
       <use style="stroke:#000000;stroke-linecap:butt;stroke-width:0.5;" x="72.0" xlink:href="#mc8fcea1516" y="62.8363636364"/>
      </g>
     </g>
     <g id="line2d_56">
      <g>
       <use style="stroke:#000000;stroke-linecap:butt;stroke-width:0.5;" x="518.4" xlink:href="#m0d5b0a6425" y="62.8363636364"/>
      </g>
     </g>
     <g id="text_17">
      <!-- 0.0015 -->
      <g transform="translate(27.850625 67.2041761364)scale(0.12 -0.12)">
       <use xlink:href="#DejaVuSans-30"/>
       <use x="63.623046875" xlink:href="#DejaVuSans-2e"/>
       <use x="95.41015625" xlink:href="#DejaVuSans-30"/>
       <use x="159.033203125" xlink:href="#DejaVuSans-30"/>
       <use x="222.65625" xlink:href="#DejaVuSans-31"/>
       <use x="286.279296875" xlink:href="#DejaVuSans-35"/>
      </g>
     </g>
    </g>
    <g id="ytick_9">
     <g id="line2d_57">
      <g>
       <use style="stroke:#000000;stroke-linecap:butt;stroke-width:0.5;" x="72.0" xlink:href="#mc8fcea1516" y="43.2"/>
      </g>
     </g>
     <g id="line2d_58">
      <g>
       <use style="stroke:#000000;stroke-linecap:butt;stroke-width:0.5;" x="518.4" xlink:href="#m0d5b0a6425" y="43.2"/>
      </g>
     </g>
     <g id="text_18">
      <!-- 0.0020 -->
      <g transform="translate(27.599375 47.5678125)scale(0.12 -0.12)">
       <use xlink:href="#DejaVuSans-30"/>
       <use x="63.623046875" xlink:href="#DejaVuSans-2e"/>
       <use x="95.41015625" xlink:href="#DejaVuSans-30"/>
       <use x="159.033203125" xlink:href="#DejaVuSans-30"/>
       <use x="222.65625" xlink:href="#DejaVuSans-32"/>
       <use x="286.279296875" xlink:href="#DejaVuSans-30"/>
      </g>
     </g>
    </g>
   </g>
   <g id="patch_3">
    <path d="
M72 43.2
L518.4 43.2" style="fill:none;stroke:#000000;"/>
   </g>
   <g id="patch_4">
    <path d="
M518.4 200.291
L518.4 43.2" style="fill:none;stroke:#000000;"/>
   </g>
   <g id="patch_5">
    <path d="
M72 200.291
L518.4 200.291" style="fill:none;stroke:#000000;"/>
   </g>
   <g id="patch_6">
    <path d="
M72 200.291
L72 43.2" style="fill:none;stroke:#000000;"/>
   </g>
  </g>
  <g id="axes_2">
   <g id="patch_7">
    <path d="
M72 388.8
L518.4 388.8
L518.4 231.709
L72 231.709
z
" style="fill:#ffffff;"/>
   </g>
   <g id="line2d_59">
    <path clip-path="url(#p8d90287ba5)" d="
M72 296.406
L84.4992 314.28
L96.9984 329.6
L109.498 342.463
L121.997 352.969
L134.496 361.225
L146.995 367.341
L159.494 371.434
L171.994 373.624
L184.493 374.038
L196.992 372.808
L209.491 370.07
L221.99 365.964
L234.49 360.638
L246.989 354.242
L259.488 346.934
L271.987 338.875
L284.486 330.232
L296.986 321.176
L309.485 311.884
L321.984 302.537
L334.483 293.324
L346.982 284.434
L359.482 276.066
L371.981 268.421
L384.48 261.707
L396.979 256.134
L409.478 251.922
L421.978 249.291
L434.477 248.468
L446.976 249.687
L459.475 253.185
L471.974 259.202
L484.474 267.989
L496.973 279.795
L509.472 294.88" style="fill:none;stroke:#0000ff;"/>
   </g>
   <g id="line2d_60">
    <path clip-path="url(#p8d90287ba5)" d="
M72 288.063
L84.4992 299.466
L96.9984 310.257
L109.498 320.307
L121.997 329.505
L134.496 337.751
L146.995 344.965
L159.494 351.08
L171.994 356.042
L184.493 359.817
L196.992 362.381
L209.491 363.729
L221.99 363.87
L234.49 362.827
L246.989 360.64
L259.488 357.362
L271.987 353.064
L284.486 347.829
L296.986 341.758
L309.485 334.964
L321.984 327.58
L334.483 319.749
L346.982 311.631
L359.482 303.404
L371.981 295.256
L384.48 287.394
L396.979 280.04
L409.478 273.428
L421.978 267.811
L434.477 263.455
L446.976 260.642
L459.475 259.668
L471.974 260.845
L484.474 264.501
L496.973 270.978
L509.472 280.633" style="fill:none;stroke:#008000;"/>
   </g>
   <g id="line2d_61">
    <path clip-path="url(#p8d90287ba5)" d="
M72 278.397
L84.4992 283.293
L96.9984 289.117
L109.498 295.595
L121.997 302.474
L134.496 309.522
L146.995 316.527
L159.494 323.298
L171.994 329.664
L184.493 335.477
L196.992 340.606
L209.491 344.945
L221.99 348.405
L234.49 350.921
L246.989 352.446
L259.488 352.956
L271.987 352.445
L284.486 350.931
L296.986 348.451
L309.485 345.062
L321.984 340.844
L334.483 335.895
L346.982 330.336
L359.482 324.307
L371.981 317.971
L384.48 311.509
L396.979 305.126
L409.478 299.043
L421.978 293.507
L434.477 288.783
L446.976 285.157
L459.475 282.935
L471.974 282.445
L484.474 284.035
L496.973 288.076
L509.472 294.955" style="fill:none;stroke:#ff0000;"/>
   </g>
   <g id="line2d_62">
    <path clip-path="url(#p8d90287ba5)" d="
M72 267.998
L84.4992 272.999
L96.9984 278.169
L109.498 283.431
L121.997 288.714
L134.496 293.951
L146.995 299.078
L159.494 304.04
L171.994 308.783
L184.493 313.259
L196.992 317.425
L209.491 321.242
L221.99 324.678
L234.49 327.702
L246.989 330.292
L259.488 332.428
L271.987 334.095
L284.486 335.284
L296.986 335.989
L309.485 336.211
L321.984 335.955
L334.483 335.229
L346.982 334.048
L359.482 332.431
L371.981 330.401
L384.48 327.987
L396.979 325.223
L409.478 322.146
L421.978 318.799
L434.477 315.231
L446.976 311.493
L459.475 307.642
L471.974 303.741
L484.474 299.856
L496.973 296.059" style="fill:none;stroke:#00bfbf;"/>
   </g>
   <g id="line2d_63">
    <path clip-path="url(#p8d90287ba5)" d="
M72 282.391
L84.4992 283.842
L96.9984 285.163
L109.498 286.398
L121.997 287.59
L134.496 288.774
L146.995 289.984
L159.494 291.248
L171.994 292.587
L184.493 294.023
L196.992 295.567
L209.491 297.231
L221.99 299.02
L234.49 300.934
L246.989 302.97
L259.488 305.119
L271.987 307.368
L284.486 309.702
L296.986 312.096
L309.485 314.526
L321.984 316.961
L334.483 319.364
L346.982 321.697
L359.482 323.916
L371.981 325.97
L384.48 327.807
L396.979 329.37
L409.478 330.595
L421.978 331.416
L434.477 331.762
L446.976 331.556
L459.475 330.719
L471.974 329.165
L484.474 326.805
L496.973 323.545" style="fill:none;stroke:#bf00bf;"/>
   </g>
   <g id="line2d_64">
    <path clip-path="url(#p8d90287ba5)" d="
M72 327.135
L84.4992 321.499
L96.9984 316.345
L109.498 311.652
L121.997 307.405
L134.496 303.585
L146.995 300.179
L159.494 297.173
L171.994 294.557
L184.493 292.32
L196.992 290.456
L209.491 288.957
L221.99 287.82
L234.49 287.04
L246.989 286.618
L259.488 286.552
L271.987 286.846
L284.486 287.503
L296.986 288.529
L309.485 289.929
L321.984 291.714
L334.483 293.893
L346.982 296.478
L359.482 299.483
L371.981 302.924
L384.48 306.816
L396.979 311.18
L409.478 316.034
L421.978 321.402
L434.477 327.306
L446.976 333.772
L459.475 340.827
L471.974 348.499
L484.474 356.819" style="fill:none;stroke:#bfbf00;"/>
   </g>
   <g id="line2d_65">
    <path clip-path="url(#p8d90287ba5)" d="
M72 339.062
L84.4992 341.229
L96.9984 341.743
L109.498 340.826
L121.997 338.693
L134.496 335.547
L146.995 331.579
L159.494 326.972
L171.994 321.899
L184.493 316.521
L196.992 310.988
L209.491 305.443
L221.99 300.015
L234.49 294.825
L246.989 289.982
L259.488 285.586
L271.987 281.725
L284.486 278.48
L296.986 275.917
L309.485 274.095
L321.984 273.061
L334.483 272.854
L346.982 273.499
L359.482 275.013
L371.981 277.402
L384.48 280.663
L396.979 284.78
L409.478 289.729
L421.978 295.474
L434.477 301.97
L446.976 309.161
L459.475 316.98
L471.974 325.351
L484.474 334.186
L496.973 343.389" style="fill:none;stroke:#000000;"/>
   </g>
   <g id="line2d_66">
    <path clip-path="url(#p8d90287ba5)" d="
M72 335.537
L84.4992 342.442
L96.9984 347.33
L109.498 350.376
L121.997 351.753
L134.496 351.63
L146.995 350.174
L159.494 347.547
L171.994 343.908
L184.493 339.413
L196.992 334.216
L209.491 328.465
L221.99 322.306
L234.49 315.883
L246.989 309.335
L259.488 302.798
L271.987 296.405
L284.486 290.285
L296.986 284.564
L309.485 279.366
L321.984 274.81
L334.483 271.011
L346.982 268.084
L359.482 266.137
L371.981 265.276
L384.48 265.606
L396.979 267.225
L409.478 270.229
L421.978 274.713
L434.477 280.764
L446.976 288.47
L459.475 297.914
L471.974 309.175
L484.474 322.33" style="fill:none;stroke:#0000ff;"/>
   </g>
   <g id="line2d_67">
    <path clip-path="url(#p8d90287ba5)" d="
M72 311.84
L84.4992 321.968
L96.9984 330.565
L109.498 337.666
L121.997 343.315
L134.496 347.56
L146.995 350.459
L159.494 352.073
L171.994 352.471
L184.493 351.731
L196.992 349.933
L209.491 347.167
L221.99 343.528
L234.49 339.119
L246.989 334.049
L259.488 328.431
L271.987 322.389
L284.486 316.051
L296.986 309.551
L309.485 303.031
L321.984 296.64
L334.483 290.532
L346.982 284.869
L359.482 279.817
L371.981 275.553
L384.48 272.256
L396.979 270.114
L409.478 269.323
L421.978 270.081
L434.477 272.597
L446.976 277.085
L459.475 283.764
L471.974 292.863" style="fill:none;stroke:#008000;"/>
   </g>
   <g id="line2d_68">
    <path clip-path="url(#p8d90287ba5)" d="
M72 298.255
L84.4992 301.062
L96.9984 304.774
L109.498 309.116
L121.997 313.838
L134.496 318.712
L146.995 323.531
L159.494 328.115
L171.994 332.302
L184.493 335.956
L196.992 338.963
L209.491 341.232
L221.99 342.694
L234.49 343.305
L246.989 343.04
L259.488 341.9
L271.987 339.909
L284.486 337.111
L296.986 333.576
L309.485 329.394
L321.984 324.681
L334.483 319.573
L346.982 314.23
L359.482 308.835
L371.981 303.593
L384.48 298.733
L396.979 294.506
L409.478 291.186
L421.978 289.07
L434.477 288.477
L446.976 289.751
L459.475 293.256
L471.974 299.381
L484.474 308.537" style="fill:none;stroke:#ff0000;"/>
   </g>
   <g id="line2d_69">
    <path clip-path="url(#p8d90287ba5)" d="
M72 288.115
L84.4992 288.718
L96.9984 290.149
L109.498 292.248
L121.997 294.862
L134.496 297.853
L146.995 301.091
L159.494 304.461
L171.994 307.854
L184.493 311.177
L196.992 314.344
L209.491 317.283
L221.99 319.931
L234.49 322.238
L246.989 324.163
L259.488 325.679
L271.987 326.766
L284.486 327.418
L296.986 327.641
L309.485 327.448
L321.984 326.867
L334.483 325.935
L346.982 324.7
L359.482 323.224
L371.981 321.575
L384.48 319.837
L396.979 318.102
L409.478 316.474
L421.978 315.068
L434.477 314.01
L446.976 313.438
L459.475 313.5
L471.974 314.356" style="fill:none;stroke:#00bfbf;"/>
   </g>
   <g id="line2d_70">
    <path clip-path="url(#p8d90287ba5)" d="
M72 304.169
L84.4992 302.518
L96.9984 300.992
L109.498 299.609
L121.997 298.388
L134.496 297.343
L146.995 296.487
L159.494 295.833
L171.994 295.389
L184.493 295.162
L196.992 295.158
L209.491 295.38
L221.99 295.83
L234.49 296.506
L246.989 297.405
L259.488 298.524
L271.987 299.855
L284.486 301.389
L296.986 303.115
L309.485 305.021
L321.984 307.092
L334.483 309.311
L346.982 311.658
L359.482 314.114
L371.981 316.655
L384.48 319.256
L396.979 321.891
L409.478 324.53
L421.978 327.143
L434.477 329.696
L446.976 332.155
L459.475 334.482
L471.974 336.639" style="fill:none;stroke:#bf00bf;"/>
   </g>
   <g id="line2d_71">
    <path clip-path="url(#p8d90287ba5)" d="
M72 357.38
L84.4992 346.807
L96.9984 337.752
L109.498 330.007
L121.997 323.383
L134.496 317.706
L146.995 312.822
L159.494 308.593
L171.994 304.899
L184.493 301.639
L196.992 298.726
L209.491 296.095
L221.99 293.696
L234.49 291.496
L246.989 289.48
L259.488 287.653
L271.987 286.035
L284.486 284.663
L296.986 283.594
L309.485 282.9
L321.984 282.674
L334.483 283.022
L346.982 284.072
L359.482 285.967
L371.981 288.867
L384.48 292.952
L396.979 298.417
L409.478 305.478
L421.978 314.364
L434.477 325.325
L446.976 338.628
L459.475 354.556" style="fill:none;stroke:#bfbf00;"/>
   </g>
   <g id="line2d_72">
    <path clip-path="url(#p8d90287ba5)" d="
M72 334.528
L84.4992 338.52
L96.9984 341.248
L109.498 342.801
L121.997 343.266
L134.496 342.734
L146.995 341.296
L159.494 339.046
L171.994 336.078
L184.493 332.489
L196.992 328.375
L209.491 323.836
L221.99 318.972
L234.49 313.885
L246.989 308.679
L259.488 303.458
L271.987 298.33
L284.486 293.4
L296.986 288.78
L309.485 284.579
L321.984 280.91
L334.483 277.887
L346.982 275.624
L359.482 274.239
L371.981 273.849
L384.48 274.574
L396.979 276.535
L409.478 279.855
L421.978 284.658
L434.477 291.069
L446.976 299.214
L459.475 309.223" style="fill:none;stroke:#000000;"/>
   </g>
   <g id="line2d_73">
    <path clip-path="url(#p8d90287ba5)" d="
M72 307.818
L84.4992 314.998
L96.9984 321.45
L109.498 327.112
L121.997 331.936
L134.496 335.886
L146.995 338.939
L159.494 341.081
L171.994 342.312
L184.493 342.646
L196.992 342.106
L209.491 340.727
L221.99 338.56
L234.49 335.664
L246.989 332.112
L259.488 327.987
L271.987 323.388
L284.486 318.423
L296.986 313.213
L309.485 307.891
L321.984 302.601
L334.483 297.502
L346.982 292.762
L359.482 288.562
L371.981 285.098
L384.48 282.572
L396.979 281.205
L409.478 281.224
L421.978 282.873
L434.477 286.404
L446.976 292.085
L459.475 300.192" style="fill:none;stroke:#0000ff;"/>
   </g>
   <g id="line2d_74">
    <path clip-path="url(#p8d90287ba5)" d="
M72 284.616
L84.4992 291.688
L96.9984 297.986
L109.498 303.553
L121.997 308.43
L134.496 312.659
L146.995 316.276
L159.494 319.321
L171.994 321.828
L184.493 323.833
L196.992 325.369
L209.491 326.468
L221.99 327.161
L234.49 327.477
L246.989 327.443
L259.488 327.088
L271.987 326.436
L284.486 325.511
L296.986 324.335
L309.485 322.93
L321.984 321.317
L334.483 319.513
L346.982 317.535
L359.482 315.4
L371.981 313.123
L384.48 310.715
L396.979 308.191
L409.478 305.559
L421.978 302.829
L434.477 300.008
L446.976 297.105
L459.475 294.122" style="fill:none;stroke:#008000;"/>
   </g>
   <g id="line2d_75">
    <path clip-path="url(#p8d90287ba5)" d="
M72 303.139
L84.4992 302.024
L96.9984 301.184
L109.498 300.592
L121.997 300.219
L134.496 300.041
L146.995 300.035
L159.494 300.181
L171.994 300.461
L184.493 300.859
L196.992 301.361
L209.491 301.955
L221.99 302.632
L234.49 303.386
L246.989 304.211
L259.488 305.105
L271.987 306.068
L284.486 307.1
L296.986 308.207
L309.485 309.395
L321.984 310.672
L334.483 312.049
L346.982 313.538
L359.482 315.156
L371.981 316.919
L384.48 318.847
L396.979 320.962
L409.478 323.288
L421.978 325.852
L434.477 328.681
L446.976 331.807" style="fill:none;stroke:#ff0000;"/>
   </g>
   <g id="line2d_76">
    <path clip-path="url(#p8d90287ba5)" d="
M72 327.12
L84.4992 326.734
L96.9984 325.689
L109.498 324.077
L121.997 321.989
L134.496 319.513
L146.995 316.733
L159.494 313.731
L171.994 310.586
L184.493 307.374
L196.992 304.168
L209.491 301.038
L221.99 298.052
L234.49 295.274
L246.989 292.766
L259.488 290.586
L271.987 288.791
L284.486 287.432
L296.986 286.561
L309.485 286.225
L321.984 286.467
L334.483 287.33
L346.982 288.851
L359.482 291.066
L371.981 294.008
L384.48 297.708
L396.979 302.191
L409.478 307.483
L421.978 313.603
L434.477 320.572
L446.976 328.403
L459.475 337.11" style="fill:none;stroke:#00bfbf;"/>
   </g>
   <g id="line2d_77">
    <path clip-path="url(#p8d90287ba5)" d="
M72 343.107
L84.4992 343.404
L96.9984 343.101
L109.498 342.226
L121.997 340.811
L134.496 338.891
L146.995 336.506
L159.494 333.697
L171.994 330.51
L184.493 326.994
L196.992 323.202
L209.491 319.189
L221.99 315.015
L234.49 310.741
L246.989 306.435
L259.488 302.164
L271.987 298.003
L284.486 294.026
L296.986 290.315
L309.485 286.95
L321.984 284.019
L334.483 281.612
L346.982 279.821
L359.482 278.743
L371.981 278.478
L384.48 279.129
L396.979 280.802
L409.478 283.608
L421.978 287.66
L434.477 293.075
L446.976 299.973" style="fill:none;stroke:#bf00bf;"/>
   </g>
   <g id="line2d_78">
    <path clip-path="url(#p8d90287ba5)" d="
M72 287.976
L84.4992 301.717
L96.9984 312.8
L109.498 321.503
L121.997 328.091
L134.496 332.813
L146.995 335.902
L159.494 337.581
L171.994 338.053
L184.493 337.511
L196.992 336.131
L209.491 334.074
L221.99 331.489
L234.49 328.508
L246.989 325.25
L259.488 321.818
L271.987 318.302
L284.486 314.776
L296.986 311.302
L309.485 307.923
L321.984 304.672
L334.483 301.565
L346.982 298.605
L359.482 295.778
L371.981 293.057
L384.48 290.402
L396.979 287.756
L409.478 285.047
L421.978 282.192
L434.477 279.09" style="fill:none;stroke:#bfbf00;"/>
   </g>
   <g id="line2d_79">
    <path clip-path="url(#p8d90287ba5)" d="
M72 308.171
L84.4992 305.569
L96.9984 304.211
L109.498 303.87
L121.997 304.337
L134.496 305.42
L146.995 306.942
L159.494 308.748
L171.994 310.695
L184.493 312.662
L196.992 314.543
L209.491 316.25
L221.99 317.711
L234.49 318.875
L246.989 319.703
L259.488 320.178
L271.987 320.299
L284.486 320.081
L296.986 319.558
L309.485 318.781
L321.984 317.818
L334.483 316.754
L346.982 315.692
L359.482 314.753
L371.981 314.074
L384.48 313.81
L396.979 314.134
L409.478 315.235
L421.978 317.321
L434.477 320.615
L446.976 325.36" style="fill:none;stroke:#000000;"/>
   </g>
   <g id="line2d_80">
    <path clip-path="url(#p8d90287ba5)" d="
M72 321.439
L84.4992 318.476
L96.9984 315.752
L109.498 313.245
L121.997 310.934
L134.496 308.804
L146.995 306.843
L159.494 305.043
L171.994 303.398
L184.493 301.908
L196.992 300.575
L209.491 299.404
L221.99 298.405
L234.49 297.592
L246.989 296.982
L259.488 296.594
L271.987 296.454
L284.486 296.588
L296.986 297.028
L309.485 297.809
L321.984 298.969
L334.483 300.551
L346.982 302.601
L359.482 305.167
L371.981 308.304
L384.48 312.067
L396.979 316.516
L409.478 321.717
L421.978 327.736
L434.477 334.644" style="fill:none;stroke:#0000ff;"/>
   </g>
   <g id="matplotlib.axis_3">
    <g id="xtick_10">
     <g id="line2d_81">
      <g>
       <use style="stroke:#000000;stroke-linecap:butt;stroke-width:0.5;" x="72.0" xlink:href="#mcb557df647" y="388.8"/>
      </g>
     </g>
     <g id="line2d_82">
      <g>
       <use style="stroke:#000000;stroke-linecap:butt;stroke-width:0.5;" x="72.0" xlink:href="#mdad270ee8e" y="231.709090909"/>
      </g>
     </g>
     <g id="text_19">
      <!-- 0.0 -->
      <g transform="translate(63.2521875 401.70625)scale(0.12 -0.12)">
       <use xlink:href="#DejaVuSans-30"/>
       <use x="63.623046875" xlink:href="#DejaVuSans-2e"/>
       <use x="95.41015625" xlink:href="#DejaVuSans-30"/>
      </g>
     </g>
    </g>
    <g id="xtick_11">
     <g id="line2d_83">
      <g>
       <use style="stroke:#000000;stroke-linecap:butt;stroke-width:0.5;" x="161.28" xlink:href="#mcb557df647" y="388.8"/>
      </g>
     </g>
     <g id="line2d_84">
      <g>
       <use style="stroke:#000000;stroke-linecap:butt;stroke-width:0.5;" x="161.28" xlink:href="#mdad270ee8e" y="231.709090909"/>
      </g>
     </g>
     <g id="text_20">
      <!-- 0.5 -->
      <g transform="translate(152.6578125 401.70625)scale(0.12 -0.12)">
       <use xlink:href="#DejaVuSans-30"/>
       <use x="63.623046875" xlink:href="#DejaVuSans-2e"/>
       <use x="95.41015625" xlink:href="#DejaVuSans-35"/>
      </g>
     </g>
    </g>
    <g id="xtick_12">
     <g id="line2d_85">
      <g>
       <use style="stroke:#000000;stroke-linecap:butt;stroke-width:0.5;" x="250.56" xlink:href="#mcb557df647" y="388.8"/>
      </g>
     </g>
     <g id="line2d_86">
      <g>
       <use style="stroke:#000000;stroke-linecap:butt;stroke-width:0.5;" x="250.56" xlink:href="#mdad270ee8e" y="231.709090909"/>
      </g>
     </g>
     <g id="text_21">
      <!-- 1.0 -->
      <g transform="translate(242.075625 401.70625)scale(0.12 -0.12)">
       <use xlink:href="#DejaVuSans-31"/>
       <use x="63.623046875" xlink:href="#DejaVuSans-2e"/>
       <use x="95.41015625" xlink:href="#DejaVuSans-30"/>
      </g>
     </g>
    </g>
    <g id="xtick_13">
     <g id="line2d_87">
      <g>
       <use style="stroke:#000000;stroke-linecap:butt;stroke-width:0.5;" x="339.84" xlink:href="#mcb557df647" y="388.8"/>
      </g>
     </g>
     <g id="line2d_88">
      <g>
       <use style="stroke:#000000;stroke-linecap:butt;stroke-width:0.5;" x="339.84" xlink:href="#mdad270ee8e" y="231.709090909"/>
      </g>
     </g>
     <g id="text_22">
      <!-- 1.5 -->
      <g transform="translate(331.48125 401.54875)scale(0.12 -0.12)">
       <use xlink:href="#DejaVuSans-31"/>
       <use x="63.623046875" xlink:href="#DejaVuSans-2e"/>
       <use x="95.41015625" xlink:href="#DejaVuSans-35"/>
      </g>
     </g>
    </g>
    <g id="xtick_14">
     <g id="line2d_89">
      <g>
       <use style="stroke:#000000;stroke-linecap:butt;stroke-width:0.5;" x="429.12" xlink:href="#mcb557df647" y="388.8"/>
      </g>
     </g>
     <g id="line2d_90">
      <g>
       <use style="stroke:#000000;stroke-linecap:butt;stroke-width:0.5;" x="429.12" xlink:href="#mdad270ee8e" y="231.709090909"/>
      </g>
     </g>
     <g id="text_23">
      <!-- 2.0 -->
      <g transform="translate(420.41625 401.70625)scale(0.12 -0.12)">
       <use xlink:href="#DejaVuSans-32"/>
       <use x="63.623046875" xlink:href="#DejaVuSans-2e"/>
       <use x="95.41015625" xlink:href="#DejaVuSans-30"/>
      </g>
     </g>
    </g>
    <g id="xtick_15">
     <g id="line2d_91">
      <g>
       <use style="stroke:#000000;stroke-linecap:butt;stroke-width:0.5;" x="518.4" xlink:href="#mcb557df647" y="388.8"/>
      </g>
     </g>
     <g id="line2d_92">
      <g>
       <use style="stroke:#000000;stroke-linecap:butt;stroke-width:0.5;" x="518.4" xlink:href="#mdad270ee8e" y="231.709090909"/>
      </g>
     </g>
     <g id="text_24">
      <!-- 2.5 -->
      <g transform="translate(509.821875 401.70625)scale(0.12 -0.12)">
       <use xlink:href="#DejaVuSans-32"/>
       <use x="63.623046875" xlink:href="#DejaVuSans-2e"/>
       <use x="95.41015625" xlink:href="#DejaVuSans-35"/>
      </g>
     </g>
    </g>
   </g>
   <g id="matplotlib.axis_4">
    <g id="ytick_10">
     <g id="line2d_93">
      <g>
       <use style="stroke:#000000;stroke-linecap:butt;stroke-width:0.5;" x="72.0" xlink:href="#mc8fcea1516" y="388.8"/>
      </g>
     </g>
     <g id="line2d_94">
      <g>
       <use style="stroke:#000000;stroke-linecap:butt;stroke-width:0.5;" x="518.4" xlink:href="#m0d5b0a6425" y="388.8"/>
      </g>
     </g>
     <g id="text_25">
      <!-- −150 -->
      <g transform="translate(37.1075 393.1678125)scale(0.12 -0.12)">
       <use xlink:href="#DejaVuSans-2212"/>
       <use x="83.7890625" xlink:href="#DejaVuSans-31"/>
       <use x="147.412109375" xlink:href="#DejaVuSans-35"/>
       <use x="211.03515625" xlink:href="#DejaVuSans-30"/>
      </g>
     </g>
    </g>
    <g id="ytick_11">
     <g id="line2d_95">
      <g>
       <use style="stroke:#000000;stroke-linecap:butt;stroke-width:0.5;" x="72.0" xlink:href="#mc8fcea1516" y="362.618181818"/>
      </g>
     </g>
     <g id="line2d_96">
      <g>
       <use style="stroke:#000000;stroke-linecap:butt;stroke-width:0.5;" x="518.4" xlink:href="#m0d5b0a6425" y="362.618181818"/>
      </g>
     </g>
     <g id="text_26">
      <!-- −100 -->
      <g transform="translate(37.1075 366.985994318)scale(0.12 -0.12)">
       <use xlink:href="#DejaVuSans-2212"/>
       <use x="83.7890625" xlink:href="#DejaVuSans-31"/>
       <use x="147.412109375" xlink:href="#DejaVuSans-30"/>
       <use x="211.03515625" xlink:href="#DejaVuSans-30"/>
      </g>
     </g>
    </g>
    <g id="ytick_12">
     <g id="line2d_97">
      <g>
       <use style="stroke:#000000;stroke-linecap:butt;stroke-width:0.5;" x="72.0" xlink:href="#mc8fcea1516" y="336.436363636"/>
      </g>
     </g>
     <g id="line2d_98">
      <g>
       <use style="stroke:#000000;stroke-linecap:butt;stroke-width:0.5;" x="518.4" xlink:href="#m0d5b0a6425" y="336.436363636"/>
      </g>
     </g>
     <g id="text_27">
      <!-- −50 -->
      <g transform="translate(44.7425 340.804176136)scale(0.12 -0.12)">
       <use xlink:href="#DejaVuSans-2212"/>
       <use x="83.7890625" xlink:href="#DejaVuSans-35"/>
       <use x="147.412109375" xlink:href="#DejaVuSans-30"/>
      </g>
     </g>
    </g>
    <g id="ytick_13">
     <g id="line2d_99">
      <g>
       <use style="stroke:#000000;stroke-linecap:butt;stroke-width:0.5;" x="72.0" xlink:href="#mc8fcea1516" y="310.254545455"/>
      </g>
     </g>
     <g id="line2d_100">
      <g>
       <use style="stroke:#000000;stroke-linecap:butt;stroke-width:0.5;" x="518.4" xlink:href="#m0d5b0a6425" y="310.254545455"/>
      </g>
     </g>
     <g id="text_28">
      <!-- 0 -->
      <g transform="translate(61.953125 314.622357955)scale(0.12 -0.12)">
       <use xlink:href="#DejaVuSans-30"/>
      </g>
     </g>
    </g>
    <g id="ytick_14">
     <g id="line2d_101">
      <g>
       <use style="stroke:#000000;stroke-linecap:butt;stroke-width:0.5;" x="72.0" xlink:href="#mc8fcea1516" y="284.072727273"/>
      </g>
     </g>
     <g id="line2d_102">
      <g>
       <use style="stroke:#000000;stroke-linecap:butt;stroke-width:0.5;" x="518.4" xlink:href="#m0d5b0a6425" y="284.072727273"/>
      </g>
     </g>
     <g id="text_29">
      <!-- 50 -->
      <g transform="translate(54.453125 288.440539773)scale(0.12 -0.12)">
       <use xlink:href="#DejaVuSans-35"/>
       <use x="63.623046875" xlink:href="#DejaVuSans-30"/>
      </g>
     </g>
    </g>
    <g id="ytick_15">
     <g id="line2d_103">
      <g>
       <use style="stroke:#000000;stroke-linecap:butt;stroke-width:0.5;" x="72.0" xlink:href="#mc8fcea1516" y="257.890909091"/>
      </g>
     </g>
     <g id="line2d_104">
      <g>
       <use style="stroke:#000000;stroke-linecap:butt;stroke-width:0.5;" x="518.4" xlink:href="#m0d5b0a6425" y="257.890909091"/>
      </g>
     </g>
     <g id="text_30">
      <!-- 100 -->
      <g transform="translate(47.21 262.258721591)scale(0.12 -0.12)">
       <use xlink:href="#DejaVuSans-31"/>
       <use x="63.623046875" xlink:href="#DejaVuSans-30"/>
       <use x="127.24609375" xlink:href="#DejaVuSans-30"/>
      </g>
     </g>
    </g>
    <g id="ytick_16">
     <g id="line2d_105">
      <g>
       <use style="stroke:#000000;stroke-linecap:butt;stroke-width:0.5;" x="72.0" xlink:href="#mc8fcea1516" y="231.709090909"/>
      </g>
     </g>
     <g id="line2d_106">
      <g>
       <use style="stroke:#000000;stroke-linecap:butt;stroke-width:0.5;" x="518.4" xlink:href="#m0d5b0a6425" y="231.709090909"/>
      </g>
     </g>
     <g id="text_31">
      <!-- 150 -->
      <g transform="translate(47.21 236.076903409)scale(0.12 -0.12)">
       <use xlink:href="#DejaVuSans-31"/>
       <use x="63.623046875" xlink:href="#DejaVuSans-35"/>
       <use x="127.24609375" xlink:href="#DejaVuSans-30"/>
      </g>
     </g>
    </g>
   </g>
   <g id="patch_8">
    <path d="
M72 231.709
L518.4 231.709" style="fill:none;stroke:#000000;"/>
   </g>
   <g id="patch_9">
    <path d="
M518.4 388.8
L518.4 231.709" style="fill:none;stroke:#000000;"/>
   </g>
   <g id="patch_10">
    <path d="
M72 388.8
L518.4 388.8" style="fill:none;stroke:#000000;"/>
   </g>
   <g id="patch_11">
    <path d="
M72 388.8
L72 231.709" style="fill:none;stroke:#000000;"/>
   </g>
  </g>
 </g>
 <defs>
  <clipPath id="p3af14643a6">
   <rect height="157.090909091" width="446.4" x="72.0" y="43.2"/>
  </clipPath>
  <clipPath id="p8d90287ba5">
   <rect height="157.090909091" width="446.4" x="72.0" y="231.709090909"/>
  </clipPath>
 </defs>
</svg>
