<?xml version="1.0" encoding="utf-8" standalone="no"?>
<!DOCTYPE svg PUBLIC "-//W3C//DTD SVG 1.1//EN"
  "http://www.w3.org/Graphics/SVG/1.1/DTD/svg11.dtd">
<!-- Created with matplotlib (http://matplotlib.org/) -->
<svg height="432pt" version="1.1" viewBox="0 0 576 432" width="576pt" xmlns="http://www.w3.org/2000/svg" xmlns:xlink="http://www.w3.org/1999/xlink">
 <defs>
  <style type="text/css">
*{stroke-linecap:square;stroke-linejoin:round;}
  </style>
 </defs>
 <g id="figure_1">
  <g id="patch_1">
   <path d="
M0 432
L576 432
L576 0
L0 0
z
" style="fill:#ffffff;"/>
  </g>
  <g id="axes_1">
   <g id="patch_2">
    <path d="
M72 200.291
L518.4 200.291
L518.4 43.2
L72 43.2
z
" style="fill:#ffffff;"/>
   </g>
   <g id="line2d_1">
    <path clip-path="url(#p3af14643a6)" d="
M85.8092 143.081
L95.9312 143.758
L106.051 142.771
L116.175 140.406
L126.294 136.934
L136.414 132.607
L146.544 127.654
L156.667 122.302
L166.798 116.746
L176.932 111.171
L187.067 105.747
L197.214 100.619
L207.362 95.9268
L217.521 91.7839
L227.693 88.2907
L237.863 85.5364
L248.045 83.5836
L258.236 82.4831
L268.439 82.2679
L278.651 82.954
L288.872 84.5387
L299.105 87.0035
L309.343 90.3076
L319.588 94.3955
L329.842 99.1934
L340.101 104.606
L350.366 110.522
L360.63 116.808
L370.903 123.32
L381.177 129.886
L391.452 136.321
L401.727 142.42
L412.001 147.961
L422.273 152.704
L432.542 156.391
L442.806 158.747
L453.067 159.48
L463.328 158.28" style="fill:none;stroke:#0000ff;"/>
   </g>
   <g id="line2d_2">
    <path clip-path="url(#p3af14643a6)" d="
M81.415 157.77
L91.6643 157.441
L101.904 155.565
L112.139 152.398
L122.375 148.18
L132.616 143.134
L142.85 137.477
L153.092 131.402
L163.337 125.093
L173.573 118.73
L183.823 112.456
L194.075 106.419
L204.329 100.752
L214.587 95.5682
L224.861 90.9645
L235.139 87.0368
L245.429 83.8571
L255.73 81.4889
L266.032 79.9815
L276.354 79.367
L286.681 79.6671
L297.018 80.8873
L307.367 83.0194
L317.726 86.0402
L328.097 89.9129
L338.464 94.5779
L348.843 99.9723
L359.231 106.014
L369.624 112.6
L380.016 119.615
L390.414 126.933
L400.812 134.407
L411.212 141.879
L421.616 149.176
L432.009 156.101
L442.4 162.457
L452.791 168.027
L463.173 172.576" style="fill:none;stroke:#008000;"/>
   </g>
   <g id="line2d_3">
    <path clip-path="url(#p3af14643a6)" d="
M81.5193 154.461
L91.8862 158.51
L102.252 160.1
L112.608 159.579
L122.966 157.273
L133.323 153.492
L143.678 148.527
L154.028 142.652
L164.385 136.115
L174.739 129.159
L185.094 122
L195.459 114.835
L205.826 107.852
L216.19 101.221
L226.565 95.0842
L236.953 89.5719
L247.344 84.8052
L257.745 80.8786
L268.154 77.8731
L278.581 75.8498
L289.015 74.8566
L299.465 74.9203
L309.92 76.05
L320.389 78.237
L330.867 81.4524
L341.354 85.6496
L351.85 90.7619
L362.353 96.7027
L372.862 103.368
L383.379 110.633
L393.9 118.353
L404.421 126.361
L414.947 134.478
L425.468 142.497
L435.992 150.201
L446.511 157.347
L457.029 163.679
L467.542 168.92" style="fill:none;stroke:#ff0000;"/>
   </g>
   <g id="line2d_4">
    <path clip-path="url(#p3af14643a6)" d="
M86.1397 158.885
L96.6314 164.882
L107.12 167.995
L117.603 168.603
L128.08 167.068
L138.554 163.73
L149.023 158.912
L159.495 152.911
L169.962 146.016
L180.428 138.489
L190.895 130.576
L201.366 122.502
L211.839 114.48
L222.312 106.701
L232.8 99.3305
L243.287 92.5362
L253.785 86.4487
L264.292 81.1915
L274.813 76.867
L285.34 73.5639
L295.88 71.348
L306.432 70.2698
L316.998 70.3612
L327.576 71.6353
L338.169 74.0868
L348.77 77.6888
L359.377 82.3946
L369.995 88.1411
L380.622 94.8424
L391.257 102.393
L401.895 110.665
L412.537 119.514
L423.185 128.775
L433.834 138.26
L444.476 147.757
L455.122 157.049
L465.763 165.888" style="fill:none;stroke:#00bfbf;"/>
   </g>
   <g id="line2d_5">
    <path clip-path="url(#p3af14643a6)" d="
M84.6273 151.254
L95.2507 161.929
L105.868 169.175
L116.48 173.383
L127.086 174.925
L137.691 174.157
L148.285 171.417
L158.878 167.024
L169.466 161.281
L180.049 154.475
L190.636 146.867
L201.223 138.711
L211.797 130.251
L222.386 121.685
L232.967 113.233
L243.561 105.064
L254.165 97.3502
L264.765 90.2569
L275.38 83.9097
L286.008 78.434
L296.643 73.9406
L307.288 70.519
L317.951 68.2434
L328.631 67.1753
L339.318 67.3588
L350.015 68.819
L360.722 71.5643
L371.448 75.5902
L382.178 80.8656
L392.928 87.3557
L403.675 94.986
L414.428 103.68
L425.189 113.343
L435.957 123.859
L446.721 135.084
L457.491 146.874
L468.257 159.049" style="fill:none;stroke:#bf00bf;"/>
   </g>
   <g id="line2d_6">
    <path clip-path="url(#p3af14643a6)" d="
M87.3772 150.183
L98.1308 162.489
L108.876 171.424
L119.62 177.33
L130.356 180.527
L141.087 181.328
L151.817 180.03
L162.522 176.928
L173.232 172.287
L183.934 166.372
L194.643 159.424
L205.338 151.692
L216.036 143.389
L226.731 134.73
L237.43 125.913
L248.127 117.13
L258.83 108.553
L269.536 100.351
L280.253 92.6745
L290.98 85.6698
L301.714 79.474
L312.456 74.2095
L323.218 69.9842
L333.991 66.9061
L344.779 65.0652
L355.58 64.543
L366.382 65.4069
L377.209 67.7168
L388.045 71.5164
L398.892 76.8394
L409.75 83.7076
L420.614 92.1253
L431.482 102.086
L442.358 113.577
L453.242 126.567
L464.126 141.006" style="fill:none;stroke:#bfbf00;"/>
   </g>
   <g id="line2d_7">
    <path clip-path="url(#p3af14643a6)" d="
M83.4971 130.283
L94.377 144.763
L105.258 156.506
L116.136 165.685
L127.003 172.471
L137.867 177.05
L148.723 179.596
L159.577 180.284
L170.42 179.29
L181.258 176.785
L192.089 172.943
L202.911 167.934
L213.733 161.923
L224.554 155.077
L235.37 147.564
L246.18 139.549
L256.988 131.197
L267.803 122.659
L278.624 114.101
L289.444 105.689
L300.271 97.5778
L311.105 89.9298
L321.954 82.9002
L332.815 76.6549
L343.692 71.3548
L354.565 67.17
L365.468 64.2519
L376.377 62.7728
L387.303 62.8951
L398.231 64.7821
L409.179 68.6007
L420.139 74.5155
L431.106 82.6879
L442.081 93.2806
L453.068 106.463
L464.061 122.389" style="fill:none;stroke:#000000;"/>
   </g>
   <g id="line2d_8">
    <path clip-path="url(#p3af14643a6)" d="
M83.6568 126.327
L94.6613 136.231
L105.664 145.074
L116.653 152.793
L127.649 159.356
L138.642 164.727
L149.62 168.88
L160.611 171.817
L171.585 173.536
L182.551 174.057
L193.513 173.41
L204.479 171.635
L215.429 168.787
L226.372 164.933
L237.312 160.146
L248.242 154.518
L259.179 148.14
L270.112 141.131
L281.041 133.611
L291.983 125.704
L302.904 117.581
L313.849 109.367
L324.797 101.249
L335.754 93.4056
L346.722 86.0308
L357.699 79.3373
L368.683 73.5479
L379.681 68.8951
L390.695 65.6295
L401.717 64.0178
L412.75 64.337
L423.797 66.8797
L434.855 71.9521
L445.928 79.8788
L457.004 90.9828
L468.098 105.63" style="fill:none;stroke:#0000ff;"/>
   </g>
   <g id="line2d_9">
    <path clip-path="url(#p3af14643a6)" d="
M87.8944 101.312
L99.0011 111.163
L110.112 120.678
L121.218 129.676
L132.332 138.014
L143.438 145.547
L154.551 152.172
L165.66 157.785
L176.756 162.309
L187.864 165.698
L198.95 167.907
L210.038 168.926
L221.117 168.756
L232.194 167.421
L243.26 164.963
L254.323 161.441
L265.391 156.93
L276.44 151.539
L287.496 145.373
L298.558 138.565
L309.618 131.274
L320.673 123.675
L331.729 115.955
L342.795 108.319
L353.865 101.002
L364.941 94.2532
L376.029 88.3396
L387.127 83.5544
L398.233 80.2103
L409.363 78.64
L420.474 79.1998
L431.618 82.2671
L442.759 88.233
L453.915 97.5235
L465.077 110.573" style="fill:none;stroke:#008000;"/>
   </g>
   <g id="matplotlib.axis_1">
    <g id="xtick_1">
     <g id="line2d_10">
      <defs>
       <path d="
M0 0
L0 -4" id="mcb557df647" style="stroke:#000000;stroke-linecap:butt;stroke-width:0.5;"/>
      </defs>
      <g>
       <use style="stroke:#000000;stroke-linecap:butt;stroke-width:0.5;" x="72.0" xlink:href="#mcb557df647" y="200.290909091"/>
      </g>
     </g>
     <g id="line2d_11">
      <defs>
       <path d="
M0 0
L0 4" id="mdad270ee8e" style="stroke:#000000;stroke-linecap:butt;stroke-width:0.5;"/>
      </defs>
      <g>
       <use style="stroke:#000000;stroke-linecap:butt;stroke-width:0.5;" x="72.0" xlink:href="#mdad270ee8e" y="43.2"/>
      </g>
     </g>
     <g id="text_1">
      <!-- 0 -->
      <defs>
       <path d="
M31.7812 66.4062
Q24.1719 66.4062 20.3281 58.9062
Q16.5 51.4219 16.5 36.375
Q16.5 21.3906 20.3281 13.8906
Q24.1719 6.39062 31.7812 6.39062
Q39.4531 6.39062 43.2812 13.8906
Q47.125 21.3906 47.125 36.375
Q47.125 51.4219 43.2812 58.9062
Q39.4531 66.4062 31.7812 66.4062
M31.7812 74.2188
Q44.0469 74.2188 50.5156 64.5156
Q56.9844 54.8281 56.9844 36.375
Q56.9844 17.9688 50.5156 8.26562
Q44.0469 -1.42188 31.7812 -1.42188
Q19.5312 -1.42188 13.0625 8.26562
Q6.59375 17.9688 6.59375 36.375
Q6.59375 54.8281 13.0625 64.5156
Q19.5312 74.2188 31.7812 74.2188" id="DejaVuSans-30"/>
      </defs>
      <g transform="translate(68.9765625 213.197159091)scale(0.12 -0.12)">
       <use xlink:href="#DejaVuSans-30"/>
      </g>
     </g>
    </g>
    <g id="xtick_2">
     <g id="line2d_12">
      <g>
       <use style="stroke:#000000;stroke-linecap:butt;stroke-width:0.5;" x="127.8" xlink:href="#mcb557df647" y="200.290909091"/>
      </g>
     </g>
     <g id="line2d_13">
      <g>
       <use style="stroke:#000000;stroke-linecap:butt;stroke-width:0.5;" x="127.8" xlink:href="#mdad270ee8e" y="43.2"/>
      </g>
     </g>
     <g id="text_2">
      <!-- 50 -->
      <defs>
       <path d="
M10.7969 72.9062
L49.5156 72.9062
L49.5156 64.5938
L19.8281 64.5938
L19.8281 46.7344
Q21.9688 47.4688 24.1094 47.8281
Q26.2656 48.1875 28.4219 48.1875
Q40.625 48.1875 47.75 41.5
Q54.8906 34.8125 54.8906 23.3906
Q54.8906 11.625 47.5625 5.09375
Q40.2344 -1.42188 26.9062 -1.42188
Q22.3125 -1.42188 17.5469 -0.640625
Q12.7969 0.140625 7.71875 1.70312
L7.71875 11.625
Q12.1094 9.23438 16.7969 8.0625
Q21.4844 6.89062 26.7031 6.89062
Q35.1562 6.89062 40.0781 11.3281
Q45.0156 15.7656 45.0156 23.3906
Q45.0156 31 40.0781 35.4375
Q35.1562 39.8906 26.7031 39.8906
Q22.75 39.8906 18.8125 39.0156
Q14.8906 38.1406 10.7969 36.2812
z
" id="DejaVuSans-35"/>
      </defs>
      <g transform="translate(121.0265625 213.197159091)scale(0.12 -0.12)">
       <use xlink:href="#DejaVuSans-35"/>
       <use x="63.623046875" xlink:href="#DejaVuSans-30"/>
      </g>
     </g>
    </g>
    <g id="xtick_3">
     <g id="line2d_14">
      <g>
       <use style="stroke:#000000;stroke-linecap:butt;stroke-width:0.5;" x="183.6" xlink:href="#mcb557df647" y="200.290909091"/>
      </g>
     </g>
     <g id="line2d_15">
      <g>
       <use style="stroke:#000000;stroke-linecap:butt;stroke-width:0.5;" x="183.6" xlink:href="#mdad270ee8e" y="43.2"/>
      </g>
     </g>
     <g id="text_3">
      <!-- 100 -->
      <defs>
       <path d="
M12.4062 8.29688
L28.5156 8.29688
L28.5156 63.9219
L10.9844 60.4062
L10.9844 69.3906
L28.4219 72.9062
L38.2812 72.9062
L38.2812 8.29688
L54.3906 8.29688
L54.3906 0
L12.4062 0
z
" id="DejaVuSans-31"/>
      </defs>
      <g transform="translate(173.205 213.197159091)scale(0.12 -0.12)">
       <use xlink:href="#DejaVuSans-31"/>
       <use x="63.623046875" xlink:href="#DejaVuSans-30"/>
       <use x="127.24609375" xlink:href="#DejaVuSans-30"/>
      </g>
     </g>
    </g>
    <g id="xtick_4">
     <g id="line2d_16">
      <g>
       <use style="stroke:#000000;stroke-linecap:butt;stroke-width:0.5;" x="239.4" xlink:href="#mcb557df647" y="200.290909091"/>
      </g>
     </g>
     <g id="line2d_17">
      <g>
       <use style="stroke:#000000;stroke-linecap:butt;stroke-width:0.5;" x="239.4" xlink:href="#mdad270ee8e" y="43.2"/>
      </g>
     </g>
     <g id="text_4">
      <!-- 150 -->
      <g transform="translate(229.005 213.197159091)scale(0.12 -0.12)">
       <use xlink:href="#DejaVuSans-31"/>
       <use x="63.623046875" xlink:href="#DejaVuSans-35"/>
       <use x="127.24609375" xlink:href="#DejaVuSans-30"/>
      </g>
     </g>
    </g>
    <g id="xtick_5">
     <g id="line2d_18">
      <g>
       <use style="stroke:#000000;stroke-linecap:butt;stroke-width:0.5;" x="295.2" xlink:href="#mcb557df647" y="200.290909091"/>
      </g>
     </g>
     <g id="line2d_19">
      <g>
       <use style="stroke:#000000;stroke-linecap:butt;stroke-width:0.5;" x="295.2" xlink:href="#mdad270ee8e" y="43.2"/>
      </g>
     </g>
     <g id="text_5">
      <!-- 200 -->
      <defs>
       <path d="
M19.1875 8.29688
L53.6094 8.29688
L53.6094 0
L7.32812 0
L7.32812 8.29688
Q12.9375 14.1094 22.625 23.8906
Q32.3281 33.6875 34.8125 36.5312
Q39.5469 41.8438 41.4219 45.5312
Q43.3125 49.2188 43.3125 52.7812
Q43.3125 58.5938 39.2344 62.25
Q35.1562 65.9219 28.6094 65.9219
Q23.9688 65.9219 18.8125 64.3125
Q13.6719 62.7031 7.8125 59.4219
L7.8125 69.3906
Q13.7656 71.7812 18.9375 73
Q24.125 74.2188 28.4219 74.2188
Q39.75 74.2188 46.4844 68.5469
Q53.2188 62.8906 53.2188 53.4219
Q53.2188 48.9219 51.5312 44.8906
Q49.8594 40.875 45.4062 35.4062
Q44.1875 33.9844 37.6406 27.2188
Q31.1094 20.4531 19.1875 8.29688" id="DejaVuSans-32"/>
      </defs>
      <g transform="translate(284.585625 213.197159091)scale(0.12 -0.12)">
       <use xlink:href="#DejaVuSans-32"/>
       <use x="63.623046875" xlink:href="#DejaVuSans-30"/>
       <use x="127.24609375" xlink:href="#DejaVuSans-30"/>
      </g>
     </g>
    </g>
    <g id="xtick_6">
     <g id="line2d_20">
      <g>
       <use style="stroke:#000000;stroke-linecap:butt;stroke-width:0.5;" x="351.0" xlink:href="#mcb557df647" y="200.290909091"/>
      </g>
     </g>
     <g id="line2d_21">
      <g>
       <use style="stroke:#000000;stroke-linecap:butt;stroke-width:0.5;" x="351.0" xlink:href="#mdad270ee8e" y="43.2"/>
      </g>
     </g>
     <g id="text_6">
      <!-- 250 -->
      <g transform="translate(340.385625 213.197159091)scale(0.12 -0.12)">
       <use xlink:href="#DejaVuSans-32"/>
       <use x="63.623046875" xlink:href="#DejaVuSans-35"/>
       <use x="127.24609375" xlink:href="#DejaVuSans-30"/>
      </g>
     </g>
    </g>
    <g id="xtick_7">
     <g id="line2d_22">
      <g>
       <use style="stroke:#000000;stroke-linecap:butt;stroke-width:0.5;" x="406.8" xlink:href="#mcb557df647" y="200.290909091"/>
      </g>
     </g>
     <g id="line2d_23">
      <g>
       <use style="stroke:#000000;stroke-linecap:butt;stroke-width:0.5;" x="406.8" xlink:href="#mdad270ee8e" y="43.2"/>
      </g>
     </g>
     <g id="text_7">
      <!-- 300 -->
      <defs>
       <path d="
M40.5781 39.3125
Q47.6562 37.7969 51.625 33
Q55.6094 28.2188 55.6094 21.1875
Q55.6094 10.4062 48.1875 4.48438
Q40.7656 -1.42188 27.0938 -1.42188
Q22.5156 -1.42188 17.6562 -0.515625
Q12.7969 0.390625 7.625 2.20312
L7.625 11.7188
Q11.7188 9.32812 16.5938 8.10938
Q21.4844 6.89062 26.8125 6.89062
Q36.0781 6.89062 40.9375 10.5469
Q45.7969 14.2031 45.7969 21.1875
Q45.7969 27.6406 41.2812 31.2656
Q36.7656 34.9062 28.7188 34.9062
L20.2188 34.9062
L20.2188 43.0156
L29.1094 43.0156
Q36.375 43.0156 40.2344 45.9219
Q44.0938 48.8281 44.0938 54.2969
Q44.0938 59.9062 40.1094 62.9062
Q36.1406 65.9219 28.7188 65.9219
Q24.6562 65.9219 20.0156 65.0312
Q15.375 64.1562 9.8125 62.3125
L9.8125 71.0938
Q15.4375 72.6562 20.3438 73.4375
Q25.25 74.2188 29.5938 74.2188
Q40.8281 74.2188 47.3594 69.1094
Q53.9062 64.0156 53.9062 55.3281
Q53.9062 49.2656 50.4375 45.0938
Q46.9688 40.9219 40.5781 39.3125" id="DejaVuSans-33"/>
      </defs>
      <g transform="translate(396.2034375 213.197159091)scale(0.12 -0.12)">
       <use xlink:href="#DejaVuSans-33"/>
       <use x="63.623046875" xlink:href="#DejaVuSans-30"/>
       <use x="127.24609375" xlink:href="#DejaVuSans-30"/>
      </g>
     </g>
    </g>
    <g id="xtick_8">
     <g id="line2d_24">
      <g>
       <use style="stroke:#000000;stroke-linecap:butt;stroke-width:0.5;" x="462.6" xlink:href="#mcb557df647" y="200.290909091"/>
      </g>
     </g>
     <g id="line2d_25">
      <g>
       <use style="stroke:#000000;stroke-linecap:butt;stroke-width:0.5;" x="462.6" xlink:href="#mdad270ee8e" y="43.2"/>
      </g>
     </g>
     <g id="text_8">
      <!-- 350 -->
      <g transform="translate(452.0034375 213.197159091)scale(0.12 -0.12)">
       <use xlink:href="#DejaVuSans-33"/>
       <use x="63.623046875" xlink:href="#DejaVuSans-35"/>
       <use x="127.24609375" xlink:href="#DejaVuSans-30"/>
      </g>
     </g>
    </g>
    <g id="xtick_9">
     <g id="line2d_26">
      <g>
       <use style="stroke:#000000;stroke-linecap:butt;stroke-width:0.5;" x="518.4" xlink:href="#mcb557df647" y="200.290909091"/>
      </g>
     </g>
     <g id="line2d_27">
      <g>
       <use style="stroke:#000000;stroke-linecap:butt;stroke-width:0.5;" x="518.4" xlink:href="#mdad270ee8e" y="43.2"/>
      </g>
     </g>
     <g id="text_9">
      <!-- 400 -->
      <defs>
       <path d="
M37.7969 64.3125
L12.8906 25.3906
L37.7969 25.3906
z

M35.2031 72.9062
L47.6094 72.9062
L47.6094 25.3906
L58.0156 25.3906
L58.0156 17.1875
L47.6094 17.1875
L47.6094 0
L37.7969 0
L37.7969 17.1875
L4.89062 17.1875
L4.89062 26.7031
z
" id="DejaVuSans-34"/>
      </defs>
      <g transform="translate(507.639375 213.197159091)scale(0.12 -0.12)">
       <use xlink:href="#DejaVuSans-34"/>
       <use x="63.623046875" xlink:href="#DejaVuSans-30"/>
       <use x="127.24609375" xlink:href="#DejaVuSans-30"/>
      </g>
     </g>
    </g>
   </g>
   <g id="matplotlib.axis_2">
    <g id="ytick_1">
     <g id="line2d_28">
      <defs>
       <path d="
M0 0
L4 0" id="mc8fcea1516" style="stroke:#000000;stroke-linecap:butt;stroke-width:0.5;"/>
      </defs>
      <g>
       <use style="stroke:#000000;stroke-linecap:butt;stroke-width:0.5;" x="72.0" xlink:href="#mc8fcea1516" y="200.290909091"/>
      </g>
     </g>
     <g id="line2d_29">
      <defs>
       <path d="
M0 0
L-4 0" id="m0d5b0a6425" style="stroke:#000000;stroke-linecap:butt;stroke-width:0.5;"/>
      </defs>
      <g>
       <use style="stroke:#000000;stroke-linecap:butt;stroke-width:0.5;" x="518.4" xlink:href="#m0d5b0a6425" y="200.290909091"/>
      </g>
     </g>
     <g id="text_10">
      <!-- −0.003 -->
      <defs>
       <path d="
M10.6875 12.4062
L21 12.4062
L21 0
L10.6875 0
z
" id="DejaVuSans-2e"/>
       <path d="
M10.5938 35.5
L73.1875 35.5
L73.1875 27.2031
L10.5938 27.2031
z
" id="DejaVuSans-2212"/>
      </defs>
      <g transform="translate(25.82375 204.658721591)scale(0.12 -0.12)">
       <use xlink:href="#DejaVuSans-2212"/>
       <use x="83.7890625" xlink:href="#DejaVuSans-30"/>
       <use x="147.412109375" xlink:href="#DejaVuSans-2e"/>
       <use x="179.19921875" xlink:href="#DejaVuSans-30"/>
       <use x="242.822265625" xlink:href="#DejaVuSans-30"/>
       <use x="306.4453125" xlink:href="#DejaVuSans-33"/>
      </g>
     </g>
    </g>
    <g id="ytick_2">
     <g id="line2d_30">
      <g>
       <use style="stroke:#000000;stroke-linecap:butt;stroke-width:0.5;" x="72.0" xlink:href="#mc8fcea1516" y="174.109090909"/>
      </g>
     </g>
     <g id="line2d_31">
      <g>
       <use style="stroke:#000000;stroke-linecap:butt;stroke-width:0.5;" x="518.4" xlink:href="#m0d5b0a6425" y="174.109090909"/>
      </g>
     </g>
     <g id="text_11">
      <!-- −0.002 -->
      <g transform="translate(26.06375 178.476903409)scale(0.12 -0.12)">
       <use xlink:href="#DejaVuSans-2212"/>
       <use x="83.7890625" xlink:href="#DejaVuSans-30"/>
       <use x="147.412109375" xlink:href="#DejaVuSans-2e"/>
       <use x="179.19921875" xlink:href="#DejaVuSans-30"/>
       <use x="242.822265625" xlink:href="#DejaVuSans-30"/>
       <use x="306.4453125" xlink:href="#DejaVuSans-32"/>
      </g>
     </g>
    </g>
    <g id="ytick_3">
     <g id="line2d_32">
      <g>
       <use style="stroke:#000000;stroke-linecap:butt;stroke-width:0.5;" x="72.0" xlink:href="#mc8fcea1516" y="147.927272727"/>
      </g>
     </g>
     <g id="line2d_33">
      <g>
       <use style="stroke:#000000;stroke-linecap:butt;stroke-width:0.5;" x="518.4" xlink:href="#m0d5b0a6425" y="147.927272727"/>
      </g>
     </g>
     <g id="text_12">
      <!-- −0.001 -->
      <g transform="translate(25.97 152.295085227)scale(0.12 -0.12)">
       <use xlink:href="#DejaVuSans-2212"/>
       <use x="83.7890625" xlink:href="#DejaVuSans-30"/>
       <use x="147.412109375" xlink:href="#DejaVuSans-2e"/>
       <use x="179.19921875" xlink:href="#DejaVuSans-30"/>
       <use x="242.822265625" xlink:href="#DejaVuSans-30"/>
       <use x="306.4453125" xlink:href="#DejaVuSans-31"/>
      </g>
     </g>
    </g>
    <g id="ytick_4">
     <g id="line2d_34">
      <g>
       <use style="stroke:#000000;stroke-linecap:butt;stroke-width:0.5;" x="72.0" xlink:href="#mc8fcea1516" y="121.745454545"/>
      </g>
     </g>
     <g id="line2d_35">
      <g>
       <use style="stroke:#000000;stroke-linecap:butt;stroke-width:0.5;" x="518.4" xlink:href="#m0d5b0a6425" y="121.745454545"/>
      </g>
     </g>
     <g id="text_13">
      <!-- 0.000 -->
      <g transform="translate(35.234375 126.113267045)scale(0.12 -0.12)">
       <use xlink:href="#DejaVuSans-30"/>
       <use x="63.623046875" xlink:href="#DejaVuSans-2e"/>
       <use x="95.41015625" xlink:href="#DejaVuSans-30"/>
       <use x="159.033203125" xlink:href="#DejaVuSans-30"/>
       <use x="222.65625" xlink:href="#DejaVuSans-30"/>
      </g>
     </g>
    </g>
    <g id="ytick_5">
     <g id="line2d_36">
      <g>
       <use style="stroke:#000000;stroke-linecap:butt;stroke-width:0.5;" x="72.0" xlink:href="#mc8fcea1516" y="95.5636363636"/>
      </g>
     </g>
     <g id="line2d_37">
      <g>
       <use style="stroke:#000000;stroke-linecap:butt;stroke-width:0.5;" x="518.4" xlink:href="#m0d5b0a6425" y="95.5636363636"/>
      </g>
     </g>
     <g id="text_14">
      <!-- 0.001 -->
      <g transform="translate(35.545625 99.9314488636)scale(0.12 -0.12)">
       <use xlink:href="#DejaVuSans-30"/>
       <use x="63.623046875" xlink:href="#DejaVuSans-2e"/>
       <use x="95.41015625" xlink:href="#DejaVuSans-30"/>
       <use x="159.033203125" xlink:href="#DejaVuSans-30"/>
       <use x="222.65625" xlink:href="#DejaVuSans-31"/>
      </g>
     </g>
    </g>
    <g id="ytick_6">
     <g id="line2d_38">
      <g>
       <use style="stroke:#000000;stroke-linecap:butt;stroke-width:0.5;" x="72.0" xlink:href="#mc8fcea1516" y="69.3818181818"/>
      </g>
     </g>
     <g id="line2d_39">
      <g>
       <use style="stroke:#000000;stroke-linecap:butt;stroke-width:0.5;" x="518.4" xlink:href="#m0d5b0a6425" y="69.3818181818"/>
      </g>
     </g>
     <g id="text_15">
      <!-- 0.002 -->
      <g transform="translate(35.639375 73.7496306818)scale(0.12 -0.12)">
       <use xlink:href="#DejaVuSans-30"/>
       <use x="63.623046875" xlink:href="#DejaVuSans-2e"/>
       <use x="95.41015625" xlink:href="#DejaVuSans-30"/>
       <use x="159.033203125" xlink:href="#DejaVuSans-30"/>
       <use x="222.65625" xlink:href="#DejaVuSans-32"/>
      </g>
     </g>
    </g>
    <g id="ytick_7">
     <g id="line2d_40">
      <g>
       <use style="stroke:#000000;stroke-linecap:butt;stroke-width:0.5;" x="72.0" xlink:href="#mc8fcea1516" y="43.2"/>
      </g>
     </g>
     <g id="line2d_41">
      <g>
       <use style="stroke:#000000;stroke-linecap:butt;stroke-width:0.5;" x="518.4" xlink:href="#m0d5b0a6425" y="43.2"/>
      </g>
     </g>
     <g id="text_16">
      <!-- 0.003 -->
      <g transform="translate(35.399375 47.5678125)scale(0.12 -0.12)">
       <use xlink:href="#DejaVuSans-30"/>
       <use x="63.623046875" xlink:href="#DejaVuSans-2e"/>
       <use x="95.41015625" xlink:href="#DejaVuSans-30"/>
       <use x="159.033203125" xlink:href="#DejaVuSans-30"/>
       <use x="222.65625" xlink:href="#DejaVuSans-33"/>
      </g>
     </g>
    </g>
   </g>
   <g id="patch_3">
    <path d="
M72 43.2
L518.4 43.2" style="fill:none;stroke:#000000;"/>
   </g>
   <g id="patch_4">
    <path d="
M518.4 200.291
L518.4 43.2" style="fill:none;stroke:#000000;"/>
   </g>
   <g id="patch_5">
    <path d="
M72 200.291
L518.4 200.291" style="fill:none;stroke:#000000;"/>
   </g>
   <g id="patch_6">
    <path d="
M72 200.291
L72 43.2" style="fill:none;stroke:#000000;"/>
   </g>
  </g>
  <g id="axes_2">
   <g id="patch_7">
    <path d="
M72 388.8
L518.4 388.8
L518.4 231.709
L72 231.709
z
" style="fill:#ffffff;"/>
   </g>
   <g id="line2d_42">
    <path clip-path="url(#p8d90287ba5)" d="
M72 332.002
L82.5648 333.071
L93.1296 332.287
L103.694 329.966
L114.259 326.406
L124.824 321.886
L135.389 316.665
L145.954 310.985
L156.518 305.069
L167.083 299.118
L177.648 293.317
L188.213 287.833
L198.778 282.812
L209.342 278.381
L219.907 274.649
L230.472 271.706
L241.037 269.624
L251.602 268.455
L262.166 268.232
L272.731 268.969
L283.296 270.663
L293.861 273.289
L304.426 276.806
L314.99 281.152
L325.555 286.248
L336.12 291.996
L346.685 298.276
L357.25 304.954
L367.814 311.872
L378.379 318.858
L388.944 325.717
L399.509 332.238
L410.074 338.19
L420.638 343.322
L431.203 347.367
L441.768 350.037
L452.333 351.025
L462.898 350.006" style="fill:none;stroke:#0000ff;"/>
   </g>
   <g id="line2d_43">
    <path clip-path="url(#p8d90287ba5)" d="
M72 348.045
L82.5648 347.983
L93.1296 346.198
L103.694 342.97
L114.259 338.566
L124.824 333.233
L135.389 327.208
L145.954 320.709
L156.518 313.941
L167.083 307.091
L177.648 300.333
L188.213 293.824
L198.778 287.709
L209.342 282.113
L219.907 277.149
L230.472 272.913
L241.037 269.488
L251.602 266.938
L262.166 265.316
L272.731 264.656
L283.296 264.978
L293.861 266.287
L304.426 268.573
L314.99 271.811
L325.555 275.958
L336.12 280.959
L346.685 286.741
L357.25 293.219
L367.814 300.289
L378.379 307.833
L388.944 315.72
L399.509 323.8
L410.074 331.91
L420.638 339.872
L431.203 347.49
L441.768 354.556
L452.333 360.844
L462.898 366.115" style="fill:none;stroke:#008000;"/>
   </g>
   <g id="line2d_44">
    <path clip-path="url(#p8d90287ba5)" d="
M72 345.058
L82.5648 349.648
L93.1296 351.536
L103.694 351.099
L114.259 348.696
L124.824 344.663
L135.389 339.32
L145.954 332.966
L156.518 325.881
L167.083 318.326
L177.648 310.541
L188.213 302.75
L198.778 295.153
L209.342 287.934
L219.907 281.257
L230.472 275.266
L241.037 270.085
L251.602 265.819
L262.166 262.556
L272.731 260.36
L283.296 259.28
L293.861 259.343
L304.426 260.557
L314.99 262.912
L325.555 266.376
L336.12 270.9
L346.685 276.414
L357.25 282.83
L367.814 290.04
L378.379 297.916
L388.944 306.311
L399.509 315.059
L410.074 323.974
L420.638 332.851
L431.203 341.465
L441.768 349.573
L452.333 356.91
L462.898 363.195" style="fill:none;stroke:#ff0000;"/>
   </g>
   <g id="line2d_45">
    <path clip-path="url(#p8d90287ba5)" d="
M72 350.678
L82.5648 357.268
L93.1296 360.714
L103.694 361.422
L114.259 359.783
L124.824 356.165
L135.389 350.917
L145.954 344.368
L156.518 336.829
L167.083 328.588
L177.648 319.917
L188.213 311.066
L198.778 302.266
L209.342 293.728
L219.907 285.644
L230.472 278.184
L241.037 271.501
L251.602 265.728
L262.166 260.977
L272.731 257.34
L283.296 254.891
L293.861 253.684
L304.426 253.751
L314.99 255.107
L325.555 257.746
L336.12 261.643
L346.685 266.752
L357.25 273.009
L367.814 280.329
L378.379 288.608
L388.944 297.721
L399.509 307.525
L410.074 317.856
L420.638 328.532
L431.203 339.349
L441.768 350.084
L452.333 360.496" style="fill:none;stroke:#00bfbf;"/>
   </g>
   <g id="line2d_46">
    <path clip-path="url(#p8d90287ba5)" d="
M72 343.342
L82.5648 354.903
L93.1296 362.755
L103.694 367.311
L114.259 368.969
L124.824 368.106
L135.389 365.085
L145.954 360.248
L156.518 353.924
L167.083 346.421
L177.648 338.031
L188.213 329.029
L198.778 319.673
L209.342 310.201
L219.907 300.838
L230.472 291.788
L241.037 283.239
L251.602 275.361
L262.166 268.308
L272.731 262.216
L283.296 257.202
L293.861 253.369
L304.426 250.8
L314.99 249.562
L325.555 249.703
L336.12 251.256
L346.685 254.234
L357.25 258.634
L367.814 264.438
L378.379 271.606
L388.944 280.083
L399.509 289.798
L410.074 300.661
L420.638 312.564
L431.203 325.383
L441.768 338.976
L452.333 353.185" style="fill:none;stroke:#bf00bf;"/>
   </g>
   <g id="line2d_47">
    <path clip-path="url(#p8d90287ba5)" d="
M72 343.083
L82.5648 356.374
L93.1296 366.036
L103.694 372.419
L114.259 375.864
L124.824 376.698
L135.389 375.238
L145.954 371.787
L156.518 366.638
L167.083 360.072
L177.648 352.358
L188.213 343.753
L198.778 334.503
L209.342 324.841
L219.907 314.989
L230.472 305.158
L241.037 295.547
L251.602 286.341
L262.166 277.716
L272.731 269.834
L283.296 262.848
L293.861 256.898
L304.426 252.11
L314.99 248.601
L325.555 246.476
L336.12 245.827
L346.685 246.735
L357.25 249.269
L367.814 253.486
L378.379 259.433
L388.944 267.143
L399.509 276.637
L410.074 287.927
L420.638 301.012
L431.203 315.876
L441.768 332.497" style="fill:none;stroke:#bfbf00;"/>
   </g>
   <g id="line2d_48">
    <path clip-path="url(#p8d90287ba5)" d="
M72 321.046
L82.5648 336.96
L93.1296 349.892
L103.694 360.026
L114.259 367.546
L124.824 372.637
L135.389 375.483
L145.954 376.269
L156.518 375.178
L167.083 372.394
L177.648 368.103
L188.213 362.489
L198.778 355.735
L209.342 348.026
L219.907 339.548
L230.472 330.483
L241.037 321.018
L251.602 311.335
L262.166 301.62
L272.731 292.058
L283.296 282.832
L293.861 274.128
L304.426 266.13
L314.99 259.023
L325.555 252.991
L336.12 248.219
L346.685 244.892
L357.25 243.194
L367.814 243.311
L378.379 245.427
L388.944 249.727
L399.509 256.395
L410.074 265.618
L420.638 277.578
L431.203 292.462
L441.768 310.454" style="fill:none;stroke:#000000;"/>
   </g>
   <g id="line2d_49">
    <path clip-path="url(#p8d90287ba5)" d="
M72 316.127
L82.5648 327.23
L93.1296 337.166
L103.694 345.867
L114.259 353.277
L124.824 359.354
L135.389 364.071
L145.954 367.416
L156.518 369.388
L167.083 370.002
L177.648 369.288
L188.213 367.288
L198.778 364.059
L209.342 359.671
L219.907 354.21
L230.472 347.774
L241.037 340.477
L251.602 332.444
L262.166 323.817
L272.731 314.752
L283.296 305.416
L293.861 295.993
L304.426 286.679
L314.99 277.687
L325.555 269.24
L336.12 261.578
L346.685 254.954
L357.25 249.634
L367.814 245.901
L378.379 244.049
L388.944 244.386
L399.509 247.238
L410.074 252.939
L420.638 261.842
L431.203 274.312
L441.768 290.728" style="fill:none;stroke:#0000ff;"/>
   </g>
   <g id="line2d_50">
    <path clip-path="url(#p8d90287ba5)" d="
M72 286.634
L82.5648 298.062
L93.1296 309.078
L103.694 319.486
L114.259 329.115
L124.824 337.813
L135.389 345.451
L145.954 351.923
L156.518 357.144
L167.083 361.05
L177.648 363.601
L188.213 364.777
L198.778 364.581
L209.342 363.038
L219.907 360.194
L230.472 356.119
L241.037 350.903
L251.602 344.658
L262.166 337.519
L272.731 329.642
L283.296 321.206
L293.861 312.411
L304.426 303.48
L314.99 294.656
L325.555 286.207
L336.12 278.419
L346.685 271.603
L357.25 266.092
L367.814 262.239
L378.379 260.419
L388.944 261.032
L399.509 264.497
L410.074 271.255
L420.638 281.771
L431.203 296.529" style="fill:none;stroke:#008000;"/>
   </g>
   <g id="matplotlib.axis_3">
    <g id="xtick_10">
     <g id="line2d_51">
      <g>
       <use style="stroke:#000000;stroke-linecap:butt;stroke-width:0.5;" x="72.0" xlink:href="#mcb557df647" y="388.8"/>
      </g>
     </g>
     <g id="line2d_52">
      <g>
       <use style="stroke:#000000;stroke-linecap:butt;stroke-width:0.5;" x="72.0" xlink:href="#mdad270ee8e" y="231.709090909"/>
      </g>
     </g>
     <g id="text_17">
      <!-- 0.0 -->
      <g transform="translate(63.2521875 401.70625)scale(0.12 -0.12)">
       <use xlink:href="#DejaVuSans-30"/>
       <use x="63.623046875" xlink:href="#DejaVuSans-2e"/>
       <use x="95.41015625" xlink:href="#DejaVuSans-30"/>
      </g>
     </g>
    </g>
    <g id="xtick_11">
     <g id="line2d_53">
      <g>
       <use style="stroke:#000000;stroke-linecap:butt;stroke-width:0.5;" x="146.4" xlink:href="#mcb557df647" y="388.8"/>
      </g>
     </g>
     <g id="line2d_54">
      <g>
       <use style="stroke:#000000;stroke-linecap:butt;stroke-width:0.5;" x="146.4" xlink:href="#mdad270ee8e" y="231.709090909"/>
      </g>
     </g>
     <g id="text_18">
      <!-- 0.5 -->
      <g transform="translate(137.7778125 401.70625)scale(0.12 -0.12)">
       <use xlink:href="#DejaVuSans-30"/>
       <use x="63.623046875" xlink:href="#DejaVuSans-2e"/>
       <use x="95.41015625" xlink:href="#DejaVuSans-35"/>
      </g>
     </g>
    </g>
    <g id="xtick_12">
     <g id="line2d_55">
      <g>
       <use style="stroke:#000000;stroke-linecap:butt;stroke-width:0.5;" x="220.8" xlink:href="#mcb557df647" y="388.8"/>
      </g>
     </g>
     <g id="line2d_56">
      <g>
       <use style="stroke:#000000;stroke-linecap:butt;stroke-width:0.5;" x="220.8" xlink:href="#mdad270ee8e" y="231.709090909"/>
      </g>
     </g>
     <g id="text_19">
      <!-- 1.0 -->
      <g transform="translate(212.315625 401.70625)scale(0.12 -0.12)">
       <use xlink:href="#DejaVuSans-31"/>
       <use x="63.623046875" xlink:href="#DejaVuSans-2e"/>
       <use x="95.41015625" xlink:href="#DejaVuSans-30"/>
      </g>
     </g>
    </g>
    <g id="xtick_13">
     <g id="line2d_57">
      <g>
       <use style="stroke:#000000;stroke-linecap:butt;stroke-width:0.5;" x="295.2" xlink:href="#mcb557df647" y="388.8"/>
      </g>
     </g>
     <g id="line2d_58">
      <g>
       <use style="stroke:#000000;stroke-linecap:butt;stroke-width:0.5;" x="295.2" xlink:href="#mdad270ee8e" y="231.709090909"/>
      </g>
     </g>
     <g id="text_20">
      <!-- 1.5 -->
      <g transform="translate(286.84125 401.54875)scale(0.12 -0.12)">
       <use xlink:href="#DejaVuSans-31"/>
       <use x="63.623046875" xlink:href="#DejaVuSans-2e"/>
       <use x="95.41015625" xlink:href="#DejaVuSans-35"/>
      </g>
     </g>
    </g>
    <g id="xtick_14">
     <g id="line2d_59">
      <g>
       <use style="stroke:#000000;stroke-linecap:butt;stroke-width:0.5;" x="369.6" xlink:href="#mcb557df647" y="388.8"/>
      </g>
     </g>
     <g id="line2d_60">
      <g>
       <use style="stroke:#000000;stroke-linecap:butt;stroke-width:0.5;" x="369.6" xlink:href="#mdad270ee8e" y="231.709090909"/>
      </g>
     </g>
     <g id="text_21">
      <!-- 2.0 -->
      <g transform="translate(360.89625 401.70625)scale(0.12 -0.12)">
       <use xlink:href="#DejaVuSans-32"/>
       <use x="63.623046875" xlink:href="#DejaVuSans-2e"/>
       <use x="95.41015625" xlink:href="#DejaVuSans-30"/>
      </g>
     </g>
    </g>
    <g id="xtick_15">
     <g id="line2d_61">
      <g>
       <use style="stroke:#000000;stroke-linecap:butt;stroke-width:0.5;" x="444.0" xlink:href="#mcb557df647" y="388.8"/>
      </g>
     </g>
     <g id="line2d_62">
      <g>
       <use style="stroke:#000000;stroke-linecap:butt;stroke-width:0.5;" x="444.0" xlink:href="#mdad270ee8e" y="231.709090909"/>
      </g>
     </g>
     <g id="text_22">
      <!-- 2.5 -->
      <g transform="translate(435.421875 401.70625)scale(0.12 -0.12)">
       <use xlink:href="#DejaVuSans-32"/>
       <use x="63.623046875" xlink:href="#DejaVuSans-2e"/>
       <use x="95.41015625" xlink:href="#DejaVuSans-35"/>
      </g>
     </g>
    </g>
    <g id="xtick_16">
     <g id="line2d_63">
      <g>
       <use style="stroke:#000000;stroke-linecap:butt;stroke-width:0.5;" x="518.4" xlink:href="#mcb557df647" y="388.8"/>
      </g>
     </g>
     <g id="line2d_64">
      <g>
       <use style="stroke:#000000;stroke-linecap:butt;stroke-width:0.5;" x="518.4" xlink:href="#mdad270ee8e" y="231.709090909"/>
      </g>
     </g>
     <g id="text_23">
      <!-- 3.0 -->
      <g transform="translate(509.7140625 401.70625)scale(0.12 -0.12)">
       <use xlink:href="#DejaVuSans-33"/>
       <use x="63.623046875" xlink:href="#DejaVuSans-2e"/>
       <use x="95.41015625" xlink:href="#DejaVuSans-30"/>
      </g>
     </g>
    </g>
   </g>
   <g id="matplotlib.axis_4">
    <g id="ytick_8">
     <g id="line2d_65">
      <g>
       <use style="stroke:#000000;stroke-linecap:butt;stroke-width:0.5;" x="72.0" xlink:href="#mc8fcea1516" y="388.8"/>
      </g>
     </g>
     <g id="line2d_66">
      <g>
       <use style="stroke:#000000;stroke-linecap:butt;stroke-width:0.5;" x="518.4" xlink:href="#m0d5b0a6425" y="388.8"/>
      </g>
     </g>
     <g id="text_24">
      <!-- −200 -->
      <g transform="translate(37.1075 393.1678125)scale(0.12 -0.12)">
       <use xlink:href="#DejaVuSans-2212"/>
       <use x="83.7890625" xlink:href="#DejaVuSans-32"/>
       <use x="147.412109375" xlink:href="#DejaVuSans-30"/>
       <use x="211.03515625" xlink:href="#DejaVuSans-30"/>
      </g>
     </g>
    </g>
    <g id="ytick_9">
     <g id="line2d_67">
      <g>
       <use style="stroke:#000000;stroke-linecap:butt;stroke-width:0.5;" x="72.0" xlink:href="#mc8fcea1516" y="369.163636364"/>
      </g>
     </g>
     <g id="line2d_68">
      <g>
       <use style="stroke:#000000;stroke-linecap:butt;stroke-width:0.5;" x="518.4" xlink:href="#m0d5b0a6425" y="369.163636364"/>
      </g>
     </g>
     <g id="text_25">
      <!-- −150 -->
      <g transform="translate(37.1075 373.531448864)scale(0.12 -0.12)">
       <use xlink:href="#DejaVuSans-2212"/>
       <use x="83.7890625" xlink:href="#DejaVuSans-31"/>
       <use x="147.412109375" xlink:href="#DejaVuSans-35"/>
       <use x="211.03515625" xlink:href="#DejaVuSans-30"/>
      </g>
     </g>
    </g>
    <g id="ytick_10">
     <g id="line2d_69">
      <g>
       <use style="stroke:#000000;stroke-linecap:butt;stroke-width:0.5;" x="72.0" xlink:href="#mc8fcea1516" y="349.527272727"/>
      </g>
     </g>
     <g id="line2d_70">
      <g>
       <use style="stroke:#000000;stroke-linecap:butt;stroke-width:0.5;" x="518.4" xlink:href="#m0d5b0a6425" y="349.527272727"/>
      </g>
     </g>
     <g id="text_26">
      <!-- −100 -->
      <g transform="translate(37.1075 353.895085227)scale(0.12 -0.12)">
       <use xlink:href="#DejaVuSans-2212"/>
       <use x="83.7890625" xlink:href="#DejaVuSans-31"/>
       <use x="147.412109375" xlink:href="#DejaVuSans-30"/>
       <use x="211.03515625" xlink:href="#DejaVuSans-30"/>
      </g>
     </g>
    </g>
    <g id="ytick_11">
     <g id="line2d_71">
      <g>
       <use style="stroke:#000000;stroke-linecap:butt;stroke-width:0.5;" x="72.0" xlink:href="#mc8fcea1516" y="329.890909091"/>
      </g>
     </g>
     <g id="line2d_72">
      <g>
       <use style="stroke:#000000;stroke-linecap:butt;stroke-width:0.5;" x="518.4" xlink:href="#m0d5b0a6425" y="329.890909091"/>
      </g>
     </g>
     <g id="text_27">
      <!-- −50 -->
      <g transform="translate(44.7425 334.258721591)scale(0.12 -0.12)">
       <use xlink:href="#DejaVuSans-2212"/>
       <use x="83.7890625" xlink:href="#DejaVuSans-35"/>
       <use x="147.412109375" xlink:href="#DejaVuSans-30"/>
      </g>
     </g>
    </g>
    <g id="ytick_12">
     <g id="line2d_73">
      <g>
       <use style="stroke:#000000;stroke-linecap:butt;stroke-width:0.5;" x="72.0" xlink:href="#mc8fcea1516" y="310.254545455"/>
      </g>
     </g>
     <g id="line2d_74">
      <g>
       <use style="stroke:#000000;stroke-linecap:butt;stroke-width:0.5;" x="518.4" xlink:href="#m0d5b0a6425" y="310.254545455"/>
      </g>
     </g>
     <g id="text_28">
      <!-- 0 -->
      <g transform="translate(61.953125 314.622357955)scale(0.12 -0.12)">
       <use xlink:href="#DejaVuSans-30"/>
      </g>
     </g>
    </g>
    <g id="ytick_13">
     <g id="line2d_75">
      <g>
       <use style="stroke:#000000;stroke-linecap:butt;stroke-width:0.5;" x="72.0" xlink:href="#mc8fcea1516" y="290.618181818"/>
      </g>
     </g>
     <g id="line2d_76">
      <g>
       <use style="stroke:#000000;stroke-linecap:butt;stroke-width:0.5;" x="518.4" xlink:href="#m0d5b0a6425" y="290.618181818"/>
      </g>
     </g>
     <g id="text_29">
      <!-- 50 -->
      <g transform="translate(54.453125 294.985994318)scale(0.12 -0.12)">
       <use xlink:href="#DejaVuSans-35"/>
       <use x="63.623046875" xlink:href="#DejaVuSans-30"/>
      </g>
     </g>
    </g>
    <g id="ytick_14">
     <g id="line2d_77">
      <g>
       <use style="stroke:#000000;stroke-linecap:butt;stroke-width:0.5;" x="72.0" xlink:href="#mc8fcea1516" y="270.981818182"/>
      </g>
     </g>
     <g id="line2d_78">
      <g>
       <use style="stroke:#000000;stroke-linecap:butt;stroke-width:0.5;" x="518.4" xlink:href="#m0d5b0a6425" y="270.981818182"/>
      </g>
     </g>
     <g id="text_30">
      <!-- 100 -->
      <g transform="translate(47.21 275.349630682)scale(0.12 -0.12)">
       <use xlink:href="#DejaVuSans-31"/>
       <use x="63.623046875" xlink:href="#DejaVuSans-30"/>
       <use x="127.24609375" xlink:href="#DejaVuSans-30"/>
      </g>
     </g>
    </g>
    <g id="ytick_15">
     <g id="line2d_79">
      <g>
       <use style="stroke:#000000;stroke-linecap:butt;stroke-width:0.5;" x="72.0" xlink:href="#mc8fcea1516" y="251.345454545"/>
      </g>
     </g>
     <g id="line2d_80">
      <g>
       <use style="stroke:#000000;stroke-linecap:butt;stroke-width:0.5;" x="518.4" xlink:href="#m0d5b0a6425" y="251.345454545"/>
      </g>
     </g>
     <g id="text_31">
      <!-- 150 -->
      <g transform="translate(47.21 255.713267045)scale(0.12 -0.12)">
       <use xlink:href="#DejaVuSans-31"/>
       <use x="63.623046875" xlink:href="#DejaVuSans-35"/>
       <use x="127.24609375" xlink:href="#DejaVuSans-30"/>
      </g>
     </g>
    </g>
    <g id="ytick_16">
     <g id="line2d_81">
      <g>
       <use style="stroke:#000000;stroke-linecap:butt;stroke-width:0.5;" x="72.0" xlink:href="#mc8fcea1516" y="231.709090909"/>
      </g>
     </g>
     <g id="line2d_82">
      <g>
       <use style="stroke:#000000;stroke-linecap:butt;stroke-width:0.5;" x="518.4" xlink:href="#m0d5b0a6425" y="231.709090909"/>
      </g>
     </g>
     <g id="text_32">
      <!-- 200 -->
      <g transform="translate(46.77125 236.076903409)scale(0.12 -0.12)">
       <use xlink:href="#DejaVuSans-32"/>
       <use x="63.623046875" xlink:href="#DejaVuSans-30"/>
       <use x="127.24609375" xlink:href="#DejaVuSans-30"/>
      </g>
     </g>
    </g>
   </g>
   <g id="patch_8">
    <path d="
M72 231.709
L518.4 231.709" style="fill:none;stroke:#000000;"/>
   </g>
   <g id="patch_9">
    <path d="
M518.4 388.8
L518.4 231.709" style="fill:none;stroke:#000000;"/>
   </g>
   <g id="patch_10">
    <path d="
M72 388.8
L518.4 388.8" style="fill:none;stroke:#000000;"/>
   </g>
   <g id="patch_11">
    <path d="
M72 388.8
L72 231.709" style="fill:none;stroke:#000000;"/>
   </g>
  </g>
 </g>
 <defs>
  <clipPath id="p3af14643a6">
   <rect height="157.090909091" width="446.4" x="72.0" y="43.2"/>
  </clipPath>
  <clipPath id="p8d90287ba5">
   <rect height="157.090909091" width="446.4" x="72.0" y="231.709090909"/>
  </clipPath>
 </defs>
</svg>
